<svg width="25" height="25" viewBox="0 0 25 25" fill="none" xmlns="http://www.w3.org/2000/svg">
<path d="M12.4969 8.66489C10.3853 8.66489 8.66201 10.3881 8.66201 12.4998C8.66201 14.6114 10.3853 16.3347 12.4969 16.3347C14.6085 16.3347 16.3318 14.6114 16.3318 12.4998C16.3318 10.3881 14.6085 8.66489 12.4969 8.66489ZM23.9987 12.4998C23.9987 10.9117 24.0131 9.33808 23.9239 7.75292C23.8347 5.91171 23.4147 4.27763 22.0683 2.93125C20.7191 1.58199 19.0879 1.16484 17.2467 1.07565C15.6586 0.986471 14.085 1.00086 12.4998 1.00086C10.9117 1.00086 9.33808 0.986471 7.75292 1.07565C5.91171 1.16484 4.27763 1.58486 2.93125 2.93125C1.58199 4.28051 1.16484 5.91171 1.07565 7.75292C0.986471 9.34096 1.00086 10.9146 1.00086 12.4998C1.00086 14.085 0.986471 15.6615 1.07565 17.2467C1.16484 19.0879 1.58486 20.7219 2.93125 22.0683C4.28051 23.4176 5.91171 23.8347 7.75292 23.9239C9.34096 24.0131 10.9146 23.9987 12.4998 23.9987C14.0878 23.9987 15.6615 24.0131 17.2467 23.9239C19.0879 23.8347 20.7219 23.4147 22.0683 22.0683C23.4176 20.7191 23.8347 19.0879 23.9239 17.2467C24.016 15.6615 23.9987 14.0878 23.9987 12.4998ZM12.4969 18.4003C9.23164 18.4003 6.59641 15.7651 6.59641 12.4998C6.59641 9.23451 9.23164 6.59928 12.4969 6.59928C15.7622 6.59928 18.3974 9.23451 18.3974 12.4998C18.3974 15.7651 15.7622 18.4003 12.4969 18.4003ZM18.6391 7.73565C17.8767 7.73565 17.261 7.12 17.261 6.35762C17.261 5.59525 17.8767 4.97959 18.6391 4.97959C19.4014 4.97959 20.0171 5.59525 20.0171 6.35762C20.0173 6.53865 19.9818 6.71795 19.9127 6.88524C19.8435 7.05254 19.742 7.20454 19.614 7.33255C19.486 7.46055 19.334 7.56205 19.1667 7.63122C18.9994 7.70039 18.8201 7.73588 18.6391 7.73565Z" fill="#252932"/>
</svg>
