<svg width="60" height="73" viewBox="0 0 60 73" fill="none" xmlns="http://www.w3.org/2000/svg">
<circle opacity="0.6" cx="30" cy="30" r="30" fill="#982E2E"/>
<path d="M15.424 65.304V71H14.768V68.384H11.352V71H10.704V65.304H11.352V67.832H14.768V65.304H15.424ZM22.101 71H21.405L20.701 69.104C20.6157 68.8693 20.4957 68.712 20.341 68.632C20.1917 68.552 19.9783 68.512 19.701 68.512H18.277V71H17.629V65.304H19.893C20.5063 65.304 20.9757 65.44 21.301 65.712C21.6317 65.984 21.797 66.376 21.797 66.888C21.797 67.2613 21.6983 67.576 21.501 67.832C21.309 68.0827 21.029 68.2613 20.661 68.368C20.8263 68.3947 20.9677 68.4667 21.085 68.584C21.2023 68.696 21.301 68.8587 21.381 69.072L22.101 71ZM19.837 67.968C20.7117 67.968 21.149 67.6107 21.149 66.896C21.149 66.544 21.0423 66.2827 20.829 66.112C20.6157 65.936 20.285 65.848 19.837 65.848H18.277V67.968H19.837ZM27.657 69.536H24.681L24.049 71H23.369L25.873 65.304H26.449L28.953 71H28.281L27.657 69.536ZM27.425 68.992L26.169 66.064L24.913 68.992H27.425ZM33.836 68.072C34.1613 68.1627 34.4147 68.328 34.596 68.568C34.7773 68.8027 34.868 69.096 34.868 69.448C34.868 69.944 34.7027 70.328 34.372 70.6C34.0413 70.8667 33.5747 71 32.972 71H30.604V65.304H32.892C33.4733 65.304 33.924 65.4347 34.244 65.696C34.5693 65.952 34.732 66.3173 34.732 66.792C34.732 67.096 34.652 67.36 34.492 67.584C34.3373 67.8027 34.1187 67.9653 33.836 68.072ZM31.252 67.832H32.788C33.2147 67.832 33.5373 67.7467 33.756 67.576C33.9747 67.4053 34.084 67.1547 34.084 66.824C34.084 66.1733 33.652 65.848 32.788 65.848H31.252V67.832ZM32.916 70.456C33.364 70.456 33.692 70.3733 33.9 70.208C34.1133 70.0373 34.22 69.7787 34.22 69.432C34.22 68.7333 33.7853 68.384 32.916 68.384H31.252V70.456H32.916ZM41.3213 71H40.6253L39.9213 69.104C39.836 68.8693 39.716 68.712 39.5613 68.632C39.412 68.552 39.1986 68.512 38.9213 68.512H37.4973V71H36.8493V65.304H39.1133C39.7266 65.304 40.196 65.44 40.5213 65.712C40.852 65.984 41.0173 66.376 41.0173 66.888C41.0173 67.2613 40.9186 67.576 40.7213 67.832C40.5293 68.0827 40.2493 68.2613 39.8813 68.368C40.0466 68.3947 40.188 68.4667 40.3053 68.584C40.4226 68.696 40.5213 68.8587 40.6013 69.072L41.3213 71ZM39.0573 67.968C39.932 67.968 40.3693 67.6107 40.3693 66.896C40.3693 66.544 40.2626 66.2827 40.0493 66.112C39.836 65.936 39.5053 65.848 39.0573 65.848H37.4973V67.968H39.0573ZM46.8773 69.536H43.9013L43.2693 71H42.5893L45.0933 65.304H45.6693L48.1733 71H47.5013L46.8773 69.536ZM46.6453 68.992L45.3893 66.064L44.1333 68.992H46.6453Z" fill="black"/>
<path d="M26.1015 47.2292C29.6439 47.2292 32.5157 44.3575 32.5157 40.815C32.5157 37.2726 29.6439 34.4009 26.1015 34.4009C22.5591 34.4009 19.6874 37.2726 19.6874 40.815C19.6874 44.3575 22.5591 47.2292 26.1015 47.2292Z" fill="#252932"/>
<path d="M30.2262 12.5804L28.2307 12.6249L27.1563 11.7519L26.0053 10.7612L24.678 11.1443L23.4718 12.0565L22.5649 12.5038L21.8593 12.3291L21.731 11.237L22.4793 10.0842C22.4793 10.0842 23.7479 7.80184 23.7782 7.66821C23.8085 7.53458 25.1359 5.82414 25.1359 5.82414L26.8499 5.6727L28.0846 5.66735L28.8828 4.96714L28.9149 4.17785L28.4035 3.51149L27.812 3.31372H27.1973L25.567 3.90525L24.5978 4.55557L23.5537 5.21124L22.0161 7.16577L20.8669 8.71229C20.8669 8.71229 19.5663 10.4584 19.324 10.7078C19.0816 10.9572 18.4527 12.6338 18.3921 12.9527C18.3315 13.2699 18.1783 14.599 18.2389 14.7184C18.2995 14.8378 20.0366 15.0249 20.0366 15.0249L22.9212 15.0944L25.5421 15.1959L27.951 15.6396L29.02 14.3211L30.2262 12.5804Z" fill="white"/>
<path d="M37.0145 23.9758L29.7861 26.0301L30.3206 23.6568L29.1411 21.8662L35.5713 21.9072L37.0145 23.9758Z" fill="white"/>
<path d="M37.6399 16.3325L38.6073 17.8007L39.7031 19.0479L40.8915 20.1204L41.2941 20.8402L40.936 21.9966L39.0189 23.1939L38.5325 23.8406L36.1878 25.6348L34.9923 25.8985L34.4221 26.7609V28.637L35.4911 31.0601L37.6523 29.6686L37.027 27.1368L38.4363 25.658L41.1605 24.0081L42.5235 23.1725L43.5427 22.0197L43.2522 20.8171L42.365 19.2813L40.6118 16.7245L39.5445 14.6702L37.7878 14.6274L37.6399 16.3325Z" fill="white"/>
<path d="M36.8541 16.3718H30.3669L30.9603 5.80093L36.8541 5.0437V16.3718Z" fill="white"/>
<path d="M31.705 6.31049C31.6765 6.65258 31.468 6.92875 31.2952 7.21204C31.1277 7.4882 31.0083 7.78218 30.9424 8.09754C30.8765 8.40578 30.8551 8.72292 30.8498 9.0365C30.8444 9.33939 30.8123 9.68861 30.8907 9.98437C31.0244 10.5028 31.7121 10.8129 32.1771 10.9536C32.7402 11.1229 33.3566 11.1122 33.9107 10.9109C34.5058 10.6935 35.0083 10.2837 35.3486 9.74918C35.4252 9.62803 35.2328 9.51578 35.1562 9.63693C34.3686 10.8752 32.6742 11.2262 31.4716 10.3639C31.313 10.2498 31.1562 10.1216 31.1045 9.92557C31.06 9.75275 31.0742 9.56032 31.0725 9.38215C31.0671 8.98483 31.0725 8.58395 31.1509 8.19376C31.2239 7.83029 31.3718 7.51314 31.566 7.20135C31.7406 6.91984 31.901 6.64724 31.9295 6.30871C31.9402 6.16796 31.7174 6.16796 31.705 6.31049Z" fill="#252932"/>
<path d="M29.0413 11.399C28.9718 10.7433 28.619 10.1054 28.6493 9.44087C28.6654 9.08988 28.8703 8.76383 29.0253 8.45559C29.1767 8.15448 29.3388 7.85872 29.5045 7.56474C29.8448 6.9643 30.2048 6.37634 30.5397 5.77235C30.7161 5.45342 30.8854 5.13093 31.0404 4.80131C31.1188 4.63562 31.1758 4.44141 31.272 4.2864C31.3646 4.13496 31.4894 4.11892 31.6497 4.09576C31.7905 4.07438 31.7317 3.86058 31.5909 3.88017C31.4519 3.89977 31.3237 3.92472 31.2078 4.01024C31.0796 4.10289 31.0457 4.2579 30.9834 4.39865C30.823 4.75855 30.6448 5.11133 30.4578 5.45876C30.0996 6.12334 29.7041 6.76654 29.3317 7.42042C29.1464 7.74647 28.9665 8.07431 28.799 8.41105C28.6565 8.69612 28.4765 8.99188 28.4373 9.31259C28.3482 10.0235 28.7438 10.7023 28.8186 11.399C28.8328 11.5397 29.0556 11.5415 29.0413 11.399Z" fill="#252932"/>
<path d="M32.2306 6.03951C32.6743 6.16067 33.1179 6.2836 33.5615 6.40476C33.9517 6.51166 34.374 6.58827 34.7499 6.7415C35.1294 6.89651 35.3023 7.32946 35.4733 7.67511C35.6711 8.076 35.7655 8.46441 35.7655 8.9134C35.7655 9.29112 35.7477 9.65993 35.8332 10.0305C35.9062 10.3512 36.0328 10.6577 36.1664 10.957C36.4639 11.6198 36.8399 12.2737 36.847 13.0202C36.8488 13.1628 37.0715 13.1645 37.0697 13.0202C37.059 11.8158 36.145 10.8875 36.0025 9.71873C35.9597 9.36773 36.0025 9.01495 35.9829 8.66396C35.965 8.35216 35.8866 8.05818 35.7637 7.77311C35.5374 7.25107 35.2844 6.67914 34.7089 6.49206C33.9161 6.2355 33.0947 6.04485 32.2912 5.82392C32.1504 5.78651 32.0916 6.00209 32.2306 6.03951Z" fill="#252932"/>
<path d="M34.9102 10.4243C34.4078 11.2795 34.3044 12.3378 34.6412 13.2732C34.6893 13.4068 34.9049 13.3498 34.8567 13.2144C34.5396 12.3342 34.6287 11.3454 35.1026 10.5383C35.1757 10.4136 34.9832 10.3013 34.9102 10.4243Z" fill="#252932"/>
<path d="M31.9615 11.0192C32.2092 11.2027 32.3428 11.5412 32.2787 11.8424C32.2145 12.1452 31.9776 12.3893 31.68 12.4713C31.5428 12.5087 31.5999 12.7243 31.7388 12.6869C32.113 12.5835 32.4248 12.2646 32.4978 11.8798C32.5726 11.4771 32.3998 11.0691 32.0738 10.8286C31.958 10.743 31.8475 10.9355 31.9615 11.0192Z" fill="#252932"/>
<path d="M28.1362 15.4633C28.7474 14.6508 29.2872 13.7795 29.9874 13.0366C30.2796 12.7265 30.6591 12.2508 31.142 12.4183C31.3201 12.4807 31.4841 12.6446 31.5268 12.8334C31.5731 13.0437 31.4164 13.2254 31.2774 13.3626C31.0493 13.5871 30.7393 13.8027 30.6663 14.1359C30.5932 14.4691 30.8373 14.8575 31.1242 15.0107C31.4948 15.2085 31.9972 15.2049 32.3963 15.1265C32.8702 15.0339 33.3121 14.8076 33.7041 14.5314C34.1406 14.225 34.488 13.7546 35.0083 13.5942C35.5642 13.4232 36.1664 13.5087 36.7098 13.6851C36.847 13.7296 36.9058 13.5141 36.7686 13.4695C36.3 13.3163 35.8011 13.2379 35.3076 13.3038C35.0991 13.3305 34.8978 13.3858 34.7054 13.4713C34.4827 13.5729 34.3348 13.7154 34.1566 13.8793C33.7522 14.2499 33.2943 14.5866 32.7776 14.7844C32.3143 14.9608 31.6605 15.0641 31.2061 14.8022C30.9959 14.6811 30.8159 14.3728 30.9014 14.1305C30.9656 13.9452 31.1242 13.8045 31.2649 13.6762C31.4912 13.4695 31.7905 13.2076 31.762 12.8637C31.7335 12.5305 31.4199 12.2419 31.1063 12.1796C30.7019 12.0976 30.4043 12.3167 30.1264 12.5804C29.2676 13.3947 28.6494 14.412 27.942 15.351C27.8583 15.465 28.0507 15.5755 28.1362 15.4633Z" fill="#252932"/>
<path d="M35.2061 13.2606C36.4212 13.5741 37.6042 14 38.7391 14.5345C38.7391 14.4703 38.7391 14.4062 38.7391 14.3421C38.7178 14.3545 38.6946 14.367 38.6732 14.3795C38.5485 14.4507 38.6607 14.6432 38.7855 14.5719C38.8068 14.5594 38.83 14.547 38.8514 14.5345C38.9191 14.4953 38.928 14.3777 38.8514 14.3421C37.6986 13.7986 36.4978 13.3639 35.2649 13.045C35.1259 13.0093 35.0671 13.2249 35.2061 13.2606Z" fill="#252932"/>
<path d="M38.7517 14.7787C39.769 14.9925 40.1396 16.1792 40.6243 16.9596C41.1588 17.8219 41.7913 18.6183 42.3525 19.4646C42.8621 20.2325 43.6033 21.2659 43.2754 22.237C43.1008 22.7519 42.6002 22.9942 42.1672 23.2614C41.6915 23.5536 41.2176 23.8441 40.7418 24.1363C39.7922 24.7189 38.8408 25.3033 37.8911 25.8859C37.5223 26.1122 37.1357 26.342 36.8774 26.7001C36.6511 27.0137 36.5549 27.4004 36.5567 27.7834C36.5584 28.1932 36.6653 28.5994 36.8257 28.9736C36.913 29.1767 37.1232 29.4458 37.0876 29.6702C37.0502 29.9072 36.7758 29.9945 36.5727 30.0462C36.3428 30.105 36.1077 30.1424 35.876 30.1887C35.7495 30.2137 35.5999 30.2618 35.4698 30.2493C35.2614 30.2297 35.2204 30.064 35.1669 29.8912C35.0119 29.3834 34.8854 28.8667 34.7839 28.3447C34.6752 27.787 34.4952 27.1206 34.6467 26.5594C34.7215 26.285 34.8961 26.0267 35.1723 25.9269C35.411 25.8414 35.6747 25.8627 35.917 25.7986C36.4462 25.6561 36.8791 25.2516 37.3032 24.9256C37.8038 24.5389 38.3045 24.1523 38.8069 23.7675C38.9192 23.6819 38.8087 23.4877 38.6947 23.575C38.2047 23.9527 37.7165 24.3287 37.2266 24.7064C36.7918 25.0414 36.3375 25.4815 35.7852 25.6008C35.5375 25.6543 35.2792 25.64 35.0422 25.7398C34.8569 25.8164 34.709 25.9554 34.5986 26.1211C34.3295 26.5291 34.3545 27.0351 34.4168 27.4983C34.4952 28.0792 34.6075 28.6547 34.75 29.223C34.8177 29.4939 34.889 29.7647 34.9745 30.0301C35.0333 30.2119 35.1135 30.3847 35.3095 30.4471C35.5108 30.5094 35.7353 30.4435 35.9331 30.4043C36.2021 30.3491 36.4836 30.3134 36.7455 30.2279C37.1001 30.1121 37.4047 29.852 37.2854 29.444C37.2194 29.2159 37.0733 29.011 36.9878 28.7901C36.897 28.5585 36.8292 28.3161 36.7972 28.0703C36.7313 27.5643 36.831 27.0458 37.1892 26.6663C37.574 26.2601 38.1299 25.9964 38.6003 25.7077C39.1259 25.3852 39.6497 25.0628 40.1753 24.7403C40.7009 24.4178 41.2247 24.0953 41.7503 23.7728C42.2117 23.4895 42.7605 23.2365 43.1454 22.8517C43.9044 22.0926 43.4981 20.9666 43.0456 20.1666C42.4273 19.0727 41.6184 18.1034 40.9396 17.0486C40.6118 16.5391 40.3623 15.9832 40.0238 15.4825C39.7298 15.0478 39.3325 14.6736 38.8051 14.5632C38.6715 14.5346 38.6109 14.7485 38.7517 14.7787Z" fill="#252932"/>
<path d="M39.0741 23.3062C39.2166 23.3062 39.2184 23.0835 39.0741 23.0835C38.9316 23.0835 38.9298 23.3062 39.0741 23.3062Z" fill="#252932"/>
<path d="M38.7534 23.7248C38.7641 23.511 38.994 23.3471 39.1507 23.2348C39.3717 23.0781 39.614 22.948 39.8545 22.8215C40.3071 22.581 40.7062 22.3689 41.0091 21.9378C41.3725 21.4211 41.5115 20.7298 41.1071 20.1953C40.8897 19.9066 40.5797 19.7106 40.3088 19.4772C40.0131 19.2242 39.744 18.9338 39.4893 18.6416C38.8728 17.9378 38.3579 17.1539 37.9445 16.3147C37.8804 16.1864 37.6897 16.2987 37.7521 16.427C38.0924 17.1183 38.5022 17.7686 38.9779 18.3744C39.2238 18.6862 39.4857 18.9837 39.7654 19.267C40.0273 19.5325 40.3124 19.757 40.5957 19.9957C40.8897 20.2434 41.1373 20.5338 41.1373 20.9382C41.1391 21.3035 40.961 21.6598 40.7347 21.936C40.4122 22.3315 39.9436 22.515 39.5089 22.7556C39.1507 22.9551 38.5574 23.2491 38.5343 23.723C38.5236 23.8691 38.7463 23.8674 38.7534 23.7248Z" fill="#252932"/>
<path d="M30.3384 24.8847C30.0623 24.9328 29.7861 24.9827 29.5082 25.0308C29.4494 25.0415 29.4155 25.1146 29.4298 25.168C29.4476 25.2304 29.5082 25.2571 29.567 25.2464C29.8431 25.1983 30.1193 25.1484 30.3972 25.1003C30.456 25.0896 30.4899 25.0166 30.4756 24.9631C30.4578 24.899 30.3972 24.874 30.3384 24.8847Z" fill="#252932"/>
<path d="M29.9233 25.5422C30.3366 29.8362 31.5393 34.016 33.4404 37.8877C33.7878 38.595 34.0176 39.3612 34.2528 40.1113C34.4933 40.8827 34.7428 41.6489 34.994 42.4168C35.6675 44.4746 35.7209 46.6626 36.1575 48.7721C36.2661 49.2977 36.3998 49.8198 36.5708 50.3293C36.7151 50.7569 36.8844 51.1881 37.2033 51.5177C37.7414 52.0736 38.5521 52.2108 39.2951 52.1342C40.1271 52.0505 41.059 51.7511 41.7075 51.2113C42.3436 50.6821 42.5966 49.8412 42.5787 49.0358C42.5342 47.0902 41.0251 45.6524 40.2091 44.0007C39.4144 42.3901 39.0296 40.5923 38.8389 38.816C38.6412 36.9612 38.6536 35.0868 38.7837 33.2285C38.8443 32.3697 38.9316 31.511 39.0403 30.6575C39.1757 29.5974 39.3253 28.5266 39.2452 27.4558C39.206 26.9373 39.1098 26.4278 38.9423 25.936C38.896 25.8006 38.6804 25.8594 38.7267 25.9948C39.3806 27.8994 38.871 29.9591 38.675 31.8994C38.4951 33.6704 38.4167 35.4574 38.4969 37.2374C38.577 38.9834 38.8051 40.742 39.336 42.4114C39.5819 43.1811 39.8937 43.9348 40.2946 44.6368C40.7828 45.492 41.3957 46.2724 41.8393 47.1543C42.2438 47.9579 42.4808 48.8701 42.2901 49.7681C42.2046 50.1743 42.0282 50.5645 41.7413 50.871C41.3921 51.2451 40.9022 51.4696 40.4282 51.6425C39.6906 51.9097 38.8265 52.0612 38.0657 51.801C37.075 51.4643 36.7918 50.4095 36.553 49.4973C36.0256 47.4857 35.9668 45.3869 35.4875 43.3664C35.2951 42.554 34.9976 41.7718 34.7499 40.9736C34.504 40.1807 34.2706 39.3825 33.982 38.6039C33.6791 37.7879 33.2568 37.02 32.9076 36.2218C32.4818 35.2454 32.1023 34.2494 31.7673 33.2392C31.1099 31.2508 30.627 29.2054 30.3313 27.1315C30.2564 26.6024 30.1941 26.0732 30.1424 25.5405C30.1335 25.4015 29.909 25.3997 29.9233 25.5422Z" fill="#252932"/>
<path d="M37.7075 24.2983C37.4064 24.1807 37.1373 23.974 36.9324 23.7157C36.895 23.6676 36.8148 23.6765 36.7756 23.7157C36.7293 23.762 36.7382 23.8262 36.7756 23.8725C37.0037 24.1611 37.3066 24.3785 37.6487 24.5121C37.7039 24.5335 37.7716 24.4872 37.7859 24.4337C37.8019 24.3731 37.7627 24.3215 37.7075 24.2983Z" fill="#252932"/>
<path d="M29.2462 25.2801C28.8026 28.4836 28.3572 31.6978 27.5109 34.8247C27.3024 35.5944 27.0637 36.357 26.914 37.1409C26.8178 37.6487 26.7786 38.1672 26.7519 38.6839C26.6931 39.8331 26.7037 40.9858 26.7109 42.1368C26.7198 43.7796 26.7287 45.4223 26.7376 47.065C26.7394 47.4748 26.7429 47.8864 26.7447 48.2962C26.7465 48.6614 26.7091 49.0552 26.7697 49.4169C26.8712 50.0298 27.5839 50.2471 28.0828 50.452C29.1981 50.9082 30.636 51.1808 31.4663 50.0725C31.8493 49.5612 32.0008 48.9144 32.0934 48.2944C32.2021 47.5568 32.2359 46.8102 32.2769 46.0655C32.4248 43.3662 32.5228 40.6651 32.6636 37.9659C32.6796 37.6647 32.6956 37.3636 32.7134 37.0625C32.7224 36.92 32.4996 36.92 32.4907 37.0625C32.3429 39.6353 32.2484 42.2099 32.1201 44.7827C32.0916 45.376 32.0596 45.9693 32.0257 46.5626C31.9812 47.3269 31.9437 48.1038 31.762 48.8503C31.6106 49.4703 31.3237 50.1028 30.7393 50.4235C30.162 50.7407 29.4707 50.6641 28.8632 50.4912C28.5353 50.3968 28.2146 50.2739 27.9028 50.1349C27.632 50.0155 27.2685 49.8944 27.0922 49.6414C26.8819 49.3403 26.971 48.8218 26.9674 48.4726C26.9657 48.077 26.9639 47.6797 26.9603 47.2842C26.9514 45.7145 26.9425 44.1448 26.9354 42.5769C26.93 41.4509 26.9158 40.323 26.9532 39.197C26.971 38.6643 26.996 38.1298 27.0637 37.6006C27.1527 36.904 27.3523 36.2216 27.5412 35.5463C28.375 32.578 28.8721 29.5455 29.2997 26.497C29.3531 26.1122 29.4066 25.7273 29.46 25.3425C29.4796 25.1999 29.2658 25.1394 29.2462 25.2801Z" fill="#252932"/>
<path d="M29.5045 12.5195C28.7509 12.7137 28.0952 12.5088 27.5251 11.9921C27.2596 11.7516 27.0244 11.479 26.791 11.2064C26.5879 10.9677 26.399 10.7449 26.0819 10.6648C25.5207 10.5222 24.9363 10.8358 24.4819 11.1369C24.2218 11.3097 23.9741 11.5022 23.7318 11.6999C23.4414 11.9369 23.167 12.1792 22.8018 12.3004C22.6093 12.3645 22.2762 12.4376 22.098 12.3039C21.9572 12.197 21.8895 11.9316 21.8682 11.7676C21.8094 11.2955 22.1639 10.8893 22.3795 10.4973C22.8303 9.68126 23.2365 8.8403 23.6962 8.02962C23.9349 7.60736 24.1968 7.20113 24.4641 6.7949C24.6815 6.46706 24.9149 6.17843 25.2677 5.98422C25.6881 5.7526 26.2654 5.81852 26.7287 5.84703C27.1509 5.87197 27.5732 5.93968 27.9848 5.81852C28.5478 5.65104 28.9593 5.27688 29.0876 4.6907C29.166 4.3308 28.9451 3.91922 28.7384 3.64128C28.6529 3.52725 28.5567 3.38293 28.432 3.31344C28.2716 3.22436 28.0578 3.18516 27.8796 3.15843C26.4721 2.94819 25.3104 4.04572 24.1719 4.68179C24.0365 4.75841 23.8975 4.82968 23.755 4.89204C23.5626 4.97756 23.4859 5.11831 23.3594 5.28758C23.0744 5.66708 22.7875 6.04658 22.4971 6.4243C22.1906 6.82162 21.8788 7.21716 21.5617 7.60558C21.2677 7.9637 20.9524 8.30579 20.6709 8.67638C20.1631 9.34452 19.6339 10.0002 19.1903 10.7147C18.9693 11.071 18.7716 11.4416 18.6112 11.83C18.5382 12.0082 18.4419 12.2059 18.4081 12.3966C18.3707 12.6068 18.3404 12.7868 18.2602 12.9863C18.1141 13.3569 18.0981 13.7186 18.0767 14.1142C18.0589 14.4277 18.1088 14.768 18.3956 14.9498C18.6504 15.1137 18.98 15.0905 19.2687 15.0656C19.6802 15.0299 20.0918 15.0994 20.5034 15.1262C22.4401 15.2509 24.3875 15.1654 26.3171 15.3845C26.807 15.4397 27.2952 15.5181 27.7781 15.6233C27.917 15.6535 27.9776 15.438 27.8369 15.4077C26.0088 15.0139 24.1345 15.0175 22.2762 14.9747C21.8005 14.964 21.3247 14.948 20.849 14.923C20.6174 14.9106 20.3858 14.8963 20.1559 14.8785C19.9279 14.8607 19.6927 14.8161 19.4664 14.8268C19.1689 14.8393 18.8054 14.9355 18.531 14.7716C18.164 14.5525 18.3119 13.9574 18.3315 13.6064C18.3529 13.2286 18.5649 12.9044 18.6201 12.5338C18.6825 12.108 18.9016 11.6875 19.1029 11.3115C19.4949 10.5792 20.0009 9.91467 20.5051 9.25722C21.0789 8.51068 21.6989 7.80335 22.2815 7.06394C22.5488 6.72541 22.8107 6.38333 23.0726 6.03946C23.208 5.86129 23.3416 5.68311 23.4753 5.50494C23.6035 5.3339 23.6962 5.16642 23.8922 5.07733C25.0966 4.53213 26.1745 3.33126 27.5803 3.35977C27.7549 3.36333 27.926 3.38828 28.0952 3.43638C28.3322 3.5023 28.4516 3.61989 28.5923 3.82123C28.717 3.9994 28.8204 4.20073 28.8631 4.41632C28.9041 4.61943 28.8382 4.82433 28.7438 5.00428C28.603 5.27332 28.3643 5.45149 28.0845 5.55839C27.6676 5.71696 27.2507 5.6653 26.8142 5.63679C26.3723 5.60828 25.9002 5.57086 25.4654 5.67242C25.1358 5.74904 24.8311 5.99313 24.6049 6.23544C24.3501 6.50626 24.1594 6.85013 23.9617 7.16193C23.714 7.55212 23.4859 7.95301 23.265 8.35924C22.8267 9.16813 22.4258 9.99485 21.9644 10.7913C21.7755 11.1173 21.6027 11.397 21.6472 11.789C21.6757 12.0349 21.7933 12.4108 22.0285 12.5373C22.3296 12.6977 22.7911 12.5694 23.0744 12.4393C23.3773 12.3004 23.6142 12.0901 23.8708 11.8817C24.3483 11.4915 24.8792 11.0603 25.4886 10.9053C25.7826 10.8305 26.0926 10.8501 26.3367 11.0461C26.6039 11.2599 26.807 11.5841 27.0422 11.8336C27.4627 12.2826 27.958 12.6995 28.5816 12.8046C28.9112 12.8598 29.2426 12.8242 29.5651 12.7422C29.7023 12.6977 29.6435 12.4839 29.5045 12.5195Z" fill="#252932"/>
<path d="M38.3721 52.1286C38.1459 52.7343 37.5846 53.0907 37.0252 53.3508C36.4033 53.6394 35.7619 53.8889 35.1294 54.1561C34.7535 54.3147 34.0764 54.4644 34.0248 54.9597C33.9713 55.4817 34.6697 55.5156 35.0385 55.5174C35.6568 55.5191 36.2572 55.341 36.8595 55.2287C37.5116 55.1076 38.169 55.0381 38.8318 55.0025C39.0866 54.9882 39.3467 54.9775 39.5962 54.9098C39.8706 54.835 40.1218 54.5855 40.4015 54.5624C40.5672 54.5481 40.6866 54.6586 40.8273 54.7263C40.9396 54.7797 41.0572 54.81 41.1801 54.8261C41.4331 54.8564 41.7788 54.8706 42.0175 54.7619C42.5253 54.5303 42.3062 53.757 42.2135 53.3508C42.0549 52.6613 41.8091 51.9914 41.8269 51.2751C41.8304 51.1326 41.6077 51.1326 41.6042 51.2751C41.5917 51.8203 41.7218 52.3441 41.8607 52.868C41.9284 53.1263 41.9979 53.3847 42.0496 53.6466C42.0941 53.8782 42.1939 54.2559 42.0371 54.4679C41.8875 54.6711 41.4206 54.6354 41.1962 54.6051C40.9431 54.5713 40.7614 54.3789 40.5155 54.3432C40.3142 54.3147 40.1342 54.4091 39.9632 54.5054C39.6959 54.6568 39.4376 54.737 39.1294 54.7637C38.5788 54.8118 38.03 54.8314 37.4831 54.9062C36.9236 54.9829 36.3784 55.1129 35.8225 55.2145C35.5766 55.259 33.9535 55.4568 34.2849 54.8635C34.4078 54.6425 34.7695 54.5517 34.9833 54.4608C35.2702 54.3397 35.557 54.2185 35.8421 54.0991C36.8416 53.6769 38.1672 53.3152 38.5859 52.1909C38.6376 52.0537 38.422 51.9949 38.3721 52.1286Z" fill="#252932"/>
<path d="M28.4677 50.42C28.2076 50.8993 27.6214 51.0365 27.1635 51.2538C26.6379 51.5015 26.1515 51.8276 25.7043 52.1981C25.4691 52.3941 25.2499 52.6275 24.9738 52.7665C24.7368 52.8859 24.4464 52.918 24.2771 53.1442C23.9921 53.5291 24.3662 53.8462 24.7333 53.9139C25.2963 54.0173 25.9341 53.9371 26.4847 53.7963C27.0744 53.6449 27.6196 53.3652 28.1969 53.1745C28.7296 52.9981 29.3051 53.0338 29.7434 52.6489C29.8467 52.558 29.9465 52.4565 30.0801 52.4137C30.2939 52.346 30.3509 52.4957 30.4881 52.6097C30.6699 52.7629 30.9425 52.7344 31.1598 52.7006C31.4289 52.6578 31.7496 52.5634 31.9509 52.3692C32.1523 52.175 32.1897 51.8739 32.2093 51.6084C32.2556 50.9866 32.1006 50.3648 31.787 49.8285C31.714 49.7055 31.5215 49.816 31.5946 49.9407C31.8636 50.4022 32.0079 50.9224 31.9955 51.4587C31.9883 51.7438 31.9741 52.1073 31.7086 52.2765C31.4788 52.4226 31.1723 52.501 30.9015 52.501C30.7126 52.5028 30.6449 52.4387 30.5238 52.3122C30.4668 52.2534 30.4026 52.2088 30.3242 52.1857C30.155 52.1376 29.9661 52.1981 29.8236 52.2926C29.6062 52.4369 29.4637 52.64 29.2018 52.7202C28.9541 52.795 28.6886 52.8039 28.4374 52.8681C27.9278 52.9999 27.4521 53.228 26.9586 53.4097C26.4223 53.6057 25.8646 53.7233 25.2909 53.7251C25.0593 53.7251 24.801 53.734 24.5854 53.6378C24.4517 53.5772 24.352 53.4632 24.4286 53.3099C24.5141 53.1389 24.7546 53.0926 24.915 53.0302C25.3818 52.8502 25.7203 52.4494 26.1105 52.1518C26.5702 51.8044 27.0673 51.5229 27.5982 51.2984C28.0098 51.1256 28.4338 50.9385 28.6566 50.5287C28.7278 50.4057 28.5354 50.2935 28.4677 50.42Z" fill="#252932"/>
<path d="M40.487 10.4918C40.895 10.9034 41.205 11.3844 41.3618 11.9457C41.5115 12.4873 41.5293 13.0717 41.4776 13.6311C41.3653 14.8285 40.6277 15.9581 40.9181 17.1857C40.952 17.3246 41.1658 17.2658 41.1337 17.1269C40.9752 16.4569 41.1605 15.7835 41.3493 15.1403C41.5221 14.5505 41.6932 13.9697 41.7181 13.3514C41.7645 12.204 41.4669 11.1617 40.6455 10.3332C40.5422 10.2334 40.3854 10.3902 40.487 10.4918Z" fill="#252932"/>
<path d="M38.4737 6.53115C38.6287 7.18326 38.7784 7.83892 39.0171 8.46608C39.2452 9.06296 39.5552 9.66517 40.0665 10.0678C40.1788 10.1551 40.3373 9.99835 40.2233 9.91105C39.7137 9.51016 39.4144 8.91151 39.1953 8.31464C38.9761 7.71598 38.8354 7.09417 38.6875 6.47413C38.6554 6.3316 38.4398 6.3904 38.4737 6.53115Z" fill="#252932"/>
<path d="M32.6475 3.36343C33.9089 2.71845 35.6194 2.44228 36.8576 3.29216C37.8679 3.98525 38.1761 5.27877 38.4416 6.40125C38.4736 6.54022 38.6892 6.48142 38.6572 6.34245C38.4309 5.38745 38.1832 4.37188 37.5329 3.60574C36.7953 2.73627 35.6122 2.45476 34.5129 2.56878C33.8216 2.64183 33.1553 2.85564 32.5352 3.171C32.4087 3.23693 32.521 3.42935 32.6475 3.36343Z" fill="#252932"/>
<path d="M29.567 22.7235C29.6061 22.7377 29.6364 22.8357 29.6543 22.8696C29.6881 22.9355 29.722 23.0014 29.7558 23.0674C29.8253 23.2081 29.8912 23.3489 29.9447 23.4967C30.0498 23.7836 30.1371 24.131 30.0444 24.4321C29.9571 24.7172 29.697 24.874 29.5117 25.0896C29.346 25.2838 29.2409 25.5083 29.2872 25.7666C29.3122 25.9074 29.5278 25.8486 29.5028 25.7078C29.4404 25.3622 29.8057 25.1288 30.007 24.9096C30.2173 24.6834 30.3135 24.4161 30.301 24.1079C30.2885 23.8032 30.1959 23.5092 30.0765 23.2313C30.0106 23.078 29.9358 22.9302 29.8591 22.7823C29.7986 22.6665 29.7558 22.5578 29.6257 22.5097C29.4921 22.4598 29.4333 22.6736 29.567 22.7235Z" fill="#252932"/>
<path d="M35.6283 21.9628C35.7886 22.2301 35.892 22.5241 36.0256 22.8056C36.1628 23.0924 36.3374 23.3508 36.5957 23.545C36.6439 23.5806 36.7205 23.5521 36.749 23.5058C36.7828 23.4488 36.7561 23.39 36.7098 23.3526C36.2287 22.9909 36.1183 22.3441 35.8225 21.8506C35.7459 21.7276 35.5535 21.8399 35.6283 21.9628Z" fill="#252932"/>
<path d="M29.5919 25.2035C30.2689 25.2 30.946 25.1964 31.623 25.1946C32.2253 25.1911 32.8186 25.1875 33.3994 25.0075C34.4257 24.6886 35.345 23.992 36.4497 23.9528C36.5922 23.9474 36.594 23.7247 36.4497 23.7301C35.3682 23.7693 34.4702 24.4071 33.4742 24.7492C32.8702 24.9559 32.2573 24.9683 31.623 24.9719C30.946 24.9755 30.2689 24.979 29.5919 24.9808C29.4476 24.9826 29.4476 25.2053 29.5919 25.2035Z" fill="#252932"/>
<path d="M38.6679 14.4812C38.6928 14.5311 38.7178 14.5827 38.7409 14.6326C38.7481 14.6451 38.757 14.6558 38.7694 14.6647C38.7801 14.6754 38.7926 14.6807 38.8068 14.6843C38.8211 14.6896 38.8371 14.6896 38.8514 14.6861C38.8656 14.6861 38.8799 14.6807 38.8924 14.6736C38.9155 14.6576 38.9369 14.6362 38.944 14.6077C38.9458 14.597 38.9458 14.5881 38.9476 14.5774C38.9476 14.5578 38.9422 14.5382 38.9316 14.5204C38.9066 14.4705 38.8817 14.4188 38.8585 14.3689C38.8514 14.3565 38.8425 14.3458 38.83 14.3369C38.8193 14.3262 38.8069 14.3208 38.7926 14.3173C38.7783 14.3119 38.7623 14.3119 38.7481 14.3155C38.7338 14.3155 38.7196 14.3208 38.7071 14.3279C38.6839 14.344 38.6625 14.3654 38.6554 14.3939C38.6536 14.4046 38.6536 14.4135 38.6519 14.4242C38.6536 14.4455 38.659 14.4634 38.6679 14.4812Z" fill="#252932"/>
<path d="M37.8002 16.9721C37.8376 17.234 37.7681 17.4834 37.6737 17.7257C37.5793 17.968 37.4902 18.221 37.3405 18.4331C37.0376 18.8589 36.7365 19.2865 36.4675 19.7337C36.2198 20.1435 36.0007 20.5729 35.8368 21.0237C35.7548 21.2464 35.7316 21.494 35.5392 21.6508C35.3201 21.8308 34.9334 21.7916 34.6626 21.8183C33.6328 21.9181 32.6047 22.0392 31.582 22.2049C30.8141 22.3279 29.5705 22.7199 29.2088 21.7132C28.9006 20.8544 28.5781 20.0028 27.705 19.5769C27.5767 19.5146 27.4645 19.707 27.5928 19.7693C28.0257 19.9796 28.3447 20.3128 28.5727 20.7333C28.6796 20.9292 28.7652 21.1359 28.8435 21.3444C28.9202 21.5493 28.9665 21.7845 29.0752 21.9769C29.2622 22.3101 29.615 22.5185 29.9838 22.588C30.4328 22.6735 30.8676 22.5488 31.3077 22.474C32.448 22.2816 33.5936 22.1444 34.7446 22.0339C35.1508 21.9947 35.7637 22.0232 35.9098 21.5261C36.0702 20.9827 36.2947 20.4731 36.578 19.9832C36.888 19.4486 37.2621 18.9605 37.6024 18.4473C37.7468 18.2282 37.8394 17.9324 37.9267 17.6848C38.0158 17.43 38.0532 17.1823 38.014 16.9151C37.9944 16.7725 37.7806 16.8313 37.8002 16.9721Z" fill="#252932"/>
<path d="M28.0525 15.2955C27.2489 15.8318 26.1941 16.516 26.0106 17.5494C25.9268 18.0286 26.1692 18.5097 26.3972 18.9159C26.6271 19.3239 26.9353 19.6945 27.3754 19.8798C27.5055 19.9351 27.6195 19.7426 27.4876 19.6874C27.0903 19.5199 26.8177 19.1992 26.6057 18.8322C26.3705 18.4224 26.1193 17.9378 26.26 17.4567C26.5219 16.5587 27.4306 15.9761 28.1629 15.4879C28.2823 15.4078 28.1718 15.2153 28.0525 15.2955Z" fill="#252932"/>
<path d="M38.8389 14.5171L36.5494 13.4695L35.2327 13.3697L34.2688 13.9469L33.5366 14.5117L32.5602 15.0302L31.2114 15.0088L30.684 14.1572L31.7281 12.9724L31.2684 12.3523L30.8961 12.2739L30.5148 12.4076L29.6667 13.2289L28.9415 14.2213L28.1825 15.2904L27.0137 16.2008L26.4792 16.7906L26.1211 17.5888L26.2904 18.4529L26.9888 19.5558L27.5019 19.8907L28.3215 20.2114L28.8471 21.0506L29.2569 22.182L30.2796 22.5169L31.6426 22.3067L33.0983 22.1178L34.4631 21.9682L35.6176 21.7294L36.284 20.3557L36.9859 19.1264L37.7289 17.8418L37.9908 16.9937L37.7646 15.5255L38.8389 14.5171Z" fill="#252932"/>
<path d="M42.3471 48.3284L41.6665 46.6055L39.7814 43.5143L38.6251 38.6787L38.5129 35.2739L38.9975 30.1372L39.1382 27.4843L38.8015 25.5084L37.7824 26.0108L36.7472 27.0852L36.749 28.3448L37.1855 29.437L37.2193 29.8646L36.8986 30.1016L36.1414 30.3493L35.3788 30.0375L34.9156 29.4067L34.488 27.6624V26.5293L34.8336 25.9288L35.9169 25.715L36.8256 25.1556L37.6416 24.4767L36.8541 23.7961L35.4448 24.1008L33.5829 24.8277L32.0702 25.1324L30.2101 25.0202L29.3531 25.3106L27.9741 32.0223L27.2614 35.9598L26.9033 38.0819L26.8231 39.9901L26.8748 43.231L26.8391 45.3227L26.8177 47.1632L26.8213 49.1569L27.0921 49.7413L27.5874 50.1119L29.6079 50.7516L30.6146 50.6055L31.2631 50.1458L31.6444 49.4901L31.9259 48.6189L32.2609 44.1967L32.5156 38.6787L32.6012 36.4837L32.5335 35.8084L33.5829 37.7879L34.9103 41.6399L35.8136 45.622L36.5369 49.85L36.9663 51.001L37.8768 51.8473L38.8799 52.0148L39.94 51.8758L41.7003 51.1222L42.4647 49.7663L42.3471 48.3284Z" fill="#252932"/>
<path d="M32.6315 3.20486L31.8351 3.62178L31.085 4.28992L30.2886 5.99145L29.4743 7.26893L28.5514 9.15754L28.644 10.3228L29.1198 12.3521L29.2855 12.6818L30.1122 12.6604L31.0618 12.7797L32.1558 12.3521L32.4052 11.6822L32.0132 10.8181L31.3825 10.5562L30.9799 9.86488L30.9478 8.63728L31.2364 7.51302L31.8083 6.37986L32.1968 6.0057L32.7812 6.01105L34.2885 6.43153L35.0813 6.81994L35.7334 7.8266L35.9561 8.68004L35.3807 9.64751L34.921 10.558L34.5237 11.9637L34.8105 13.4621L36.9646 13.5922L38.5343 14.239L38.8389 14.5757L39.238 14.7913L39.8242 15.3846L40.2554 16.0866L40.9271 17.0202L41.1748 15.3401L41.5507 13.9129L41.6487 12.7601L41.3422 11.4452L40.5654 10.3762L39.3628 8.97937L38.7855 7.57538L38.3793 5.68321L37.9231 4.46452L37.1784 3.31176L35.6426 2.70776L34.1691 2.75943L32.6315 3.20486Z" fill="#252932"/>
<path d="M32.7098 5.74186C33.3708 5.98239 34.0621 5.54587 34.7142 5.87905C35.3859 6.2247 35.6799 6.96589 35.8314 7.66432C36.0024 8.45362 36.0309 9.24292 35.7672 10.0144C35.5499 10.6522 35.3948 11.2295 35.6514 11.8834C35.9151 12.5498 36.43 13.0825 36.9342 13.576C37.0376 13.6758 37.1944 13.519 37.091 13.4192C36.6011 12.94 36.0826 12.4179 35.8421 11.7622C35.7173 11.4237 35.6924 11.0709 35.7743 10.7199C35.8634 10.3422 36.0345 9.98945 36.1147 9.60817C36.2661 8.88657 36.1806 8.12578 36.0006 7.41667C35.842 6.78594 35.5499 6.16591 34.9975 5.79175C34.7142 5.59933 34.3846 5.50133 34.0425 5.51202C33.6149 5.52627 33.1873 5.68128 32.7686 5.52806C32.6332 5.47639 32.5762 5.69197 32.7098 5.74186Z" fill="white"/>
<path d="M32.2341 5.30376C31.7388 4.90287 31.2008 5.4071 31.1117 5.91488C31.0457 6.2926 31.1402 6.67923 31.0689 7.05696C31.0048 7.39548 30.8266 7.69659 30.6627 7.99591C30.513 8.2703 30.3616 8.55359 30.3046 8.8636C30.244 9.20035 30.3081 9.52818 30.4275 9.84533C30.6502 10.4369 31.1865 11.2832 30.6466 11.8622C30.5486 11.9673 30.7072 12.1241 30.8034 12.019C31.1776 11.6163 31.1331 11.0337 30.9602 10.5473C30.7268 9.89521 30.3384 9.3215 30.6074 8.61238C30.8123 8.06896 31.2186 7.61107 31.2987 7.02132C31.3469 6.67389 31.2685 6.31933 31.3255 5.97368C31.3771 5.6601 31.7103 5.16479 32.0756 5.46055C32.1878 5.55142 32.3464 5.39462 32.2341 5.30376Z" fill="white"/>
<path d="M30.9318 29.7717C32.5549 31.9436 33.934 34.2991 35.0172 36.7863C35.0493 36.8611 35.0832 36.9378 35.1152 37.0144C35.0582 36.879 35.1348 37.0625 35.1526 37.107C35.2204 37.2727 35.2845 37.4384 35.3469 37.6077C35.4662 37.9302 35.5749 38.2544 35.6676 38.5858C35.7638 38.9279 35.8386 39.2754 35.8974 39.6263C35.8992 39.637 35.9188 39.7724 35.9045 39.6709C35.8903 39.5693 35.9081 39.7047 35.9099 39.7154C35.9188 39.7974 35.9277 39.8794 35.9348 39.9613C35.9509 40.1484 35.958 40.3355 35.9615 40.5226C35.9776 41.2691 35.9473 42.0103 36.0471 42.7515C36.1433 43.4695 36.3304 44.1608 36.5531 44.8503C37.0626 46.4307 37.5918 48.0039 38.1121 49.579C38.2582 50.0208 38.7339 50.354 39.2078 50.2008C39.6479 50.0582 39.9864 49.579 39.8296 49.105C39.3628 47.6886 38.8942 46.2703 38.4274 44.8539C38.2101 44.1929 37.9891 43.5301 37.8555 42.8477C37.8377 42.7532 37.8199 42.657 37.8038 42.5608C37.802 42.5501 37.7842 42.4147 37.7967 42.5145C37.8092 42.6143 37.7931 42.4771 37.7931 42.4682C37.7753 42.2811 37.7628 42.0958 37.7557 41.9069C37.7432 41.547 37.7486 41.1853 37.7468 40.8254C37.7397 39.3502 37.4119 37.9587 36.8542 36.5974C36.3161 35.2808 35.6925 33.9997 34.9959 32.7597C34.2386 31.4127 33.3941 30.1156 32.4694 28.8773C32.1915 28.5049 31.6854 28.2769 31.2507 28.5584C30.8819 28.79 30.6325 29.3726 30.9318 29.7717Z" fill="white"/>
<path d="M28.3251 33.5062C28.3091 34.406 28.2236 35.3004 28.1095 36.193C28.106 36.2197 28.0846 36.3676 28.106 36.2144C28.1006 36.2571 28.0935 36.2999 28.0882 36.3445C28.0739 36.446 28.0596 36.5458 28.0454 36.6456C28.0115 36.8754 27.9777 37.1052 27.9421 37.3351C27.8744 37.7805 27.8031 38.2259 27.7372 38.6714C27.477 40.405 27.2508 42.1617 27.3826 43.9185C27.4574 44.9162 27.6285 45.9122 27.9599 46.8583C28.1131 47.2966 28.5763 47.6351 29.0556 47.4801C29.4903 47.3394 29.8431 46.8547 29.6774 46.3844C29.5438 45.9995 29.4315 45.6093 29.3478 45.2102C29.305 45.0125 29.2694 44.8111 29.2373 44.6116C29.2338 44.5866 29.2088 44.4174 29.2249 44.5296C29.2391 44.633 29.2213 44.4993 29.2195 44.4869C29.2053 44.3657 29.1928 44.2445 29.1803 44.1234C29.1055 43.2931 29.1126 42.4575 29.1696 41.6272C29.1964 41.2174 29.2373 40.8094 29.2837 40.4014C29.2944 40.307 29.3068 40.2125 29.3175 40.1163C29.3247 40.0593 29.3318 40.0023 29.3389 39.9471C29.3514 39.8419 29.3389 39.9506 29.3353 39.9684C29.3656 39.7386 29.3995 39.5088 29.4333 39.2789C29.5634 38.4023 29.7077 37.5275 29.8289 36.6491C29.9714 35.6068 30.0872 34.5627 30.105 33.5098C30.1122 33.043 29.6899 32.5975 29.2142 32.6189C28.726 32.6367 28.3322 33.0073 28.3251 33.5062Z" fill="white"/>
<path d="M39.7244 51.9041L39.4678 52.043L38.0585 51.8364L37.4866 52.5508L36.6759 53.2225L35.1418 54.1597L34.2189 54.7584L34.0746 55.1646L35.2559 55.4461L37.7788 54.9597L39.4749 54.8973L40.2571 54.4519L40.9573 54.6978H41.3279L42.0442 54.6194L42.3292 54.0546L41.8322 52.0359L41.7003 51.0007L39.7244 51.9041Z" fill="#252932"/>
<path d="M28.571 50.5005L28.2307 50.9245L27.6285 51.1722L26.8178 51.5837L26.2334 51.8902L25.7006 52.3445L25.2036 52.7846L24.5265 53.0715L24.2361 53.4813L24.6227 53.7735L25.3621 53.7966L26.3866 53.7075L27.265 53.3868L28.3821 53.002L29.371 52.781L30.073 52.2661L30.4471 52.398L30.7928 52.5904L31.509 52.4639L32.0257 52.0434L32.1273 51.2541L31.9099 50.3348L31.6034 49.7415L31.0244 50.2831L30.1816 50.6448H29.526L28.571 50.5005Z" fill="#252932"/>
<path d="M25.8432 41.7394L9.65815 49.9922C9.3125 50.1686 8.88846 50.0314 8.71207 49.6858C8.53568 49.3401 8.67287 48.9161 9.01852 48.7397L25.2035 40.4868C25.5492 40.3105 25.9732 40.4477 26.1496 40.7933C26.326 41.139 26.1888 41.563 25.8432 41.7394Z" fill="white"/>
<path d="M10.4386 55.5404C13.981 55.5404 16.8527 52.6687 16.8527 49.1263C16.8527 45.5839 13.981 42.7122 10.4386 42.7122C6.89612 42.7122 4.02441 45.5839 4.02441 49.1263C4.02441 52.6687 6.89612 55.5404 10.4386 55.5404Z" fill="#252932"/>
</svg>
