<svg width="64" height="73" viewBox="0 0 64 73" fill="none" xmlns="http://www.w3.org/2000/svg">
<circle cx="32" cy="30" r="30" fill="#EAD3DB"/>
<path d="M1.02275 65.304H1.67875V71H1.02275V65.304ZM7.64525 70.448V71H3.54125V70.512L6.80525 65.856H3.54125V65.304H7.56525V65.784L4.30125 70.448H7.64525ZM15.9288 71L12.9928 68.288V71H12.3368V65.304H12.9928V67.92L15.7928 65.304H16.6328L13.6568 68.08L16.7848 71H15.9288ZM20.3568 71.064C19.8288 71.064 19.3701 70.9467 18.9808 70.712C18.5914 70.4773 18.2901 70.1413 18.0768 69.704C17.8688 69.2613 17.7648 68.744 17.7648 68.152C17.7648 67.5547 17.8688 67.0373 18.0768 66.6C18.2848 66.1627 18.5834 65.8267 18.9728 65.592C19.3621 65.3573 19.8234 65.24 20.3568 65.24C20.8901 65.24 21.3514 65.3573 21.7408 65.592C22.1301 65.8267 22.4288 66.1627 22.6368 66.6C22.8448 67.0373 22.9488 67.552 22.9488 68.144C22.9488 68.7413 22.8421 69.2587 22.6288 69.696C22.4208 70.1333 22.1221 70.472 21.7328 70.712C21.3434 70.9467 20.8848 71.064 20.3568 71.064ZM20.3568 70.504C20.9594 70.504 21.4288 70.2987 21.7648 69.888C22.1008 69.4773 22.2688 68.896 22.2688 68.144C22.2688 67.392 22.1008 66.8133 21.7648 66.408C21.4341 66.0027 20.9648 65.8 20.3568 65.8C19.7488 65.8 19.2768 66.0053 18.9408 66.416C18.6048 66.8213 18.4368 67.3973 18.4368 68.144C18.4368 68.896 18.6048 69.4773 18.9408 69.888C19.2768 70.2987 19.7488 70.504 20.3568 70.504ZM30.3364 65.304V71H29.7284V66.768L27.8804 71H27.4164L25.5524 66.8L25.5604 71H24.9524V65.304H25.4964L27.6564 70.216L29.7924 65.304H30.3364ZM34.3495 71.064C33.4588 71.064 32.7495 70.824 32.2215 70.344L32.4695 69.84C32.7522 70.08 33.0402 70.2507 33.3335 70.352C33.6268 70.4533 33.9682 70.504 34.3575 70.504C34.8162 70.504 35.1682 70.416 35.4135 70.24C35.6642 70.0587 35.7895 69.8053 35.7895 69.48C35.7895 69.288 35.7282 69.1333 35.6055 69.016C35.4882 68.8933 35.3308 68.7973 35.1335 68.728C34.9415 68.6587 34.6828 68.5867 34.3575 68.512C33.9202 68.416 33.5602 68.312 33.2775 68.2C32.9948 68.088 32.7655 67.928 32.5895 67.72C32.4135 67.5067 32.3255 67.2293 32.3255 66.888C32.3255 66.5627 32.4108 66.2773 32.5815 66.032C32.7522 65.7813 32.9922 65.5867 33.3015 65.448C33.6162 65.3093 33.9815 65.24 34.3975 65.24C34.7922 65.24 35.1602 65.3013 35.5015 65.424C35.8428 65.5467 36.1308 65.7253 36.3655 65.96L36.1095 66.464C35.8428 66.2347 35.5708 66.0667 35.2935 65.96C35.0215 65.8533 34.7228 65.8 34.3975 65.8C33.9548 65.8 33.6082 65.896 33.3575 66.088C33.1068 66.2747 32.9815 66.5333 32.9815 66.864C32.9815 67.152 33.0908 67.368 33.3095 67.512C33.5282 67.656 33.8642 67.7813 34.3175 67.888C34.8082 68.0053 35.1922 68.1147 35.4695 68.216C35.7522 68.312 35.9868 68.4613 36.1735 68.664C36.3602 68.8613 36.4535 69.1253 36.4535 69.456C36.4535 69.776 36.3682 70.0587 36.1975 70.304C36.0268 70.544 35.7815 70.7307 35.4615 70.864C35.1468 70.9973 34.7762 71.064 34.3495 71.064ZM35.5095 63.592L34.5495 64.816H34.1095L33.1495 63.592H33.7415L34.3335 64.432L34.9175 63.592H35.5095ZM38.3259 65.304H38.9819V71H38.3259V65.304ZM41.1884 65.304H41.8444V70.44H44.7004V71H41.1884V65.304ZM48.353 71.064C47.6063 71.064 47.041 70.872 46.657 70.488C46.2783 70.0987 46.089 69.5253 46.089 68.768V65.304H46.737V68.824C46.737 69.3787 46.873 69.7973 47.145 70.08C47.417 70.3627 47.8197 70.504 48.353 70.504C48.881 70.504 49.2783 70.3627 49.545 70.08C49.817 69.7973 49.953 69.3787 49.953 68.824V65.304H50.609V68.768C50.609 69.52 50.417 70.0907 50.033 70.48C49.649 70.8693 49.089 71.064 48.353 71.064ZM56.3726 71L53.4366 68.288V71H52.7806V65.304H53.4366V67.92L56.2366 65.304H57.0766L54.1006 68.08L57.2286 71H56.3726ZM62.2383 69.536H59.2623L58.6303 71H57.9503L60.4543 65.304H61.0303L63.5343 71H62.8623L62.2383 69.536ZM62.0063 68.992L60.7503 66.064L59.4943 68.992H62.0063Z" fill="black"/>
<path d="M39.1976 38.0388L39.7609 38.4911V39.7269L39.6983 40.4034L38.7069 40.4882L37.1864 40.6437L35.5629 40.7325L35.0339 40.5791L34.8945 40.1207L35.6437 39.9087L36.9542 39.4563L38.089 38.9414L38.6443 38.6325L38.8886 38.1802L39.1976 38.0388Z" fill="white"/>
<path d="M51.1578 32.3547L48.8135 33.2069V27.3167H50.3986V30.396L51.1578 32.3547Z" fill="white"/>
<path d="M49.3869 32.9222L45.9622 34.4992L41.9277 35.523L41.1765 34.6588L41.6571 31.6702L41.1765 28.5404L39.8155 27.8579L38.4747 27.0865L38.6686 26.5635L40.0477 24.8795L39.9064 16.4551H47.6584L48.2581 18.5006L52.9913 23.5811L52.1411 24.9845L49.9846 27.7771L49.3869 32.9222Z" fill="white"/>
<path d="M19.215 51.0994H16.5354L15.9236 46.7358L18.4073 46.6489L19.215 51.0994Z" fill="white"/>
<path d="M9.75674 56.4524H7.07717L6.46533 52.0887L8.94903 52.0039L9.75674 56.4524Z" fill="white"/>
<path d="M44.9647 51.0694H47.6463L48.2581 46.7057L45.7724 46.6189L44.9647 51.0694Z" fill="white"/>
<path d="M53.9788 56.3677H57.151L57.6498 51.996L54.8289 51.9172L53.9788 56.3677Z" fill="white"/>
<path d="M22.6135 29.4429L15.641 28.5363L16.1539 26.2807L10.8674 22.3028L10.5504 20.441L12.2991 19.3062L17.9631 16.0249L18.896 17.7776L13.5167 21.2124L13.9347 21.8686L16.6567 24.0636L18.5952 15.5261H23.5161V24.5967L25.1618 26.2848L24.8125 29.9195L24.9983 32.5344L25.7454 36.6194L26.3128 39.0708L27.0054 40.3086L26.5531 40.9366L24.2148 40.5024L24.5177 38.7235L23.5565 34.6869L23.0093 32.0599L22.6135 29.4429Z" fill="white"/>
<path d="M22.8941 35.0059L14.7706 37.1988L13.9144 27.7103L20.8607 25.4871L20.5518 31.7205L22.8941 35.0059Z" fill="white"/>
<path d="M40.2537 17.6158C40.2901 18.0621 40.3426 18.5063 40.3729 18.9526C40.3809 19.0757 40.5728 19.0757 40.5647 18.9526C40.5344 18.5063 40.4819 18.0621 40.4456 17.6158C40.4334 17.4946 40.2416 17.4926 40.2537 17.6158Z" fill="#252932"/>
<path d="M39.7308 17.9348C39.5814 18.2397 39.4401 18.5507 39.3088 18.8637C39.1897 19.1484 39.0201 19.4634 38.9979 19.7744C38.9555 20.3398 39.6279 20.6003 39.6319 21.1455C39.6359 21.8441 38.8545 22.2137 38.4607 22.6801C38.1134 23.092 37.8792 23.6393 37.8832 24.1845C37.8873 24.6973 38.1074 25.2264 38.6102 25.4243C38.7253 25.4687 38.7737 25.285 38.6606 25.2385C38.1841 25.0507 38.0367 24.4692 38.0831 24.0047C38.1437 23.407 38.4688 22.8921 38.909 22.5004C39.2907 22.1591 39.7389 21.8179 39.8136 21.2747C39.8863 20.7456 39.4643 20.5013 39.2523 20.0813C39.0887 19.7562 39.3028 19.3826 39.4259 19.0777C39.5713 18.7223 39.7288 18.373 39.8964 18.0297C39.9489 17.9227 39.7833 17.8258 39.7308 17.9348Z" fill="#252932"/>
<path d="M39.5207 17.5838C40.068 17.4829 40.6152 17.3779 41.1644 17.2809C41.6591 17.1921 42.2023 17.1234 42.6667 17.3637C42.8505 17.4586 43.0141 17.6 43.113 17.7837C43.2342 18.0099 43.2382 18.2724 43.2543 18.5228C43.2806 18.9024 43.3432 19.278 43.6461 19.5385C44.2317 20.0413 45.0757 19.8575 45.7401 19.6596C46.2166 19.5183 46.7194 19.3588 47.2182 19.4759C47.6624 19.5809 48.036 19.8737 48.2541 20.2715C48.5044 20.7298 48.6478 21.2367 48.9063 21.6951C49.1607 22.1433 49.4697 22.5573 49.821 22.9349C49.9058 23.0258 50.0411 22.8905 49.9563 22.7996C49.607 22.426 49.3041 22.0161 49.0557 21.5699C48.8194 21.1478 48.6781 20.6915 48.4641 20.2614C48.0602 19.4517 47.2162 19.1266 46.3499 19.2982C45.5644 19.4537 44.5669 19.9948 43.8177 19.4315C43.4058 19.1225 43.4745 18.5955 43.4139 18.1432C43.3594 17.7474 43.1615 17.4243 42.8121 17.2244C42.3598 16.9639 41.8288 16.9821 41.328 17.0588C40.706 17.1537 40.0861 17.285 39.4662 17.3981C39.3491 17.4203 39.3996 17.606 39.5207 17.5838Z" fill="#252932"/>
<path d="M39.0139 18.5368C38.8443 18.036 38.8201 17.5009 38.9392 16.988C38.9675 16.8689 38.7817 16.8164 38.7535 16.9375C38.6263 17.4827 38.6465 18.0582 38.8282 18.5893C38.8686 18.7044 39.0543 18.6539 39.0139 18.5368Z" fill="#252932"/>
<path d="M41.1443 24.2936C41.4775 24.0049 41.954 23.8898 42.3821 23.9948C43.1312 24.1785 43.6785 24.966 44.4498 24.9701C45.1909 24.9741 45.7078 24.2674 46.1218 23.6535C46.5357 23.0397 47.1415 22.3693 47.8705 22.5005C48.7408 22.656 48.9851 23.7484 49.2678 24.5864C49.7746 26.0867 51.0124 27.3225 52.5168 27.8233C50.6954 29.9072 47.6685 30.3312 44.9163 30.62C44.682 30.6442 44.4458 30.6684 44.2156 30.62C43.9208 30.5574 43.6664 30.3817 43.3998 30.2424C42.8041 29.9294 42.1196 29.7921 41.4492 29.8466C41.1059 29.8749 40.6294 29.8627 40.5728 29.5235C40.5426 29.3458 40.6637 29.1823 40.7707 29.0389C41.8329 27.6254 42.3215 25.7919 42.1034 24.0372" fill="#252932"/>
<path d="M41.8288 24.2454C41.2594 24.31 40.7909 24.6795 40.3245 24.9824C39.8762 25.2732 39.4098 25.5498 39.018 25.9173C38.8424 26.0829 38.6828 26.2707 38.5597 26.4787C38.4486 26.6665 38.3375 26.8805 38.4728 27.0865C38.7091 27.4479 39.1553 27.662 39.535 27.8296C40.0236 28.0456 40.5486 28.2233 40.9343 28.611C41.0211 28.6978 41.1564 28.5626 41.0696 28.4757C40.7102 28.1123 40.2397 27.9245 39.7793 27.7266C39.537 27.6236 39.2947 27.5166 39.0725 27.3732C38.9635 27.3025 38.8605 27.2238 38.7676 27.1329C38.6889 27.0562 38.594 26.9653 38.6021 26.8401C38.6061 26.7674 38.6626 26.6887 38.697 26.6261C38.9857 26.097 39.5047 25.7437 39.9974 25.4226C40.2942 25.2288 40.591 25.0369 40.8879 24.8451C41.1786 24.6593 41.4795 24.4756 41.8288 24.4352C41.95 24.4231 41.952 24.2312 41.8288 24.2454Z" fill="#252932"/>
<path d="M43.0888 30.192C43.1171 30.5151 43.1434 30.8382 43.1716 31.1612C43.2019 31.5086 43.2544 31.8518 43.0767 32.1709C42.9253 32.4455 42.7193 32.6959 42.5376 32.9503C42.3397 33.229 42.1418 33.5056 41.9439 33.7843C41.8733 33.8852 42.0388 33.9801 42.1095 33.8812C42.3135 33.5945 42.5174 33.3057 42.7234 33.019C42.9192 32.7423 43.1575 32.4677 43.2968 32.1547C43.424 31.868 43.3958 31.5691 43.3695 31.2642C43.3392 30.9068 43.3089 30.5494 43.2786 30.19C43.2685 30.0688 43.0787 30.0688 43.0888 30.192Z" fill="#252932"/>
<path d="M49.6555 28.9945C49.8272 29.4771 49.7201 30.0001 49.6111 30.4868C49.5021 30.9694 49.3627 31.4641 49.389 31.9628C49.395 32.086 49.5869 32.0941 49.5808 31.9709C49.5263 30.9674 50.1947 29.9436 49.8413 28.9521C49.8009 28.837 49.6131 28.8774 49.6555 28.9945Z" fill="#252932"/>
<path d="M43.2867 32.9465C42.7152 33.3423 42.1438 33.738 41.5723 34.1379C41.3118 34.3196 41.0534 34.5074 40.8413 34.7456C40.6394 34.9718 40.4799 35.2323 40.3244 35.4928C39.7166 36.5206 39.1027 37.6695 39.133 38.8993C39.1552 39.8382 39.5712 40.8378 40.4112 41.3224C41.2391 41.7989 42.2245 41.597 43.0908 41.3466C44.1247 41.0478 45.2676 40.543 46.3539 40.8701C46.4731 40.9064 46.5236 40.7207 46.4044 40.6843C45.5361 40.4238 44.6275 40.6803 43.7915 40.9347C42.9434 41.1932 42.0065 41.5607 41.1059 41.3789C40.1164 41.179 39.5167 40.2784 39.3632 39.3294C39.1734 38.1522 39.6883 37.0012 40.2517 36.0016C40.4133 35.7149 40.5748 35.4261 40.7626 35.1576C40.9786 34.8446 41.2492 34.6043 41.5562 34.3842C42.1599 33.9541 42.7738 33.5381 43.3836 33.1141C43.4846 33.0434 43.3876 32.8758 43.2867 32.9465Z" fill="#252932"/>
<path d="M43.1817 33.2007C44.6032 32.7282 46.0834 32.4798 47.5635 32.2759C48.3207 32.1709 49.0779 32.0679 49.8352 31.975C50.6065 31.8801 51.3839 31.8195 52.1614 31.8983C52.2845 31.9104 52.2825 31.7186 52.1614 31.7065C51.3597 31.6257 50.5581 31.6923 49.7605 31.7913C49.0355 31.8821 48.3086 31.9811 47.5837 32.08C46.0793 32.286 44.575 32.5344 43.1292 33.0149C43.0141 33.0553 43.0625 33.2411 43.1817 33.2007Z" fill="#252932"/>
<path d="M50.3905 32.0116C51.3658 30.6708 52.753 29.7177 54.1988 28.9444C54.9237 28.5567 55.6668 28.2093 56.4119 27.8641C56.836 27.6682 57.254 27.4945 57.7224 27.646C58.1485 27.7833 58.4817 28.1144 58.7078 28.492C58.936 28.8737 59.0693 29.3038 59.1904 29.7299C59.3096 30.1539 59.4105 30.582 59.4792 31.0161C59.6165 31.8884 59.6145 32.8092 59.2874 33.6432C58.9542 34.4994 58.2656 35.1475 57.6518 35.8078C57.0218 36.4863 56.3998 37.1708 55.8082 37.8816C55.2286 38.5783 54.6754 39.2992 54.1766 40.0584C53.6496 40.86 53.2134 41.7061 52.7853 42.5603C52.3512 43.4265 51.8888 44.2686 51.3577 45.0803C50.8408 45.8699 50.2895 46.6372 49.7322 47.3964C49.2153 48.1011 48.6196 48.824 47.7655 49.1189C46.9981 49.3834 46.1581 49.2218 45.6715 48.5413C44.6679 47.1379 45.5423 45.4438 46.2328 44.1272C46.6609 43.3114 46.9961 42.4654 47.3232 41.6052C47.6685 40.6945 48.0684 39.8242 48.559 38.9821C49.5525 37.2779 50.6631 35.6362 51.7212 33.9723C51.9938 33.5463 52.2644 33.1182 52.537 32.6921C52.6036 32.5871 52.438 32.4922 52.3714 32.5952C51.2245 34.3964 50.0654 36.1895 48.9306 37.9988C48.3995 38.8468 47.8947 39.7131 47.5009 40.6339C47.1072 41.5628 46.8063 42.53 46.3661 43.4387C45.6695 44.8784 44.5831 46.4292 45.2172 48.0931C45.4595 48.7251 45.9481 49.2541 46.6286 49.3955C47.4646 49.5691 48.3006 49.1835 48.9124 48.6322C49.5929 48.0204 50.0977 47.2147 50.6247 46.4736C51.2063 45.6578 51.7717 44.8279 52.2664 43.9536C52.7793 43.0469 53.1993 42.0938 53.7082 41.1872C54.1948 40.3189 54.7622 39.4991 55.374 38.7156C55.9717 37.9503 56.6118 37.2193 57.2661 36.5025C57.8941 35.8159 58.6089 35.1637 59.1157 34.3802C60.1132 32.8375 59.776 30.8223 59.2187 29.1826C58.9602 28.4234 58.4938 27.6278 57.6538 27.4299C57.2297 27.331 56.84 27.4582 56.4543 27.6318C56.0505 27.8136 55.6507 28.0014 55.2529 28.1932C53.7304 28.9242 52.2119 29.7581 51.0165 30.9717C50.7277 31.2645 50.4612 31.5795 50.2189 31.9127C50.1522 32.0157 50.3178 32.1106 50.3905 32.0116Z" fill="#252932"/>
<path d="M59.6912 34.0933C60.2485 34.0812 60.7149 34.4447 60.9875 34.9091C61.3146 35.4664 61.3187 36.1409 61.244 36.7668C61.1632 37.4534 61.0158 38.1339 60.8946 38.8144C60.7715 39.4989 60.6503 40.1855 60.5271 40.87C60.0506 43.5435 59.5902 46.2251 58.9642 48.8703C58.6553 50.1727 58.306 51.4651 57.894 52.7372C57.791 53.0542 57.686 53.3733 57.573 53.6863C57.4559 54.0053 57.2862 54.2456 56.9571 54.3668C56.7067 54.4596 56.4341 54.5 56.1716 54.5424C55.8687 54.5909 55.5497 54.6212 55.2448 54.5566C54.0231 54.2981 54.1705 52.7453 54.2109 51.8083C54.2715 50.4251 54.3684 49.042 54.5017 47.6648C54.7702 44.9045 55.1882 42.1583 55.7516 39.4404C55.8223 39.0991 55.895 38.7558 55.9717 38.4146C55.9979 38.2934 55.8142 38.2429 55.7859 38.3641C55.1539 41.2234 54.6814 44.117 54.3745 47.0308C54.219 48.4947 54.1059 49.9627 54.0352 51.4348C53.9888 52.3859 53.7626 53.8256 54.645 54.496C55.1054 54.8453 55.7092 54.813 56.2503 54.7221C56.7834 54.6333 57.371 54.5384 57.6396 54.0114C57.785 53.7266 57.8718 53.4036 57.9728 53.1007C58.0879 52.7554 58.1989 52.406 58.3059 52.0587C58.5119 51.3843 58.6997 50.7038 58.8754 50.0213C59.5942 47.2327 60.091 44.3916 60.5958 41.5586C60.8583 40.0885 61.1471 38.6205 61.3793 37.1444C61.5509 36.046 61.5206 34.6426 60.3797 34.061C60.1637 33.952 59.9294 33.8975 59.6871 33.9035C59.568 33.9056 59.568 34.0974 59.6912 34.0933Z" fill="#252932"/>
<path d="M39.1634 37.96C38.8989 37.9903 38.7353 38.1619 38.5818 38.3658C38.493 38.483 38.4122 38.6082 38.3012 38.7051C38.1356 38.8525 37.9114 38.911 37.7075 38.9858C36.8735 39.2886 36.0456 39.6097 35.2238 39.9469C35.036 40.0237 34.6685 40.167 34.7896 40.4396C34.9007 40.692 35.3469 40.7708 35.5852 40.797C36.2173 40.8677 36.8937 40.7486 37.5237 40.684C38.2386 40.6113 38.9534 40.5285 39.6702 40.476C39.7934 40.4659 39.7934 40.2761 39.6702 40.2841C38.5859 40.3649 37.5076 40.5123 36.4252 40.5951C36.1062 40.6193 35.7771 40.6476 35.46 40.585C35.3914 40.5709 35.3227 40.5527 35.2561 40.5305C35.147 40.4921 35.038 40.4639 35.0218 40.3447C35.0077 40.2417 35.0077 40.274 35.0723 40.2215C35.1087 40.1933 35.1652 40.1771 35.2076 40.1589C35.3106 40.1145 35.4156 40.0741 35.5206 40.0317C36.2274 39.745 36.9402 39.4704 37.657 39.2079C37.968 39.0948 38.2971 39.01 38.5253 38.7535C38.7091 38.5476 38.8605 38.1821 39.1674 38.1498C39.2846 38.1377 39.2866 37.9458 39.1634 37.96Z" fill="#252932"/>
<path d="M41.2129 29.881C41.4047 30.19 41.441 30.616 41.4572 30.9856C41.4834 31.5227 41.4471 32.0639 41.3865 32.5969C41.3239 33.132 41.2331 33.6631 41.1058 34.18C41.0109 34.5657 40.9019 34.9696 40.706 35.3048C40.6374 35.4239 40.803 35.535 40.8716 35.4178C41.2169 34.8262 41.3562 34.0387 41.4733 33.3501C41.6167 32.5 41.7136 31.6014 41.6329 30.7332C41.6026 30.402 41.5501 30.0426 41.3784 29.768C41.3078 29.6529 41.1402 29.7639 41.2129 29.881Z" fill="#252932"/>
<path d="M45.4797 48.9107C45.2333 49.6093 44.9708 50.5907 45.6857 51.1238C46.0108 51.3661 46.457 51.3439 46.8407 51.3197C47.2122 51.2975 47.5595 51.1803 47.7655 50.8512C47.9715 50.52 47.9937 50.1041 48.0038 49.7244C48.0058 49.6013 47.814 49.6013 47.8119 49.7244C47.8039 50.0859 47.7897 50.5079 47.5636 50.8108C47.291 51.1763 46.7478 51.1541 46.3379 51.1339C46.1097 51.1218 45.8896 51.0652 45.722 50.9017C45.5827 50.7664 45.4938 50.5847 45.4474 50.3989C45.3262 49.9143 45.508 49.4155 45.6695 48.9632C45.7058 48.844 45.5221 48.7936 45.4797 48.9107Z" fill="#252932"/>
<path d="M45.1808 48.4645C45.201 48.7775 45.0677 49.0501 44.9102 49.3126C44.7527 49.5751 44.5892 49.8335 44.4377 50.1001C44.1348 50.6291 43.8582 51.1703 43.6058 51.7256C43.3594 52.2668 43.1373 52.818 42.9415 53.3794C42.7496 53.9246 42.5315 54.5001 42.4528 55.0756C42.3054 56.1518 43.2665 56.8889 44.2318 57.0484C44.7285 57.1312 45.3585 57.1776 45.8351 56.9797C46.2874 56.7899 46.4651 56.3235 46.5802 55.8833C46.9618 54.4456 47.3172 52.9998 47.6867 51.558C47.717 51.4389 47.5333 51.3884 47.5009 51.5075C47.196 52.7029 46.8891 53.8963 46.5842 55.0917C46.5135 55.3663 46.4489 55.643 46.3722 55.9156C46.3055 56.1518 46.2248 56.3962 46.0632 56.584C45.7139 56.9878 45.0354 56.9373 44.5528 56.897C44.0016 56.8505 43.4442 56.6789 43.0485 56.273C42.6588 55.8732 42.5618 55.3805 42.6911 54.8454C42.9515 53.7651 43.3615 52.7049 43.8279 51.6973C44.0884 51.134 44.3751 50.5847 44.6881 50.0476C44.9688 49.567 45.409 49.0541 45.3706 48.4645C45.3646 48.3413 45.1727 48.3393 45.1808 48.4645Z" fill="#252932"/>
<path d="M54.4068 54.8271C54.6006 54.8796 54.5521 55.1704 54.5622 55.3198C54.5744 55.4733 54.6208 55.6207 54.7541 55.7115C54.9075 55.8165 55.1175 55.8549 55.2952 55.9013C55.5113 55.9579 55.7314 56.0023 55.9555 56.0104C56.3311 56.0245 56.7006 55.9256 56.9753 55.661C57.2135 55.4309 57.3448 55.1058 57.262 54.7786C57.2317 54.6595 57.048 54.71 57.0762 54.8291C57.157 55.1502 56.9652 55.4571 56.7047 55.6348C56.3897 55.8509 55.9858 55.8468 55.6244 55.7802C55.4366 55.7459 55.2549 55.6933 55.0711 55.6388C54.9944 55.6146 54.8995 55.5944 54.8389 55.5379C54.7662 55.4712 54.7561 55.3743 54.7521 55.2814C54.742 55.0391 54.746 54.7221 54.4572 54.6454C54.3381 54.611 54.2876 54.7948 54.4068 54.8271Z" fill="#252932"/>
<path d="M54.1604 54.4998C53.9928 55.7498 53.8535 57.0058 53.6455 58.2496C53.5506 58.8251 53.4011 59.3764 53.2376 59.9337C53.1043 60.386 52.9811 60.8989 53.175 61.3532C53.3325 61.7228 53.6737 61.9489 54.0534 62.0479C54.4875 62.161 55.0246 62.1731 55.4507 62.0257C55.9091 61.8661 56.1776 61.4582 56.4038 61.0524C56.6683 60.5778 56.8743 60.067 57.0157 59.542C57.1671 58.9725 57.2458 58.3809 57.2418 57.7933C57.2378 57.1491 57.0742 56.4828 57.2721 55.8527C57.3084 55.7356 57.1247 55.6852 57.0863 55.8023C56.9308 56.299 56.9934 56.8119 57.0298 57.3208C57.0661 57.8276 57.05 58.3344 56.9692 58.8352C56.8884 59.338 56.7491 59.8327 56.5532 60.3032C56.3675 60.7495 56.1352 61.2624 55.7819 61.6016C55.4224 61.9449 54.8671 61.9671 54.3966 61.9166C53.9383 61.8661 53.4698 61.6642 53.3184 61.1917C53.173 60.7394 53.3446 60.2366 53.4779 59.8024C53.6334 59.2956 53.7525 58.7847 53.8373 58.2617C54.0433 57.0138 54.1846 55.7518 54.3522 54.4978C54.3684 54.3767 54.1765 54.3787 54.1604 54.4998Z" fill="#252932"/>
<path d="M48.7427 23.0842C49.2839 23.4274 49.926 23.5001 50.556 23.5022C50.9235 23.5042 51.291 23.482 51.6585 23.5001C51.915 23.5123 52.228 23.5506 52.4036 23.7586C52.6419 24.0433 52.4319 24.4734 52.2825 24.7521C52.1391 25.0227 51.9493 25.265 51.7514 25.4972C51.3738 25.9394 50.9579 26.3534 50.6772 26.8663C50.6186 26.9753 50.7842 27.0722 50.8428 26.9632C51.3233 26.0828 52.2058 25.4911 52.5874 24.5461C52.759 24.1201 52.7409 23.6496 52.2784 23.4355C51.8261 23.2255 51.2587 23.3022 50.7761 23.3083C50.1098 23.3164 49.4192 23.2861 48.8397 22.9186C48.7347 22.852 48.6377 23.0175 48.7427 23.0842Z" fill="#252932"/>
<path d="M51.7999 20.433C52.7429 21.4648 53.1851 22.8238 52.7288 24.1807C52.6884 24.2978 52.8742 24.3483 52.9145 24.2312C53.3931 22.8096 52.9246 21.376 51.9372 20.2977C51.8524 20.2068 51.7171 20.3421 51.7999 20.433Z" fill="#252932"/>
<path d="M40.3648 18.9125C40.4012 20.1321 40.1104 21.9495 41.5199 22.5573C42.1862 22.844 42.9273 22.6824 43.5916 22.4785C44.1166 22.317 44.5649 22.0767 44.9445 21.6688C45.3565 21.2286 45.6452 20.6389 45.4978 20.0271C45.4696 19.908 45.2838 19.9585 45.3121 20.0776C45.5463 21.0549 44.5427 22.008 43.6785 22.2523C43.0565 22.428 42.4144 22.636 41.7682 22.4462C41.1786 22.2746 40.8232 21.7657 40.6637 21.1983C40.4557 20.4572 40.5768 19.6717 40.5526 18.9145C40.5526 18.7893 40.3608 18.7873 40.3648 18.9125Z" fill="#252932"/>
<path d="M44.9163 21.4566C44.8839 22.0442 45.1101 22.6298 45.5261 23.0438C45.6129 23.1306 45.7482 22.9953 45.6614 22.9085C45.2797 22.5268 45.0778 21.9938 45.1081 21.4566C45.1141 21.3335 44.9223 21.3335 44.9163 21.4566Z" fill="#252932"/>
<path d="M47.3657 40.8535L44.8597 40.8959L43.6017 41.1079L42.6264 41.4391L41.3826 41.5199L40.0983 41.0837L39.5773 40.1993L39.2321 39.2825L39.4542 37.4531L40.7081 35.0663L43.4261 32.9723L48.3995 32.0657L50.8549 31.7527L52.6925 31.9364L49.5444 36.9765L47.3657 40.8535Z" fill="#252932"/>
<path d="M52.4623 32.2333L51.3638 33.8366L49.8251 36.2618L47.8947 40.0075L46.7074 43.1495L45.407 45.5746L45.1021 46.8508L45.2454 47.8685L45.4958 48.5268L46.1723 49.2194L47.5635 49.3426L48.4237 48.8963L49.1668 48.2461L51.9171 44.4014L54.2069 40.0398L56.8481 36.8796L58.7119 34.818L59.5256 33.2732L59.5943 31.1611L58.6089 28.1786L57.6033 27.488L55.9919 27.9545L53.7102 29.1236L51.6586 30.5392L50.4794 31.7992L52.4623 32.2333Z" fill="#252932"/>
<path d="M60.2324 34.0529L60.9452 34.6162L61.2763 35.3452L61.351 36.4699L61.0078 39.3878L59.5943 47.2811L58.0233 52.8543L57.3933 54.2092L56.8481 54.4676L55.7718 54.6494L54.7824 54.4737L54.3058 53.9063L53.9504 52.7351L54.7662 45.5445L55.7759 38.0692L57.4115 36.1771L59.2187 34.0226L59.4529 33.6389L60.2324 34.0529Z" fill="#252932"/>
<path d="M58.6553 38.0207C58.4554 40.462 58.0112 42.8952 57.4054 45.2679C56.7976 47.6486 55.8082 49.9304 54.9379 52.2242C54.4128 53.6095 56.6341 54.2072 57.155 52.8361C58.0597 50.4554 59.0794 48.0908 59.6892 45.6132C60.3031 43.1214 60.7453 40.5771 60.9553 38.0207C61.0765 36.5467 58.7765 36.5547 58.6553 38.0207Z" fill="white"/>
<path d="M49.6938 45.7584C50.5964 44.0743 51.4445 42.3459 52.4198 40.7022C53.3224 39.1796 54.8732 38.2528 56.004 36.912C57.0924 35.6237 58.4271 34.0992 58.9663 32.4838C59.4125 31.147 59.4691 28.2918 57.7567 27.8233C56.3271 27.4316 55.7173 29.6487 57.1449 30.0405C56.7915 29.9435 56.8117 29.5134 56.8097 29.992C56.8097 30.1495 56.8683 30.3211 56.8844 30.4807C56.9187 30.8603 56.9147 31.248 56.8218 31.6195C56.6502 32.3182 56.1535 32.9078 55.7435 33.4813C54.8611 34.7191 53.9383 35.9064 52.7772 36.8979C51.6283 37.8813 50.7721 38.8889 50.0472 40.2256C49.2597 41.6775 48.4843 43.1394 47.7048 44.5953C47.0082 45.9018 48.9931 47.0649 49.6938 45.7584Z" fill="white"/>
<path d="M46.4145 56.2264L45.7199 56.9654L44.5043 57.028L42.9959 56.5171L42.5334 55.3581L42.9999 53.2399L45.3968 48.2422C45.3968 48.2422 45.6633 48.3734 45.6633 48.8096C45.6653 49.5365 45.4493 50.74 45.839 50.9016C46.2085 51.055 47.511 50.1645 47.5958 49.4578C47.6664 48.8742 48.2399 49.0862 48.2399 49.0862L46.4145 56.2264Z" fill="#252932"/>
<path d="M55.7859 61.7731L54.3502 62.074L53.6354 61.7287L53.1871 61.2502L53.282 60.2284L54.2614 54.0454C54.2614 54.0454 54.9903 55.7376 55.4891 55.8183C56.107 55.9173 57.3711 54.4371 57.3711 54.4371L57.1752 58.3283L56.8824 59.5439L56.6603 60.6868L55.7859 61.7731Z" fill="#252932"/>
<path d="M42.6082 55.5781C42.5718 55.5579 42.6385 55.6043 42.6263 55.5882C42.6183 55.5781 42.6506 55.6306 42.6566 55.6387C42.691 55.6952 42.7212 55.7538 42.7576 55.8083C42.8444 55.9395 42.9474 56.0627 43.0625 56.1697C43.2947 56.3797 43.5653 56.5332 43.8621 56.6362C44.5043 56.8603 45.2272 56.7674 45.8511 56.5352C46.045 56.4625 46.1762 56.2747 46.1197 56.0647C46.0692 55.879 45.843 55.7255 45.6492 55.7962C45.1262 55.99 44.5588 56.0829 44.0257 55.881C43.848 55.8144 43.6521 55.6831 43.5128 55.5337C43.3452 55.354 43.2523 55.0591 42.9979 54.9158C42.5658 54.6714 42.1781 55.3338 42.6082 55.5781Z" fill="white"/>
<path d="M53.3366 60.7919C53.7041 61.1917 54.2493 61.432 54.7945 61.4219C55.3377 61.4138 55.8788 61.1655 56.2342 60.7535C56.3655 60.6021 56.3938 60.3578 56.2342 60.2124C56.0909 60.0811 55.8324 60.0508 55.6931 60.2124C55.6285 60.2871 55.5598 60.3578 55.481 60.4183C55.5133 60.3941 55.4871 60.4123 55.4689 60.4244C55.4427 60.4406 55.4184 60.4587 55.3922 60.4749C55.3498 60.5011 55.3074 60.5254 55.263 60.5456C55.2569 60.5476 55.1923 60.5779 55.2246 60.5637C55.2569 60.5496 55.1903 60.5759 55.1842 60.5779C55.1378 60.594 55.0893 60.6082 55.0429 60.6203C55.0186 60.6263 54.9944 60.6324 54.9702 60.6364C54.9641 60.6384 54.8914 60.6506 54.9298 60.6445C54.9681 60.6384 54.8955 60.6465 54.8894 60.6485C54.8591 60.6506 54.8268 60.6526 54.7965 60.6526C54.746 60.6526 54.6976 60.6506 54.6491 60.6485C54.6208 60.6465 54.6006 60.6425 54.641 60.6485C54.6168 60.6445 54.5926 60.6405 54.5683 60.6344C54.5199 60.6243 54.4714 60.6122 54.425 60.5981C54.4007 60.59 54.3785 60.5819 54.3543 60.5738C54.3321 60.5658 54.3038 60.5557 54.3422 60.5718C54.2453 60.5314 54.1524 60.4769 54.0675 60.4183C54.0615 60.4143 54.007 60.3719 54.0312 60.3921C54.0575 60.4123 54.0029 60.3679 53.9989 60.3618C53.9565 60.3255 53.9181 60.2851 53.8798 60.2447C53.7445 60.0973 53.4739 60.0973 53.3386 60.2447C53.1912 60.4082 53.1912 60.6344 53.3366 60.7919Z" fill="white"/>
<path d="M51.7716 20.2733C50.138 19.9321 48.7346 18.349 48.0461 16.9799C47.7694 16.4287 47.6665 15.9481 47.1616 15.5664C46.8062 15.2979 46.4791 14.9849 46.0793 14.783C44.9566 14.2216 43.5956 13.9389 42.3841 14.3104C41.2149 14.6679 40.0559 15.3181 39.2582 16.255C39.0987 16.4428 38.9554 16.6366 38.816 16.8325V18.5267L39.0058 18.9083L39.1371 19.2597L39.1613 20.1179L39.6278 20.8206L39.86 21.2204L39.5389 21.7171L39.236 22.0321L38.606 22.6561L37.9942 23.906L37.978 24.6309L39.0604 26.0081L39.4905 25.578L40.4476 25.0146C40.4476 25.0146 40.8535 24.6693 41.1846 24.4936C41.4209 24.3684 41.5683 24.3866 41.6652 24.4068C41.7621 24.427 42.0892 24.2715 42.0892 24.2715L42.1781 23.9585C42.1781 23.9585 42.7193 24.0756 42.9596 23.7828C43.1595 23.5385 43.0585 22.8742 43.107 22.8661C43.1433 22.86 43.004 22.6763 42.7455 22.6137C42.2528 22.4945 41.4491 22.4663 41.4491 22.4663L40.8191 21.919L40.4698 20.9054L40.5667 19.2839L40.3507 18.1349C40.3507 18.1349 40.3224 17.2202 40.3507 17.2C40.3789 17.1798 41.8308 17.1354 41.8308 17.1354L42.9091 17.4282L43.3715 18.5852L43.5552 19.5303L44.6638 19.8513L45.4432 20.2673L45.0374 21.1336L45.1161 22.333L45.6391 23.0761L46.2065 23.0458L46.5498 22.9792L47.5715 22.5087L48.3671 22.7429L48.777 23.1367L50.1885 23.3972L51.4021 23.4739L52.2159 23.5183L52.6944 24.2311L52.8681 23.8091L52.9933 22.7025L52.6823 21.4849L51.7716 20.2733Z" fill="#252932"/>
<path d="M41.8025 16.7314C42.4406 16.6729 43.3553 16.7718 43.5896 17.4887C43.7774 18.0642 43.4725 18.882 44.054 19.2898C44.3428 19.4918 44.7143 19.4635 45.0495 19.4635C45.4513 19.4635 45.8067 19.5584 46.0874 19.8613C46.3741 20.1723 46.4388 20.5418 46.4024 20.9477C46.3741 21.2768 46.3459 21.6443 46.6286 21.8745C46.7921 22.0078 47.0163 22.0724 47.2121 22.1431C47.4605 22.2319 47.7129 22.3127 47.9673 22.3854C48.4883 22.5328 49.0174 22.6418 49.5545 22.7145C49.6756 22.7307 49.7281 22.5469 49.605 22.5288C49.1284 22.4641 48.6559 22.3713 48.1915 22.2481C47.9593 22.1855 47.7291 22.1168 47.5009 22.0401C47.2768 21.9654 47.0223 21.8987 46.8204 21.7756C46.4145 21.5292 46.6306 20.986 46.6064 20.6044C46.5862 20.2753 46.4448 19.9643 46.2207 19.724C45.9986 19.4837 45.6997 19.3262 45.3766 19.2858C45.0111 19.2394 44.5831 19.3484 44.2418 19.1768C43.8783 18.995 43.8642 18.567 43.8581 18.2116C43.8501 17.8865 43.8521 17.5452 43.6986 17.2484C43.3533 16.586 42.4689 16.473 41.8025 16.5356C41.6814 16.5517 41.6814 16.7435 41.8025 16.7314Z" fill="white"/>
<path d="M40.5525 16.6547C40.0235 17.0565 40.0901 17.735 40.1002 18.3266C40.1063 18.7284 40.0033 19.0616 39.8579 19.4311C39.7428 19.7219 39.6439 20.0228 39.6964 20.3398C39.7549 20.6811 39.973 20.9718 40.0154 21.3171C40.0619 21.7008 39.864 22.0643 39.6075 22.3349C39.1875 22.7791 38.4323 23.0618 38.2809 23.71C38.1254 24.3723 38.5192 25.0689 39.0805 25.4041C39.1875 25.4667 39.2824 25.3012 39.1774 25.2386C38.6565 24.9276 38.2324 24.1805 38.5313 23.5807C38.6726 23.3001 38.9513 23.1183 39.1976 22.9366C39.452 22.7468 39.7004 22.5489 39.8943 22.2945C40.0578 22.0824 40.177 21.83 40.2072 21.5615C40.2396 21.2727 40.1467 21.0163 40.0356 20.7538C39.8983 20.4246 39.8296 20.1359 39.9346 19.7845C40.0235 19.4857 40.177 19.209 40.2456 18.9041C40.391 18.2559 40.0296 17.2927 40.6515 16.8223C40.7464 16.7455 40.6515 16.5799 40.5525 16.6547Z" fill="white"/>
<path d="M50.5157 28.205C50.3662 28.4897 50.3723 28.8552 50.3905 29.1722C50.4167 29.6326 50.5015 30.0909 50.6085 30.5372C50.7156 30.9855 50.8509 31.4297 51.0205 31.8578C51.1457 32.1768 51.285 32.51 51.499 32.7746C51.5758 32.8695 51.4304 32.9805 51.3557 32.8876C50.9781 32.4192 50.7721 31.7629 50.6005 31.1874C50.3864 30.4766 50.2128 29.7214 50.2067 28.9763C50.2047 28.6916 50.2188 28.3806 50.3541 28.1262C50.4066 28.0212 50.5722 28.0979 50.5157 28.205Z" fill="#252932"/>
<path d="M23.6716 17.4364C23.6352 17.8826 23.5827 18.3269 23.5524 18.7731C23.5443 18.8963 23.3525 18.8963 23.3606 18.7731C23.3909 18.3269 23.4434 17.8826 23.4797 17.4364C23.4898 17.3132 23.6817 17.3132 23.6716 17.4364Z" fill="#252932"/>
<path d="M24.1945 17.7553C24.3439 18.0602 24.4853 18.3712 24.6165 18.6842C24.7357 18.9689 24.9053 19.2839 24.9275 19.5949C24.9699 20.1602 24.2975 20.4207 24.2935 20.9659C24.2894 21.6646 25.0709 22.0341 25.4646 22.5006C25.812 22.9125 26.0462 23.4597 26.0422 24.0049C26.0381 24.5178 25.818 25.0469 25.3152 25.2448C25.2001 25.2892 25.1517 25.1054 25.2647 25.059C25.7413 24.8712 25.8887 24.2896 25.8423 23.8252C25.7817 23.2275 25.4566 22.7126 25.0164 22.3209C24.6347 21.9796 24.1864 21.6384 24.1117 21.0952C24.039 20.5661 24.4611 20.3218 24.6731 19.9018C24.8367 19.5767 24.6226 19.2031 24.4994 18.8982C24.354 18.5428 24.1965 18.1935 24.0289 17.8502C23.9744 17.7432 24.14 17.6442 24.1945 17.7553Z" fill="#252932"/>
<path d="M24.4549 17.2181C23.835 17.103 23.2171 16.9737 22.5931 16.8788C22.0944 16.8021 21.5633 16.7859 21.109 17.0444C20.7596 17.2443 20.5597 17.5674 20.5072 17.9632C20.4446 18.4155 20.5153 18.9425 20.1034 19.2515C19.3522 19.8149 18.3547 19.2737 17.5712 19.1182C17.5127 19.1061 17.4541 19.098 17.3955 19.0899C17.3612 19.1505 17.3229 19.2091 17.2825 19.2676C17.5874 19.2999 17.8903 19.3928 18.1831 19.4797C18.8474 19.6775 19.6915 19.8613 20.277 19.3585C20.5799 19.098 20.6425 18.7204 20.6688 18.3428C20.6849 18.0944 20.691 17.8299 20.8101 17.6038C20.9091 17.418 21.0726 17.2787 21.2564 17.1837C21.7208 16.9435 22.264 17.0121 22.7587 17.101C23.3079 17.1979 23.8552 17.3029 24.4024 17.4038C24.5256 17.4261 24.576 17.2403 24.4549 17.2181Z" fill="#252932"/>
<path d="M14.294 22.3067C14.3364 22.333 14.3768 22.3632 14.4172 22.3915C14.6393 22.1169 14.8432 21.8261 15.0169 21.5172C15.1845 21.2203 15.3056 20.9013 15.4369 20.5903C15.3541 20.6247 15.2733 20.659 15.1905 20.6933C15.0916 20.9296 14.9926 21.1658 14.8674 21.392C14.6898 21.709 14.4838 22.0079 14.2556 22.2885C14.2677 22.2946 14.2819 22.2986 14.294 22.3067Z" fill="#252932"/>
<path d="M24.9113 18.3574C25.081 17.8566 25.1052 17.3215 24.9861 16.8086C24.9578 16.6894 25.1436 16.6369 25.1718 16.7581C25.2991 17.3033 25.2789 17.8788 25.0971 18.4099C25.0567 18.525 24.871 18.4745 24.9113 18.3574Z" fill="#252932"/>
<path d="M23.1425 29.2691C23.1223 29.1843 23.098 29.1015 23.0677 29.0208C23.0657 29.0167 23.0637 29.0086 23.0617 29.0006C23.0496 28.9622 23.0253 28.9218 23.0072 28.8855C22.9405 28.7502 22.8658 28.6209 22.7911 28.4917C22.6296 28.2151 22.468 27.9324 22.3873 27.6194C22.3792 27.5851 22.3772 27.5507 22.3772 27.5164C21.8723 26.3735 21.6724 25.0953 21.8259 23.8534L22.783 24.1139C22.4498 23.8252 21.9733 23.7101 21.5452 23.8151C20.7961 23.9988 20.2488 24.7863 19.4775 24.7904C18.7364 24.7944 18.2195 24.0877 17.8055 23.4738C17.3916 22.86 16.7858 22.1896 16.0568 22.3208C15.5823 22.4056 15.2956 22.7691 15.0856 23.2174C15.0775 23.2537 15.0654 23.288 15.0472 23.3224C15.0412 23.3325 15.0331 23.3406 15.027 23.3486C14.8816 23.6899 14.7746 24.0695 14.6595 24.4067C14.1527 25.907 12.9149 27.1428 11.4105 27.6436C13.2319 29.7275 16.2588 30.1515 19.011 30.4403C19.2453 30.4645 19.4815 30.4888 19.7117 30.4403C20.0065 30.3777 20.261 30.202 20.5275 30.0627C21.1232 29.7497 21.8077 29.6124 22.4781 29.6669C22.7628 29.6912 23.1344 29.6831 23.2878 29.4872C23.2172 29.4307 23.1626 29.356 23.1425 29.2691Z" fill="#252932"/>
<path d="M24.9033 25.7374C24.5136 25.3699 24.0451 25.0932 23.5968 24.8025C23.1304 24.4996 22.6619 24.1301 22.0925 24.0654C21.9693 24.0513 21.9713 24.2431 22.0925 24.2573C22.4418 24.2977 22.7427 24.4794 23.0335 24.6672C23.3303 24.859 23.6271 25.0508 23.924 25.2447C24.4167 25.5658 24.9356 25.9191 25.2244 26.4482C25.2324 26.4623 25.2425 26.4785 25.2506 26.4946C25.2607 26.3937 25.2728 26.2907 25.289 26.1897C25.1799 26.0241 25.0487 25.8727 24.9033 25.7374Z" fill="#252932"/>
<path d="M20.8365 30.0123C20.8082 30.3354 20.782 30.6585 20.7537 30.9816C20.7234 31.3289 20.6709 31.6722 20.8486 31.9912C21 32.2658 21.206 32.5162 21.3877 32.7706C21.5856 33.0493 21.7835 33.3259 21.9814 33.6046C22.0521 33.7056 21.8865 33.8005 21.8158 33.7015C21.6119 33.4148 21.4079 33.126 21.202 32.8393C21.0061 32.5627 20.7678 32.288 20.6285 31.975C20.5013 31.6883 20.5295 31.3895 20.5558 31.0845C20.5861 30.7271 20.6164 30.3697 20.6467 30.0103C20.6547 29.8891 20.8466 29.8891 20.8365 30.0123Z" fill="#252932"/>
<path d="M14.1668 28.8151C13.9952 29.2977 14.1022 29.8207 14.2112 30.3073C14.3203 30.7899 14.4596 31.2847 14.4334 31.7834C14.4273 31.9066 14.2355 31.9147 14.2415 31.7915C14.2961 30.7879 13.6277 29.7642 13.981 28.7727C14.0214 28.6576 14.2072 28.698 14.1668 28.8151Z" fill="#252932"/>
<path d="M23.5988 35.3108C23.4454 35.0503 23.2838 34.7918 23.0819 34.5637C22.8699 34.3254 22.6114 34.1376 22.3509 33.9559C21.7815 33.5581 21.208 33.1623 20.6366 32.7645C20.5356 32.6938 20.4387 32.8594 20.5397 32.9301C21.1495 33.3521 21.7633 33.7701 22.3671 34.2002C22.676 34.4203 22.9446 34.6606 23.1607 34.9736C23.3485 35.2442 23.51 35.5329 23.6715 35.8176C24.2349 36.8192 24.7498 37.9702 24.56 39.1454C24.4066 40.0944 23.8068 40.995 22.8174 41.1949C21.9188 41.3767 20.9799 41.0092 20.1318 40.7507C19.2958 40.4963 18.3851 40.2418 17.5188 40.5003C17.4017 40.5367 17.4522 40.7204 17.5693 40.6861C18.6557 40.361 19.7986 40.8638 20.8324 41.1626C21.6987 41.413 22.6841 41.6149 23.512 41.1384C23.9845 40.8658 24.3217 40.4337 24.5317 39.939C24.5338 39.9329 24.5358 39.9289 24.5378 39.9228C24.6125 39.7431 24.6711 39.5553 24.7115 39.3635C24.7175 39.1676 24.7054 38.9717 24.7054 38.7779C24.7054 38.685 24.7377 38.6022 24.7882 38.5335C24.7599 37.3725 24.1784 36.2881 23.5988 35.3108Z" fill="#252932"/>
<path d="M20.7436 33.021C19.322 32.5485 17.8419 32.3002 16.3617 32.0962C15.6045 31.9912 14.8473 31.8882 14.0901 31.7953C13.3187 31.7004 12.5413 31.6399 11.7639 31.7186C11.6407 31.7307 11.6427 31.5389 11.7639 31.5268C12.5655 31.446 13.3672 31.5126 14.1648 31.6116C14.8897 31.7025 15.6166 31.8014 16.3395 31.9003C17.8439 32.1063 19.3483 32.3547 20.7941 32.8353C20.9112 32.8757 20.8607 33.0594 20.7436 33.021Z" fill="#252932"/>
<path d="M13.5349 31.8314C12.5596 30.4907 11.1724 29.5376 9.7266 28.7642C9.00168 28.3765 8.25858 28.0292 7.51348 27.6839C7.08943 27.488 6.67144 27.3144 6.20297 27.4658C5.77691 27.6031 5.44373 27.9343 5.21757 28.3119C4.98939 28.6935 4.85613 29.1236 4.73497 29.5497C4.61583 29.9737 4.51486 30.4018 4.44621 30.8359C4.3089 31.7083 4.31092 32.6291 4.63804 33.463C4.97122 34.3192 5.65979 34.9674 6.27365 35.6277C6.90366 36.3061 7.52559 36.9907 8.11724 37.7014C8.69677 38.3981 9.25005 39.119 9.7488 39.8782C10.2758 40.6799 10.712 41.5259 11.1401 42.3801C11.5742 43.2463 12.0366 44.0884 12.5677 44.9001C13.0846 45.6897 13.6359 46.457 14.1932 47.2162C14.7101 47.9209 15.3058 48.6438 16.16 48.9387C16.9273 49.2032 17.7673 49.0416 18.254 48.3611C19.2575 46.9578 18.3832 45.2636 17.6926 43.947C17.2645 43.1312 16.9293 42.2852 16.6022 41.425C16.2569 40.5143 15.8571 39.644 15.3664 38.8019C14.3729 37.0977 13.2623 35.456 12.2042 33.7921C11.9316 33.3661 11.661 32.938 11.3884 32.5119C11.3218 32.4069 11.4874 32.312 11.554 32.415C12.701 34.2162 13.86 36.0093 14.9949 37.8186C15.5259 38.6667 16.0307 39.5329 16.4245 40.4537C16.8183 41.3826 17.1191 42.3498 17.5593 43.2585C18.256 44.6982 19.3423 46.249 18.7083 47.9129C18.466 48.5449 17.9773 49.0739 17.2968 49.2153C16.4608 49.3889 15.6249 49.0033 15.013 48.452C14.3325 47.8402 13.8277 47.0345 13.3007 46.2934C12.7191 45.4776 12.1537 44.6477 11.659 43.7734C11.1461 42.8667 10.7261 41.9136 10.2173 41.007C9.73063 40.1387 9.16322 39.3189 8.55138 38.5354C7.95368 37.7701 7.31357 37.0391 6.65933 36.3223C6.03134 35.6357 5.31652 34.9835 4.80968 34.2C3.81216 32.6573 4.14938 30.6421 4.7067 29.0025C4.96516 28.2432 5.43161 27.4476 6.27163 27.2497C6.69567 27.1508 7.08539 27.278 7.47107 27.4517C7.87493 27.6334 8.27474 27.8212 8.67254 28.013C10.1951 28.744 11.7135 29.5779 12.909 30.7915C13.1977 31.0843 13.4643 31.3993 13.7066 31.7325C13.7732 31.8355 13.6076 31.9304 13.5349 31.8314Z" fill="#252932"/>
<path d="M4.23202 33.9137C3.67471 33.9015 3.20826 34.265 2.93566 34.7294C2.60854 35.2868 2.6045 35.9612 2.67921 36.5872C2.75998 37.2737 2.90739 37.9542 3.02854 38.6347C3.15172 39.3192 3.27288 40.0058 3.39605 40.6903C3.8726 43.3638 4.33299 46.0454 4.95896 48.6906C5.2679 49.9931 5.61723 51.2854 6.02916 52.5575C6.13215 52.8746 6.23715 53.1936 6.35023 53.5066C6.46735 53.8256 6.63696 54.0659 6.9661 54.1871C7.21649 54.28 7.48909 54.3203 7.75159 54.3627C8.05448 54.4112 8.37353 54.4415 8.67844 54.3769C9.90009 54.1184 9.75269 52.5656 9.7123 51.6287C9.65172 50.2455 9.5548 48.8623 9.42153 47.4851C9.15296 44.7248 8.73498 41.9786 8.1716 39.2607C8.10093 38.9194 8.02824 38.5761 7.9515 38.2349C7.92525 38.1137 8.109 38.0632 8.13727 38.1844C8.7693 41.0437 9.24181 43.9373 9.54874 46.8511C9.70422 48.315 9.8173 49.7831 9.88798 51.2551C9.93442 52.2062 10.1606 53.6459 9.27816 54.3163C8.81777 54.6656 8.21401 54.6333 7.67285 54.5425C7.13976 54.4536 6.55215 54.3587 6.28359 53.8317C6.13821 53.547 6.05138 53.2239 5.95042 52.921C5.83532 52.5757 5.72426 52.2264 5.61724 51.8791C5.41127 51.2046 5.22348 50.5241 5.0478 49.8416C4.32895 47.053 3.83221 44.2119 3.3274 41.3789C3.06489 39.9089 2.77614 38.4408 2.54392 36.9648C2.37228 35.8663 2.40257 34.4629 3.54345 33.8813C3.75951 33.7723 3.99375 33.7178 4.23606 33.7238C4.3552 33.7259 4.35722 33.9177 4.23202 33.9137Z" fill="#252932"/>
<path d="M18.4437 48.7288C18.69 49.4275 18.9525 50.4088 18.2377 50.9419C17.9126 51.1842 17.4663 51.162 17.0827 51.1378C16.7111 51.1156 16.3638 50.9985 16.1578 50.6693C15.9519 50.3382 15.9297 49.9222 15.9196 49.5426C15.9176 49.4194 16.1094 49.4194 16.1114 49.5426C16.1195 49.904 16.1336 50.3261 16.3598 50.6289C16.6324 50.9944 17.1756 50.9722 17.5855 50.952C17.8136 50.9399 18.0337 50.8834 18.2013 50.7198C18.3407 50.5845 18.4295 50.4028 18.476 50.217C18.5971 49.7324 18.4154 49.2336 18.2538 48.7813C18.2175 48.6642 18.4033 48.6137 18.4437 48.7288Z" fill="#252932"/>
<path d="M18.7424 48.2823C18.7222 48.5953 18.8555 48.8679 19.013 49.1304C19.1705 49.3929 19.3341 49.6514 19.4855 49.9179C19.7884 50.447 20.065 50.9881 20.3174 51.5434C20.5638 52.0846 20.7859 52.6358 20.9818 53.1972C21.1736 53.7424 21.3917 54.3179 21.4704 54.8934C21.6179 55.9697 20.6567 56.7067 19.6915 56.8662C19.1947 56.949 18.5647 56.9955 18.0882 56.7976C17.6359 56.6078 17.4582 56.1413 17.3431 55.7011C16.9614 54.2634 16.606 52.8176 16.2365 51.3758C16.2062 51.2567 16.39 51.2062 16.4223 51.3253C16.7272 52.5207 17.0341 53.7141 17.339 54.9095C17.4097 55.1842 17.4743 55.4608 17.5511 55.7334C17.6177 55.9697 17.6985 56.214 17.86 56.4018C18.2093 56.8056 18.8878 56.7552 19.3704 56.7148C19.9217 56.6683 20.479 56.4967 20.8748 56.0908C21.2645 55.691 21.3614 55.1983 21.2322 54.6632C20.9717 53.5829 20.5618 52.5228 20.0953 51.5152C19.8348 50.9518 19.5481 50.4025 19.2351 49.8654C18.9544 49.3848 18.5142 48.8719 18.5526 48.2823C18.5587 48.1611 18.7505 48.1591 18.7424 48.2823Z" fill="#252932"/>
<path d="M9.51647 54.6472C9.32262 54.6997 9.37107 54.9904 9.36098 55.1399C9.34886 55.2933 9.30242 55.4407 9.16915 55.5316C9.01569 55.6366 8.80568 55.675 8.62799 55.7214C8.41192 55.778 8.19182 55.8224 7.96768 55.8305C7.59209 55.8446 7.22257 55.7457 6.94795 55.4811C6.70967 55.2509 6.57842 54.9258 6.66121 54.5987C6.69149 54.4796 6.87525 54.5301 6.84698 54.6492C6.76621 54.9703 6.95804 55.2772 7.21853 55.4549C7.53354 55.6709 7.93739 55.6669 8.29884 55.6003C8.48664 55.5659 8.66837 55.5134 8.85212 55.4589C8.92886 55.4347 9.02376 55.4145 9.08434 55.358C9.15703 55.2913 9.16713 55.1944 9.17117 55.1015C9.18127 54.8592 9.17723 54.5422 9.46598 54.4654C9.58512 54.4311 9.6356 54.6149 9.51647 54.6472Z" fill="#252932"/>
<path d="M9.76485 54.3204C9.93245 55.5703 10.0718 56.8263 10.2798 58.0702C10.3747 58.6456 10.5241 59.1969 10.6877 59.7542C10.8209 60.2065 10.9441 60.7194 10.7502 61.1738C10.5927 61.5433 10.2515 61.7694 9.87187 61.8684C9.43773 61.9815 8.90061 61.9936 8.47454 61.8462C8.01617 61.6866 7.74761 61.2788 7.52145 60.8729C7.25693 60.3984 7.05096 59.8875 6.90961 59.3625C6.75817 58.7931 6.67942 58.2014 6.68346 57.6138C6.6875 56.9697 6.85106 56.3033 6.65317 55.6733C6.61682 55.5562 6.80057 55.5057 6.83894 55.6228C6.99442 56.1196 6.93182 56.6324 6.89548 57.1413C6.85913 57.6481 6.87529 58.155 6.95606 58.6557C7.03683 59.1585 7.17616 59.6533 7.37203 60.1237C7.5578 60.57 7.79001 61.0829 8.14338 61.4221C8.50281 61.7654 9.05811 61.7876 9.5286 61.7371C9.98697 61.6866 10.4554 61.4847 10.6069 61.0122C10.7523 60.5599 10.5806 60.0571 10.4474 59.623C10.2919 59.1161 10.1727 58.6053 10.0879 58.0823C9.88197 56.8344 9.74062 55.5723 9.57302 54.3184C9.55687 54.1972 9.74869 54.1992 9.76485 54.3204Z" fill="#252932"/>
<path d="M23.5605 18.7306C23.5646 18.6074 23.3728 18.6074 23.3687 18.7306C23.3465 19.4878 23.4677 20.2733 23.2577 21.0144C23.0981 21.5838 22.7407 22.0906 22.1531 22.2623C21.5069 22.4521 20.8648 22.2461 20.2429 22.0684C19.3786 21.8241 18.3771 20.871 18.6093 19.8937C18.6376 19.7745 18.4538 19.722 18.4235 19.8432C18.2781 20.455 18.5669 21.0446 18.9768 21.4848C19.3564 21.8927 19.8047 22.133 20.3297 22.2946C20.994 22.4985 21.7351 22.6621 22.4015 22.3733C23.813 21.7696 23.5242 19.9502 23.5605 18.7306Z" fill="#252932"/>
<path d="M18.8173 21.277C18.8476 21.8161 18.6457 22.3472 18.264 22.7288C18.1772 22.8156 18.3125 22.9509 18.3993 22.8641C18.8153 22.4481 19.0415 21.8625 19.0092 21.277C19.0031 21.1538 18.8113 21.1538 18.8173 21.277Z" fill="#252932"/>
<path d="M23.2172 34.8866L20.4993 32.7926L15.5258 31.886L13.0704 31.573L11.2308 31.7568L14.3809 36.7948L16.5577 40.6738L19.0656 40.7162L20.3236 40.9283L21.2989 41.2594L22.5428 41.3402L23.827 40.904L24.346 40.0196L24.6933 39.1028L24.4712 37.2734L23.2172 34.8866Z" fill="#252932"/>
<path d="M11.463 32.0517L12.5615 33.657L14.1001 36.0821L16.0306 39.8279L17.2179 42.9678L18.5163 45.395L18.8232 46.6712L18.6798 47.6889L18.4294 48.3472L17.753 49.0398L16.3617 49.1629L15.5015 48.7167L14.7564 48.0665L12.0082 44.2218L9.71833 39.8602L7.07512 36.7L5.21335 34.6363L4.39959 33.0936L4.33093 30.9815L5.31431 27.999L6.32193 27.3064L7.9333 27.7749L10.2151 28.944L12.2666 30.3595L13.4459 31.6196L11.463 32.0517Z" fill="#252932"/>
<path d="M3.69087 33.8732L2.98009 34.4366L2.64893 35.1655L2.57422 36.2902L2.9175 39.2081L4.33098 47.1014L5.89995 52.6746L6.53198 54.0275L7.07516 54.288L8.15143 54.4697L9.14289 54.294L9.61943 53.7266L9.97483 52.5534L9.15703 45.3648L8.14739 37.8895L6.51381 35.9974L4.70454 33.8429L4.47031 33.4592L3.69087 33.8732Z" fill="#252932"/>
<path d="M17.5088 56.0464L18.2034 56.7855L19.419 56.8481L20.9274 56.3372L21.3898 55.1782L20.9233 53.0599L18.5265 48.0623C18.5265 48.0623 18.2599 48.1935 18.2599 48.6297C18.2579 49.3566 18.474 50.5601 18.0843 50.7216C17.7147 50.8751 16.4123 49.9846 16.3275 49.2779C16.2568 48.6943 15.6833 48.9063 15.6833 48.9063L17.5088 56.0464Z" fill="#252932"/>
<path d="M8.13945 61.5937L9.57515 61.8945L10.29 61.5492L10.7382 61.0707L10.6433 60.0489L9.66399 53.866C9.66399 53.866 8.93504 55.5581 8.43628 55.6389C7.81838 55.7378 6.55432 54.2577 6.55432 54.2577L6.75019 58.1488L7.04299 59.3644L7.26511 60.5073L8.13945 61.5937Z" fill="#252932"/>
<path d="M25.929 23.7283L25.3172 22.4784L24.6872 21.8544L24.3843 21.5394L24.0632 21.0427L24.2954 20.6428L24.7619 19.9401L24.7861 19.082L24.9173 18.7306L25.1072 18.349V16.6548C24.9678 16.4589 24.8245 16.2651 24.6649 16.0773C23.8673 15.1404 22.7083 14.4901 21.5391 14.1327C21.5028 14.1206 21.4644 14.1125 21.4281 14.1024C21.1756 14.0823 20.9253 14.0378 20.6688 14.0277C20.3033 14.0156 19.9479 14.1307 19.6067 14.2499C19.015 14.4558 18.4234 14.7244 17.9569 15.1525C17.6137 15.4655 17.3007 15.8713 17.2401 16.3479C17.1694 16.9012 17.541 17.3454 17.6258 17.8704C17.8378 19.1728 16.6606 20.0532 15.6106 20.5136C14.9321 20.8104 14.2375 21.0467 13.5994 21.39C13.666 21.4566 13.7145 21.5475 13.7246 21.6626C13.7387 21.8039 13.7407 21.9655 13.7246 22.1311C13.8053 22.1311 13.8861 22.1391 13.9669 22.1634C14.08 22.1957 14.189 22.2461 14.29 22.3067C14.4515 22.4037 14.5989 22.5248 14.7483 22.6419C14.7948 22.6783 14.8412 22.7126 14.8917 22.7429C14.9805 22.7994 15.0411 22.8802 15.0714 22.969L15.1461 22.9549L15.556 22.5612L16.3516 22.3269L17.3734 22.7974L17.7166 22.864L18.2841 22.8943L18.807 22.1512L18.8858 20.9518L18.4799 20.0855L19.2594 19.6696L20.3679 19.3485L20.5517 18.4035L21.0141 17.2464L22.0924 16.9537C22.0924 16.9537 23.5442 16.9981 23.5725 17.0183C23.6008 17.0385 23.5725 17.9532 23.5725 17.9532L23.3565 19.1022L23.4534 20.7236L23.104 21.7373L22.474 22.2845C22.474 22.2845 21.6704 22.3148 21.1777 22.4319C20.9172 22.4945 20.7799 22.6783 20.8162 22.6843C20.8627 22.6904 20.7637 23.3567 20.9636 23.6011C21.2039 23.8959 21.7451 23.7768 21.7451 23.7768L21.8339 24.0897C21.8339 24.0897 22.1611 24.2452 22.258 24.225C22.3549 24.2048 22.5023 24.1846 22.7386 24.3119C23.0697 24.4875 23.4756 24.8328 23.4756 24.8328L24.4327 25.3962L24.8628 25.8263L25.9452 24.4492L25.929 23.7283Z" fill="#252932"/>
<path d="M23.3726 16.4752C23.9017 16.877 23.8351 17.5555 23.825 18.1472C23.8189 18.549 23.9219 18.8822 24.0673 19.2517C24.1824 19.5425 24.2813 19.8433 24.2288 20.1604C24.1703 20.5016 23.9522 20.7924 23.9098 21.1377C23.8633 21.5214 24.0612 21.8848 24.3177 22.1554C24.7377 22.5996 25.4929 22.8823 25.6443 23.5305C25.7998 24.1928 25.4061 24.8895 24.8447 25.2247C24.7377 25.2873 24.6428 25.1217 24.7478 25.0591C25.2687 24.7481 25.6928 24.001 25.3939 23.4013C25.2526 23.1206 24.9739 22.9389 24.7276 22.7571C24.4731 22.5673 24.2248 22.3694 24.0309 22.115C23.8674 21.903 23.7482 21.6506 23.7179 21.382C23.6856 21.0933 23.7785 20.8368 23.8896 20.5743C24.0269 20.2452 24.0955 19.9564 23.9905 19.6051C23.9017 19.3062 23.7482 19.0296 23.6796 18.7247C23.5342 18.0765 23.8956 17.1133 23.2737 16.6428C23.1788 16.5661 23.2737 16.4005 23.3726 16.4752Z" fill="white"/>
<path d="M25.7574 37.1345C25.8019 37.4293 25.8362 37.7262 25.8645 38.025C25.8705 38.0937 25.919 38.1502 25.9897 38.1502C26.0522 38.1502 26.1229 38.0916 26.1148 38.025C26.0846 37.7039 26.0462 37.3849 25.9998 37.0679C25.9897 37.0012 25.9048 36.9629 25.8443 36.979C25.7716 36.9992 25.7473 37.0679 25.7574 37.1345Z" fill="#252932"/>
<path d="M24.8325 32.2943C24.9779 33.2151 25.1778 34.1257 25.3676 35.0385C25.3999 35.198 25.6443 35.1293 25.6119 34.9718C25.4201 34.0591 25.2222 33.1484 25.0768 32.2276C25.0506 32.0681 24.8083 32.1347 24.8325 32.2943Z" fill="#252932"/>
<path d="M24.6327 29.7335C24.6247 30.1999 24.6449 30.6643 24.6852 31.1288C24.6913 31.1974 24.7398 31.254 24.8104 31.254C24.873 31.254 24.9437 31.1954 24.9356 31.1288C24.8932 30.6643 24.873 30.1999 24.8831 29.7335C24.8892 29.5719 24.6368 29.5719 24.6327 29.7335Z" fill="#252932"/>
<path d="M24.7862 29.1418C24.7054 29.7294 24.663 30.3211 24.6387 30.9147C24.6307 31.0763 24.8831 31.0763 24.8912 30.9147C24.9154 30.3453 24.9517 29.7739 25.0305 29.2085C25.0406 29.1398 25.0143 29.0732 24.9416 29.053C24.8811 29.0368 24.7942 29.0752 24.7862 29.1418Z" fill="#252932"/>
<path d="M24.8286 25.9919C25.3395 26.7895 25.0548 27.7648 24.8751 28.6189C24.8408 28.7764 25.0851 28.8451 25.1194 28.6856C25.3153 27.7607 25.6 26.7249 25.0467 25.8626C24.9599 25.7273 24.7418 25.8546 24.8286 25.9919Z" fill="#252932"/>
<path d="M25.806 37.7258C25.8767 38.0348 25.9453 38.3457 26.012 38.6567C26.0261 38.7233 26.1048 38.7617 26.1674 38.7455C26.2361 38.7274 26.2704 38.6567 26.2563 38.59C26.1896 38.2791 26.121 37.9701 26.0503 37.6592C26.0342 37.5925 25.9595 37.5542 25.8948 37.5703C25.8262 37.5885 25.7919 37.6592 25.806 37.7258Z" fill="#252932"/>
<path d="M21.8299 26.6238C21.9954 26.8904 22.1651 27.1529 22.3206 27.4235C22.4619 27.6718 22.5871 27.9384 22.6174 28.2251C22.6234 28.2938 22.6699 28.3503 22.7426 28.3503C22.8052 28.3503 22.8758 28.2918 22.8678 28.2251C22.8011 27.581 22.3771 27.0297 22.0459 26.4946C21.9611 26.3593 21.743 26.4845 21.8299 26.6238Z" fill="#252932"/>
<path d="M22.4681 29.7054C22.7044 31.7751 23.1324 33.8166 23.7544 35.8055C23.8028 35.961 24.0472 35.8944 23.9987 35.7389C23.3849 33.7722 22.9547 31.7529 22.7225 29.7074C22.7023 29.5458 22.4499 29.5438 22.4681 29.7054Z" fill="#252932"/>
<path d="M26.032 38.8849C26.236 39.208 26.5126 39.4786 26.7125 39.8057C26.8539 40.0359 26.9246 40.3529 26.7448 40.5872C26.6136 40.7588 26.3612 40.7992 26.1593 40.8073C25.8745 40.8194 25.5898 40.775 25.3132 40.7104C25.0184 40.6417 24.7256 40.5488 24.4489 40.4236C24.3015 40.357 24.1743 40.5751 24.3217 40.6417C24.8831 40.8941 25.5373 41.0859 26.1593 41.0597C26.4197 41.0496 26.7085 40.991 26.8963 40.7952C27.1124 40.569 27.1548 40.1995 27.0477 39.9148C26.8822 39.4746 26.4985 39.1474 26.2501 38.7557C26.1633 38.6204 25.9432 38.7476 26.032 38.8849Z" fill="#252932"/>
<path d="M22.2136 16.2045C21.4463 16.1116 20.6709 16.5861 20.3841 17.3009C20.3034 17.5008 20.2993 17.7149 20.2347 17.9188C20.1438 18.1975 19.8329 18.3065 19.5744 18.3792C19.0696 18.5185 18.5264 18.458 18.062 18.2197C17.9186 18.145 17.7894 18.3631 17.9348 18.4378C18.3689 18.6599 18.8535 18.7487 19.3382 18.6841C19.7259 18.6316 20.261 18.4842 20.4387 18.0965C20.5315 17.8926 20.5255 17.6624 20.5982 17.4524C20.6749 17.2343 20.8062 17.0404 20.9738 16.8789C21.3069 16.5599 21.7593 16.4024 22.2176 16.4589C22.3751 16.475 22.3731 16.2226 22.2136 16.2045Z" fill="white"/>
<path d="M17.4623 17.3011C17.85 17.1618 18.2377 17.0285 18.6295 16.9013C18.7829 16.8509 18.7183 16.6085 18.5628 16.657C18.1711 16.7842 17.7814 16.9175 17.3957 17.0568C17.3311 17.079 17.2887 17.1436 17.3068 17.2123C17.323 17.2749 17.3977 17.3254 17.4623 17.3011Z" fill="#252932"/>
<path d="M10.8552 22.2301C10.6311 21.7656 10.2656 21.0589 10.722 20.6187C10.8391 20.5056 10.6614 20.3279 10.5443 20.441C9.98894 20.9761 10.3585 21.7818 10.6371 22.3573C10.7078 22.5047 10.9259 22.3775 10.8552 22.2301Z" fill="#252932"/>
<path d="M10.9724 22.1494C10.8149 21.6406 10.716 21.1135 10.7867 20.5825C10.7947 20.5138 10.722 20.4573 10.6615 20.4573C10.5868 20.4573 10.5444 20.5158 10.5363 20.5825C10.4636 21.1337 10.5666 21.691 10.7301 22.2161C10.7766 22.3715 11.0209 22.3049 10.9724 22.1494Z" fill="#252932"/>
<path d="M13.9468 21.9774C13.8317 21.7936 13.6984 21.5937 13.6621 21.3756C13.6399 21.2363 13.6964 21.1838 13.8075 21.1111C13.9024 21.0485 14.0074 20.996 14.1043 20.9375C14.5102 20.6992 14.912 20.4549 15.3118 20.2045C16.0852 19.7219 16.8505 19.2271 17.6218 18.7425C17.7592 18.6557 17.6319 18.4376 17.4946 18.5244C16.5981 19.0878 15.7116 19.6653 14.811 20.2186C14.5889 20.3559 14.3668 20.4892 14.1406 20.6225C14.0215 20.6931 13.9004 20.7638 13.7792 20.8345C13.6823 20.891 13.5611 20.9375 13.4904 21.0243C13.234 21.3393 13.5571 21.832 13.7267 22.1026C13.8155 22.2419 14.0336 22.1147 13.9468 21.9774Z" fill="#252932"/>
<path d="M16.3699 17.1919C16.7132 17.0586 17.004 16.8163 17.1918 16.4993C17.2261 16.4428 17.2059 16.3579 17.1474 16.3256C17.0868 16.2933 17.01 16.3095 16.9737 16.3701C16.9535 16.4044 16.9313 16.4387 16.9071 16.473C16.901 16.4811 16.8949 16.4892 16.8909 16.4973C16.8889 16.4993 16.8707 16.5235 16.8808 16.5114C16.8889 16.4993 16.8707 16.5235 16.8687 16.5255C16.8606 16.5336 16.8546 16.5437 16.8465 16.5518C16.796 16.6124 16.7395 16.6689 16.6789 16.7194C16.6647 16.7315 16.6486 16.7436 16.6345 16.7557C16.6244 16.7638 16.6466 16.7477 16.6284 16.7618C16.6203 16.7679 16.6122 16.7739 16.6042 16.78C16.5719 16.8042 16.5375 16.8264 16.5032 16.8466C16.4709 16.8668 16.4366 16.885 16.4022 16.9031C16.3841 16.9132 16.3639 16.9213 16.3437 16.9314C16.3396 16.9334 16.3154 16.9435 16.3356 16.9355C16.3255 16.9395 16.3134 16.9435 16.3033 16.9476C16.2427 16.9718 16.1922 17.0324 16.2144 17.1031C16.2326 17.1636 16.3033 17.2182 16.3699 17.1919Z" fill="#252932"/>
<path d="M10.6392 20.6369C11.7316 19.7867 12.8846 19.0901 14.1043 18.4379C15.2532 17.822 16.4022 17.2001 17.4098 16.3621C17.535 16.2591 17.3553 16.0814 17.2321 16.1844C16.1983 17.0425 15.0049 17.6685 13.8256 18.3026C12.6383 18.9407 11.5277 19.6333 10.4635 20.4592C10.3323 20.5581 10.512 20.7358 10.6392 20.6369Z" fill="#252932"/>
<path d="M10.5686 22.2845C11.2228 22.5935 11.7034 23.1871 12.2385 23.6576C12.812 24.1624 13.4137 24.6329 14.0215 25.0933C14.1507 25.1923 14.278 24.9722 14.1487 24.8752C13.5228 24.4027 12.9049 23.9181 12.3193 23.3931C11.8023 22.9307 11.3319 22.3673 10.6938 22.0664C10.5504 21.9978 10.4212 22.2159 10.5686 22.2845Z" fill="#252932"/>
<path d="M12.4849 27.3225C12.8685 27.9808 13.4501 28.5058 14.1508 28.8087C14.9686 29.16 15.8974 29.1459 16.7698 29.2065C17.7491 29.2751 18.6921 29.3397 19.6654 29.158C20.6266 28.9783 21.5958 28.6835 22.5792 28.8632C22.7387 28.8915 22.8054 28.6491 22.6458 28.6189C21.8018 28.4654 20.9698 28.631 20.1419 28.8026C19.6715 28.9016 19.1989 29.0005 18.7184 29.0288C18.2337 29.0591 17.7471 29.0187 17.2645 28.9843C16.7879 28.952 16.3114 28.9197 15.8348 28.8854C15.3825 28.8531 14.9282 28.8127 14.4961 28.6693C13.7388 28.4169 13.1008 27.8818 12.7009 27.1933C12.6202 27.0559 12.4021 27.1832 12.4849 27.3225Z" fill="white"/>
<path d="M13.1168 26.8685C13.5227 27.45 13.9609 28.0376 14.6656 28.2618C15.0472 28.3829 15.4612 28.4233 15.857 28.4657C16.3093 28.5142 16.7656 28.5384 17.222 28.5384C18.1105 28.5384 18.9888 28.4374 19.8591 28.2678C20.7496 28.0962 21.6644 27.8943 22.5569 28.1648C22.7124 28.2113 22.779 27.969 22.6235 27.9205C21.8461 27.6843 21.0424 27.7872 20.2569 27.9326C19.4109 28.0921 18.5729 28.2416 17.7086 28.2739C16.8525 28.3062 15.9842 28.2618 15.1401 28.1123C14.7464 28.0417 14.391 27.9145 14.0861 27.6499C13.7872 27.3894 13.557 27.0623 13.3329 26.7392C13.242 26.608 13.0239 26.7352 13.1168 26.8685Z" fill="white"/>
<path d="M6.76028 56.3211C6.79865 58.0698 6.98846 59.9154 8.23637 61.2562C8.68062 61.7328 9.39342 61.018 8.9512 60.5414C7.90117 59.4126 7.80424 57.7811 7.77194 56.3211C7.75578 55.6729 6.74614 55.6709 6.76028 56.3211Z" fill="white"/>
<path d="M18.7789 51.3537C19.108 51.9292 19.2756 52.5673 19.4068 53.2134C19.4694 53.5244 19.5381 53.8394 19.5805 54.1564C19.6169 54.427 19.635 54.7138 19.5018 54.9561C19.1888 55.5255 20.0611 56.0364 20.3741 55.4649C20.782 54.7239 20.5639 53.8697 20.4104 53.0862C20.257 52.3088 20.047 51.5374 19.6512 50.8448C19.3301 50.2794 18.4558 50.7883 18.7789 51.3537Z" fill="white"/>
<path d="M24.871 28.6593C24.871 28.6795 24.873 28.6997 24.873 28.7199C24.873 28.73 24.873 28.7401 24.873 28.7502C24.873 28.7542 24.873 28.7583 24.873 28.7623C24.871 28.7764 24.871 28.7744 24.875 28.7542C24.8811 28.7583 24.8629 28.8067 24.8609 28.8128C24.8548 28.8309 24.8488 28.8471 24.8427 28.8653C24.8144 28.942 24.7983 29.0228 24.7841 29.1035C24.7781 29.1379 24.7781 29.1702 24.7963 29.2005C24.8124 29.2267 24.8407 29.2509 24.871 29.259C24.9336 29.2732 25.0143 29.2408 25.0265 29.1702C25.0426 29.0874 25.0588 29.0046 25.0891 28.9238C25.1052 28.8814 25.1173 28.841 25.1234 28.7966C25.1294 28.7502 25.1294 28.7058 25.1274 28.6593C25.1254 28.5927 25.0709 28.5301 25.0022 28.5341C24.9316 28.5361 24.869 28.5886 24.871 28.6593Z" fill="#252932"/>
<path d="M24.6731 31.1286C24.7175 31.5365 24.7801 31.9424 24.8589 32.3462C24.873 32.4129 24.9517 32.4512 25.0143 32.4351C25.085 32.4149 25.1153 32.3462 25.1032 32.2796C25.0285 31.898 24.9699 31.5143 24.9275 31.1286C24.9194 31.06 24.875 31.0034 24.8023 31.0034C24.7377 31.0034 24.665 31.06 24.6731 31.1286Z" fill="#252932"/>
<path d="M25.3395 35.0161C25.4203 35.533 25.5596 36.0379 25.6383 36.5568C25.6484 36.6234 25.7332 36.6618 25.7938 36.6457C25.8665 36.6255 25.8928 36.5588 25.8827 36.4902C25.8039 35.9732 25.6646 35.4664 25.5838 34.9495C25.5737 34.8828 25.4889 34.8445 25.4283 34.8606C25.3557 34.8808 25.3274 34.9495 25.3395 35.0161Z" fill="#252932"/>
<path d="M25.6262 36.4781C25.6121 36.5609 25.6283 36.6275 25.6606 36.7022C25.6707 36.7264 25.6848 36.7507 25.6949 36.7749C25.6989 36.781 25.7009 36.789 25.705 36.7951C25.6989 36.783 25.7009 36.785 25.705 36.7991C25.709 36.8133 25.7131 36.8274 25.7171 36.8415C25.7211 36.8557 25.7232 36.8698 25.7252 36.8839C25.7272 36.9001 25.7272 36.9001 25.7252 36.888C25.7252 36.8961 25.7272 36.9041 25.7272 36.9122C25.7292 36.9425 25.7312 36.9708 25.7333 37.0011C25.7373 37.0677 25.7413 37.1323 25.7474 37.199C25.7535 37.2656 25.8019 37.3282 25.8726 37.3242C25.9372 37.3221 26.0038 37.2676 25.9978 37.199C25.9897 37.0697 25.9877 36.9385 25.9635 36.8113C25.9513 36.7487 25.9291 36.6901 25.9009 36.6315C25.8948 36.6194 25.8887 36.6073 25.8827 36.5952C25.8786 36.5891 25.8766 36.581 25.8726 36.575C25.8766 36.5851 25.8786 36.5871 25.8746 36.579C25.8706 36.5669 25.8665 36.5548 25.8645 36.5427C25.8665 36.5588 25.8665 36.5588 25.8645 36.5447C25.8645 36.5306 25.8645 36.5306 25.8625 36.5447C25.8726 36.4801 25.8463 36.4054 25.7736 36.3892C25.7211 36.3771 25.6384 36.4094 25.6262 36.4781Z" fill="#252932"/>
<path d="M30.6664 36.0298C30.1474 36.0298 29.7274 36.4498 29.7274 36.9687C29.7274 37.4877 30.1474 37.9077 30.6664 37.9077C31.1853 37.9077 31.6053 37.4877 31.6053 36.9687C31.6053 36.4498 31.1853 36.0298 30.6664 36.0298ZM30.6664 37.6997C30.2625 37.6997 29.9334 37.3726 29.9334 36.9667C29.9334 36.5629 30.2605 36.2337 30.6664 36.2337C31.0722 36.2337 31.3994 36.5608 31.3994 36.9667C31.3994 37.3726 31.0702 37.6997 30.6664 37.6997Z" fill="#252932"/>
<path d="M28.962 39.0161C30.0427 39.0161 30.9187 38.7323 30.9187 38.3821C30.9187 38.0319 30.0427 37.748 28.962 37.748C27.8814 37.748 27.0054 38.0319 27.0054 38.3821C27.0054 38.7323 27.8814 39.0161 28.962 39.0161Z" fill="#252932"/>
<path d="M28.8832 38.5639C28.1926 38.5639 27.6312 38.0025 27.6312 37.3119V35.9287H30.1351V37.3119C30.1351 38.0025 29.5738 38.5639 28.8832 38.5639Z" fill="white" stroke="#252932" stroke-width="0.25" stroke-miterlimit="10"/>
<path d="M28.8832 36.5386C29.5746 36.5386 30.1351 36.3117 30.1351 36.0317C30.1351 35.7518 29.5746 35.5249 28.8832 35.5249C28.1917 35.5249 27.6312 35.7518 27.6312 36.0317C27.6312 36.3117 28.1917 36.5386 28.8832 36.5386Z" fill="#252932"/>
<path d="M27.7485 36.6859C27.7485 36.9302 27.7748 37.1745 27.8233 37.4148C27.8475 37.5319 27.8778 37.645 27.9141 37.7581C27.9505 37.8692 27.9848 37.9822 28.0676 38.0691C28.1807 38.1862 28.3584 38.0085 28.2453 37.8914C28.1867 37.8288 28.1665 37.7238 28.1423 37.645C28.11 37.54 28.0837 37.433 28.0615 37.324C28.0191 37.114 28.001 36.8999 28.001 36.6859C27.9989 36.5243 27.7465 36.5223 27.7485 36.6859Z" fill="#252932"/>
<path d="M28.1664 36.7769C28.227 37.0878 28.3058 37.3968 28.4067 37.6977C28.4512 37.833 28.4915 37.9844 28.5743 38.1035C28.6632 38.2308 28.7904 38.2934 28.9297 38.3499C28.9923 38.3761 29.0691 38.3216 29.0852 38.261C29.1054 38.1884 29.061 38.1318 28.9964 38.1056C28.8853 38.0591 28.8005 38.0107 28.748 37.8996C28.6914 37.7805 28.6551 37.6492 28.6147 37.522C28.5299 37.2554 28.4612 36.9828 28.4087 36.7082C28.3785 36.5507 28.1361 36.6174 28.1664 36.7769Z" fill="#252932"/>
<path d="M32.6653 36.9687C32.6653 37.4877 33.0853 37.9077 33.6042 37.9077C34.1232 37.9077 34.5432 37.4877 34.5432 36.9687C34.5432 36.4498 34.1232 36.0298 33.6042 36.0298C33.0853 36.0298 32.6653 36.4498 32.6653 36.9687ZM32.8713 36.9687C32.8713 36.5649 33.1984 36.2357 33.6042 36.2357C34.0081 36.2357 34.3372 36.5629 34.3372 36.9687C34.3372 37.3726 34.0101 37.7017 33.6042 37.7017C33.1984 37.6997 32.8713 37.3726 32.8713 36.9687Z" fill="#252932"/>
<path d="M35.3065 39.0161C36.3872 39.0161 37.2632 38.7323 37.2632 38.3821C37.2632 38.0319 36.3872 37.748 35.3065 37.748C34.2259 37.748 33.3499 38.0319 33.3499 38.3821C33.3499 38.7323 34.2259 39.0161 35.3065 39.0161Z" fill="#252932"/>
<path d="M35.3873 38.5639C36.0779 38.5639 36.6393 38.0025 36.6393 37.3119V35.9287H34.1354V37.3119C34.1354 38.0025 34.6947 38.5639 35.3873 38.5639Z" fill="white" stroke="#252932" stroke-width="0.25" stroke-miterlimit="10"/>
<path d="M35.3873 36.5386C36.0788 36.5386 36.6393 36.3117 36.6393 36.0317C36.6393 35.7518 36.0788 35.5249 35.3873 35.5249C34.6959 35.5249 34.1354 35.7518 34.1354 36.0317C34.1354 36.3117 34.6959 36.5386 35.3873 36.5386Z" fill="#252932"/>
<path d="M36.2697 36.6859C36.2697 36.8999 36.2515 37.114 36.2091 37.324C36.1889 37.429 36.1627 37.532 36.1324 37.6329C36.1081 37.7157 36.088 37.8268 36.0254 37.8914C35.9123 38.0085 36.092 38.1882 36.203 38.0691C36.2858 37.9823 36.3202 37.8692 36.3565 37.7581C36.3928 37.645 36.4231 37.5299 36.4474 37.4148C36.4978 37.1745 36.5221 36.9302 36.5221 36.6859C36.5221 36.5243 36.2697 36.5223 36.2697 36.6859Z" fill="#252932"/>
<path d="M35.8597 36.7102C35.8072 36.9848 35.7386 37.2574 35.6538 37.5239C35.6134 37.6491 35.5771 37.7824 35.5205 37.9015C35.468 38.0126 35.3812 38.0611 35.2722 38.1075C35.2096 38.1337 35.1651 38.1903 35.1833 38.263C35.1995 38.3215 35.2742 38.3781 35.3388 38.3518C35.4741 38.2953 35.5993 38.2367 35.6881 38.1156C35.7749 37.9964 35.8153 37.8389 35.8618 37.6996C35.9627 37.3987 36.0415 37.0918 36.1021 36.7788C36.1344 36.6173 35.89 36.5506 35.8597 36.7102Z" fill="#252932"/>
</svg>
