<svg width="65" height="74" viewBox="0 0 65 74" fill="none" xmlns="http://www.w3.org/2000/svg">
<circle cx="30" cy="31" r="30" fill="#CBDCEC"/>
<path d="M3.704 66.304H5.976C6.56267 66.304 7.01867 66.4453 7.344 66.728C7.67467 67.0107 7.84 67.4 7.84 67.896C7.84 68.392 7.67467 68.784 7.344 69.072C7.01333 69.3547 6.55733 69.496 5.976 69.496H4.36V72H3.704V66.304ZM5.92 68.952C6.34133 68.952 6.65867 68.8613 6.872 68.68C7.08533 68.4987 7.192 68.2373 7.192 67.896C7.192 67.5547 7.08533 67.296 6.872 67.12C6.65867 66.9387 6.34133 66.848 5.92 66.848H4.36V68.952H5.92ZM14.1869 72H13.4909L12.7869 70.104C12.7016 69.8693 12.5816 69.712 12.4269 69.632C12.2776 69.552 12.0643 69.512 11.7869 69.512H10.3629V72H9.71494V66.304H11.9789C12.5923 66.304 13.0616 66.44 13.3869 66.712C13.7176 66.984 13.8829 67.376 13.8829 67.888C13.8829 68.2613 13.7843 68.576 13.5869 68.832C13.3949 69.0827 13.1149 69.2613 12.7469 69.368C12.9123 69.3947 13.0536 69.4667 13.1709 69.584C13.2883 69.696 13.3869 69.8587 13.4669 70.072L14.1869 72ZM11.9229 68.968C12.7976 68.968 13.2349 68.6107 13.2349 67.896C13.2349 67.544 13.1283 67.2827 12.9149 67.112C12.7016 66.936 12.3709 66.848 11.9229 66.848H10.3629V68.968H11.9229ZM19.7429 70.536H16.7669L16.1349 72H15.4549L17.9589 66.304H18.5349L21.0389 72H20.3669L19.7429 70.536ZM19.5109 69.992L18.2549 67.064L16.9989 69.992H19.5109ZM26.2819 72L23.3459 69.288V72H22.6899V66.304H23.3459V68.92L26.1459 66.304H26.9859L24.0099 69.08L27.1379 72H26.2819ZM29.9363 66.864H27.9523V66.304H32.5843V66.864H30.6003V72H29.9363V66.864ZM34.1806 66.304H34.8366V72H34.1806V66.304ZM39.4751 72.064C38.9364 72.064 38.4671 71.9467 38.0671 71.712C37.6724 71.4773 37.3684 71.1413 37.1551 70.704C36.9417 70.2613 36.8351 69.7413 36.8351 69.144C36.8351 68.5467 36.9417 68.032 37.1551 67.6C37.3684 67.1627 37.6724 66.8267 38.0671 66.592C38.4671 66.3573 38.9364 66.24 39.4751 66.24C39.8697 66.24 40.2297 66.3013 40.5551 66.424C40.8857 66.5413 41.1711 66.72 41.4111 66.96L41.1631 67.464C40.8911 67.2293 40.6217 67.0613 40.3551 66.96C40.0937 66.8587 39.8031 66.808 39.4831 66.808C38.8591 66.808 38.3737 67.0107 38.0271 67.416C37.6857 67.8213 37.5151 68.3973 37.5151 69.144C37.5151 69.896 37.6857 70.4773 38.0271 70.888C38.3684 71.2933 38.8537 71.496 39.4831 71.496C39.8031 71.496 40.0937 71.4453 40.3551 71.344C40.6217 71.2427 40.8911 71.0747 41.1631 70.84L41.4111 71.344C41.1711 71.584 40.8857 71.7653 40.5551 71.888C40.2297 72.0053 39.8697 72.064 39.4751 72.064ZM40.6351 64.592L39.6751 65.816H39.2351L38.2751 64.592H38.8671L39.4591 65.432L40.0431 64.592H40.6351ZM47.8798 66.304V72H47.3678L43.9278 67.416V72H43.3118V66.304H43.8158L47.2558 70.888V66.304H47.8798ZM53.8086 70.536H50.8326L50.2006 72H49.5206L52.0246 66.304H52.6006L55.1046 72H54.4326L53.8086 70.536ZM53.5766 69.992L52.3206 67.064L51.0646 69.992H53.5766Z" fill="black"/>
<path d="M46.108 25.4744C45.6236 24.3743 45.5219 23.0838 44.7639 22.152C43.723 20.8744 41.8482 20.7284 40.2008 20.7949C38.5535 20.8615 36.7545 20.9983 35.4141 20.0406C34.5433 19.4194 34.0219 18.4339 33.4728 17.515C32.9236 16.5961 32.2599 15.6606 31.2633 15.2668C30.2668 14.873 28.8894 15.2982 28.6472 16.341L28.5159 16.5333L25.1436 24.0249L29.9155 29.3016C31.1912 29.3386 32.4707 29.2406 33.7261 29.0095C35.5583 28.6711 37.4146 28.0481 39.2394 28.416C39.9993 28.5695 40.7185 28.8893 41.4784 29.0372C43.1646 29.3645 44.8914 28.8246 46.5 28.2182C47.221 27.9464 47.955 27.6561 48.726 27.621L48.9312 26.9295C47.9051 27.5563 46.5924 26.5727 46.108 25.4744ZM32.6463 18.922C32.6038 19.0662 32.4873 19.1845 32.2913 19.1845C31.9567 19.1845 31.8494 18.837 31.9641 18.6077C31.9641 18.604 31.9622 18.5985 31.9622 18.5948C31.9622 18.5689 31.9622 18.5411 31.9659 18.5153C31.9641 18.4986 31.9604 18.4801 31.9604 18.4635C31.892 18.3599 31.8716 18.225 31.9105 18.1066C31.9105 18.1011 31.9086 18.0974 31.9086 18.0919C31.8347 17.8663 31.9511 17.5686 32.2599 17.5686C32.4947 17.5686 32.6186 17.7406 32.6297 17.9236C32.65 17.9865 32.6519 18.0549 32.6426 18.1233C32.6703 18.1825 32.6833 18.2472 32.6814 18.3137C32.6981 18.3618 32.7018 18.4117 32.7018 18.4635C32.7258 18.5504 32.724 18.6447 32.6944 18.7279C32.6925 18.7926 32.6796 18.8628 32.6463 18.922Z" fill="white"/>
<path d="M48.8814 26.8515C48.5615 27.0474 48.1825 27.0863 47.7887 26.9624C47.1471 26.7609 46.5056 26.1489 46.1931 25.4371C46.0193 25.0414 45.8917 24.6106 45.7697 24.1928C45.5534 23.4588 45.3297 22.6989 44.836 22.0943C43.7193 20.7243 41.6541 20.6448 40.1972 20.7039L39.9236 20.715C38.3428 20.7834 36.7084 20.8518 35.4678 19.9662C34.7042 19.4208 34.2068 18.5759 33.7243 17.7605C33.667 17.6625 33.6096 17.5664 33.5523 17.4684C32.9847 16.5199 32.3191 15.5862 31.2985 15.1813C30.7014 14.9447 29.9748 14.9854 29.4016 15.2867C28.9597 15.5197 28.6602 15.8858 28.5604 16.3203L28.7397 16.3609C28.8284 15.9801 29.0928 15.6565 29.4866 15.4494C30.0062 15.1776 30.6903 15.1388 31.2301 15.3533C32.2008 15.7379 32.8442 16.642 33.3933 17.5627C33.4506 17.6588 33.508 17.7568 33.5653 17.853C34.0571 18.6868 34.5655 19.5465 35.3605 20.116C36.6529 21.0404 38.3206 20.9683 39.9328 20.8999L40.2064 20.8888C41.6245 20.8315 43.6306 20.9055 44.6937 22.2108C45.1633 22.7876 45.3722 23.4957 45.5922 24.2445C45.7161 24.6661 45.8455 25.1024 46.0249 25.511C46.3595 26.2691 47.0454 26.9217 47.7351 27.138C48.1049 27.2527 48.4617 27.2434 48.7815 27.1103L48.6558 27.5318C47.9329 27.5781 47.2433 27.8388 46.5758 28.0902L46.4686 28.1309C44.9599 28.7003 43.209 29.279 41.497 28.9462C41.1161 28.8723 40.7389 28.7521 40.3728 28.6356C40.0123 28.521 39.6388 28.4027 39.258 28.325C37.8177 28.0347 36.3478 28.3564 34.926 28.667C34.5267 28.7539 34.1125 28.8445 33.7076 28.9185C32.4726 29.1459 31.2098 29.2439 29.9563 29.2106L25.2527 24.0079L28.601 16.5698L28.4328 16.494L25.0345 24.0412L29.8731 29.3918L29.9119 29.3937C30.0894 29.3992 30.2687 29.4011 30.4462 29.4011C31.55 29.4011 32.6575 29.2994 33.7409 29.0997C34.1477 29.0239 34.5637 28.9333 34.9649 28.8464C36.3682 28.5395 37.8177 28.2233 39.221 28.5062C39.5908 28.5802 39.9587 28.6985 40.3155 28.8113C40.6872 28.9296 41.0699 29.0516 41.46 29.1274C43.2183 29.4676 45.0006 28.8815 46.5315 28.3047L46.6387 28.264C47.3135 28.0089 48.0106 27.7463 48.7279 27.713L48.7945 27.7093L49.0866 26.7239L48.8814 26.8515Z" fill="#252932"/>
<path d="M35.9208 21.3952C36.2869 21.4026 36.5679 21.7632 36.8822 21.9166C37.1633 22.0534 37.4665 22.1237 37.7752 22.1551C38.5444 22.2328 39.2987 22.0331 40.0568 21.9481C40.8093 21.863 41.5396 21.9351 42.1867 22.3511C42.7598 22.719 43.1888 23.2829 43.3792 23.9374C43.4199 24.078 43.6417 24.0188 43.6011 23.8764C43.1999 22.5046 41.9019 21.6337 40.4912 21.6855C39.6408 21.7169 38.8125 21.9813 37.9583 21.9407C37.5552 21.9222 37.1503 21.8316 36.8064 21.6134C36.518 21.4304 36.2832 21.1734 35.919 21.1678C35.7748 21.1623 35.7748 21.3915 35.9208 21.3952Z" fill="#252932"/>
<path d="M33.8427 26.4501C33.5284 25.1392 33.4581 23.8062 33.4063 22.4639C33.1068 22.5046 32.8054 22.5453 32.5059 22.5859C32.6945 23.2072 32.8739 23.8321 33.0403 24.4588C33.1919 25.0283 34.0775 24.7861 33.924 24.2148C33.7558 23.5862 33.5783 22.9631 33.3897 22.3419C33.2436 21.8612 32.4689 21.9314 32.4893 22.4639C32.5448 23.8875 32.6243 25.3038 32.9589 26.6941C33.0957 27.2673 33.9795 27.0232 33.8427 26.4501Z" fill="white"/>
<path d="M32.7074 22.536C32.8941 24.4607 32.6298 26.3947 32.859 28.3156C32.9293 28.8943 33.8463 28.9017 33.7761 28.3156C33.5449 26.3947 33.8112 24.4589 33.6244 22.536C33.5671 21.9537 32.6501 21.9481 32.7074 22.536Z" fill="white"/>
<path d="M33.5598 22.0405C33.3712 20.8979 33.0088 19.7996 32.7056 18.6866C32.7019 18.6995 32.7 18.7106 32.6963 18.7236C32.6945 18.7938 32.6816 18.8622 32.6464 18.9214C32.6039 19.0656 32.4874 19.1839 32.2914 19.1839C31.9568 19.1839 31.8496 18.8364 31.9642 18.6071C31.9642 18.6034 31.9623 18.5978 31.9623 18.5941C31.9623 18.5683 31.9623 18.5405 31.966 18.5146C31.9642 18.498 31.9605 18.4795 31.9605 18.4629C31.8921 18.3593 31.8717 18.2244 31.9106 18.106C31.9106 18.1005 31.9087 18.0968 31.9087 18.0913C31.8348 17.8657 31.9512 17.568 32.26 17.568C32.3284 17.568 32.3876 17.5847 32.4375 17.6087C32.3894 17.3794 32.3451 17.1483 32.3118 16.9154C32.2249 16.333 31.343 16.5807 31.428 17.1594C31.6869 18.9066 32.3894 20.5447 32.676 22.2864C32.7703 22.8651 33.6541 22.6173 33.5598 22.0405Z" fill="white"/>
<path d="M46.1063 58.4413C45.3168 55.6809 45.4463 53.4437 46.489 51.7909C47.0955 50.8313 47.7851 50.4153 48.4525 50.0122C49.1237 49.6092 49.756 49.2265 50.2571 48.3131C50.9023 47.1372 50.7063 46.2109 50.4105 44.8095C50.1739 43.6854 49.878 42.2858 49.9113 40.2465C49.9483 37.8725 49.9964 34.9198 51.8545 32.8121C52.912 31.614 54.0362 31.2443 55.0272 30.9189C55.9701 30.6082 56.7152 30.3642 57.1035 29.4952C57.6304 28.3119 56.9408 27.112 56.0681 25.5904C55.4432 24.4996 54.7332 23.2645 54.258 21.7207C53.2855 18.561 53.6017 14.9242 55.1954 10.9084L55.3674 10.9769C53.7884 14.9519 53.476 18.5499 54.4337 21.6671C54.9033 23.1924 55.6059 24.4182 56.2271 25.4998C57.1256 27.0658 57.8356 28.3027 57.2699 29.571C56.8483 30.5158 56.0293 30.7839 55.0826 31.0945C54.112 31.4125 53.0137 31.7749 51.9895 32.9341C50.1757 34.9901 50.1313 37.7837 50.0925 40.2483C50.0611 42.2673 50.3532 43.6558 50.588 44.7707C50.8801 46.161 51.0927 47.165 50.4142 48.4C49.8891 49.3559 49.2365 49.7515 48.5431 50.1675C47.8942 50.5595 47.223 50.9626 46.6406 51.8851C45.6256 53.4918 45.5054 55.6772 46.2783 58.3858L46.1063 58.4413Z" fill="#252932"/>
<path d="M57.0221 30.5028C58.5419 26.8235 56.7891 22.6081 53.1099 21.0883L50.9874 20.2119C49.4676 23.8912 51.2203 28.1066 54.8996 29.6264L57.0221 30.5028Z" fill="#252932"/>
<path d="M54.0048 16.6732C57.4529 18.6645 61.8607 17.4831 63.8519 14.0349L65 12.0455C61.5519 10.0543 57.1442 11.2357 55.1529 14.6839L54.0048 16.6732Z" fill="#252932"/>
<path d="M50.4548 44.4841C54.4355 44.4841 57.6636 41.2559 57.6636 37.2753V34.979C53.683 34.979 50.4548 38.2071 50.4548 42.1878V44.4841Z" fill="#252932"/>
<path d="M40.7409 41.8328C39.4522 45.5989 41.462 49.6979 45.23 50.9866L47.4024 51.7298C48.6911 47.9636 46.6814 43.8647 42.9133 42.576L40.7409 41.8328Z" fill="#252932"/>
<path d="M32.321 33.0913C32.321 33.0839 32.321 33.0747 32.321 33.0673C32.3137 33.0026 32.3063 32.9379 32.3007 32.8731C32.2434 32.4793 32.2286 32.0855 32.2286 31.6862C32.2286 31.6732 32.2305 31.6603 32.2323 31.6492C32.2323 31.6178 32.2323 31.5863 32.2323 31.5549C32.1805 31.4883 32.1473 31.4033 32.1362 31.3127C32.0585 30.6878 31.9864 30.0647 31.9605 29.4361C31.9568 29.4065 31.9531 29.3769 31.9494 29.3473C31.9439 29.3085 31.9476 29.2752 31.9531 29.2419C31.9531 29.229 31.9513 29.2161 31.9513 29.2031L31.7294 29.7282L31.5482 31.8821L32.3284 33.1338L32.3303 33.1357C32.3284 33.1209 32.3266 33.1061 32.3247 33.0913H32.321Z" fill="white"/>
<path d="M32.9978 21.471C32.9294 21.41 32.885 21.3194 32.8831 21.2011C32.8831 21.1216 32.8776 21.0439 32.8739 20.9644C32.8258 20.9349 32.7814 20.8923 32.7482 20.8332C32.6761 20.7074 32.6224 20.5762 32.5799 20.4431C32.395 20.4837 32.1917 20.4079 32.1491 20.1805C32.1195 20.0252 32.0992 19.8681 32.0826 19.7109C32.0031 19.6499 31.9495 19.5537 31.9495 19.4243C31.9495 19.2709 31.9495 19.1174 31.9495 18.9639C31.9476 18.9566 31.9476 18.951 31.9458 18.9436C31.9273 18.8918 31.9199 18.8364 31.9236 18.7809C31.8718 18.4056 31.857 18.0284 31.857 17.6457C31.857 17.5237 31.9162 17.4275 31.9994 17.3628C32.0493 17.2741 32.1343 17.2186 32.2305 17.1964C32.2305 17.1909 32.2305 17.1835 32.2305 17.1779C32.2305 17.1705 32.2323 17.165 32.2323 17.1576C32.2305 17.1557 32.2305 17.1539 32.2286 17.1521C32.1953 17.1151 32.1713 17.0689 32.1547 17.0115L30.6663 14.5692L30.4204 8.34585C30.3354 8.06112 30.2855 7.76715 30.1949 7.48242H25.4673L24.3154 14.5045L23.317 15.4086L21.7917 18.6589L20.9394 19.8976L20.76 20.3728L20.5548 21.1623L20.137 21.9203L20.1573 22.3418L20.2368 22.4953L20.3034 22.6931L20.5326 22.8152L21.1446 22.8059L22.1541 22.5434L24.162 21.6152L24.467 21.4137L24.7407 23.4937L24.3284 30.2698H30.3871L30.0784 24.6918L30.5813 21.1068L31.319 19.4021L31.7738 19.7423L32.1824 20.5096L33.0107 21.5487C33.0033 21.5191 32.9996 21.4951 32.9978 21.471ZM23.9327 20.3543L22.2447 20.7888L22.9898 19.587L24.5373 17.1021L23.9327 20.3543Z" fill="white"/>
<path d="M28.603 12.7073C27.8948 12.9569 27.0776 12.7388 26.5858 12.173C26.3399 11.8901 26.1661 11.5462 26.046 11.195C25.9258 10.8474 25.8518 10.4813 25.8389 10.1152C25.8241 9.69737 25.9387 9.25919 26.266 8.97816C26.3011 8.94858 26.2512 8.89866 26.2161 8.92824C25.6059 9.45147 25.7243 10.3925 25.9332 11.0785C26.046 11.4501 26.2124 11.8125 26.4527 12.1212C26.6857 12.4208 26.9907 12.6463 27.3494 12.7721C27.758 12.9144 28.2128 12.92 28.6214 12.7757C28.664 12.761 28.6455 12.6926 28.603 12.7073Z" fill="#252932"/>
<path d="M26.3713 14.3453C26.5451 14.9092 26.9445 15.4251 27.4973 15.6562C28.0298 15.8799 28.6436 15.7653 29.0596 15.3659C29.2778 15.157 29.4201 14.8778 29.4331 14.5727C29.4349 14.5265 29.3647 14.5284 29.3628 14.5727C29.3388 15.1126 28.8858 15.5323 28.3829 15.6617C27.8375 15.8022 27.2884 15.56 26.9149 15.1607C26.6931 14.924 26.5304 14.6356 26.4361 14.3268C26.425 14.2843 26.3566 14.3028 26.3713 14.3453Z" fill="#252932"/>
<path d="M26.4582 14.3972C26.1051 14.0699 25.6004 14.0681 25.1474 14.0773C25.103 14.0773 25.1012 14.1494 25.1474 14.1476C25.5782 14.1402 26.07 14.1346 26.4083 14.4471C26.4416 14.4767 26.4915 14.4268 26.4582 14.3972Z" fill="#252932"/>
<path d="M29.4719 14.5434C29.7289 14.3179 30.0839 14.035 30.4407 14.2069C30.4814 14.2273 30.5165 14.1663 30.4758 14.1459C30.0839 13.9573 29.7067 14.2439 29.4201 14.4935C29.3869 14.5231 29.4368 14.573 29.4719 14.5434Z" fill="#252932"/>
<path d="M28.0076 17.4165C28.1315 17.8621 28.5678 18.1117 28.9968 18.1949C29.2556 18.2448 29.5237 18.2503 29.7863 18.2522C29.9804 18.254 30.1893 18.2429 30.3631 18.1468C30.5554 18.0414 30.6183 17.851 30.6331 17.6421C30.646 17.4479 30.6626 17.2187 30.5443 17.0504C30.413 16.86 30.1653 16.8581 29.9564 16.8415C29.6809 16.8212 29.4017 16.8045 29.1262 16.8378C28.6418 16.897 28.1426 17.1373 27.9522 17.6162C27.9355 17.6587 28.0039 17.6772 28.0206 17.6347C28.1703 17.2538 28.5549 17.0227 28.9413 16.9395C29.178 16.8877 29.4239 16.8822 29.6642 16.8933C29.7881 16.8988 29.9101 16.9081 30.034 16.9173C30.1375 16.9247 30.2466 16.9321 30.3428 16.9746C30.5425 17.0634 30.572 17.2889 30.5683 17.4831C30.5646 17.6864 30.5591 17.9212 30.3779 18.0525C30.2318 18.1579 30.0359 18.1764 29.8602 18.1801C29.6402 18.1856 29.4146 18.1782 29.1965 18.1523C28.7342 18.1006 28.2092 17.888 28.0723 17.3962C28.065 17.3555 27.9965 17.374 28.0076 17.4165Z" fill="#252932"/>
<path d="M28.1389 17.864C28.1389 17.8825 28.1389 17.9028 28.1389 17.9213C28.1389 17.9305 28.1426 17.9398 28.15 17.9453C28.1556 17.9509 28.1666 17.9564 28.174 17.9564C28.1833 17.9564 28.1925 17.9527 28.1981 17.9453C28.2036 17.9379 28.2092 17.9305 28.2092 17.9213C28.2092 17.9028 28.2092 17.8825 28.2092 17.864C28.2092 17.8547 28.2055 17.8455 28.1981 17.84C28.1925 17.8344 28.1814 17.8289 28.174 17.8289C28.1648 17.8289 28.1556 17.8326 28.15 17.84C28.1426 17.8455 28.1389 17.8547 28.1389 17.864Z" fill="#252932"/>
<path d="M28.5863 19.9124C29.0726 19.8422 29.5625 20.2341 30.0266 19.9475C30.4056 19.7127 30.535 19.2191 30.6071 18.8086C30.6663 18.4777 30.6922 18.143 30.6904 17.8084C30.6904 17.764 30.6201 17.7622 30.6201 17.8084C30.6219 18.1024 30.6016 18.3945 30.5572 18.6848C30.5221 18.914 30.4759 19.1451 30.389 19.3614C30.3113 19.5519 30.2004 19.7423 30.0285 19.8643C29.8269 20.0086 29.5866 20.0067 29.3536 19.9568C29.0929 19.9013 28.8359 19.8089 28.566 19.8477C28.5235 19.8514 28.542 19.918 28.5863 19.9124Z" fill="#252932"/>
<path d="M21.0336 19.6738C20.9726 19.7755 20.9135 19.8772 20.858 19.9826C20.8044 20.0843 20.7766 20.2118 20.7489 20.3246C20.6842 20.5779 20.6491 20.8479 20.7304 21.103C20.7323 21.1067 20.7341 21.1086 20.736 21.1104C20.7434 21.0438 20.7545 20.9754 20.7637 20.9089C20.7415 20.7332 20.7637 20.5539 20.8062 20.3801C20.834 20.2655 20.8635 20.1453 20.9098 20.0362C20.956 19.9308 21.0225 19.8291 21.0817 19.7311C21.3054 19.3577 21.5587 19.0008 21.8379 18.668C21.8841 18.5756 21.9322 18.485 21.9821 18.3962C21.7843 18.6144 21.5975 18.8418 21.4237 19.0803C21.2869 19.2726 21.1557 19.4704 21.0336 19.6738Z" fill="#252932"/>
<path d="M26.7707 18.8287C26.5488 19.1468 26.2308 19.376 25.8906 19.5535C25.5208 19.7476 25.1252 19.8937 24.7351 20.0361C23.9031 20.3374 23.047 20.5685 22.1836 20.7571C22.1503 20.7645 22.117 20.7701 22.0838 20.7775C22.069 20.8034 22.0486 20.8292 22.0264 20.8514C22.019 20.857 22.0135 20.8625 22.0061 20.8662C22.4646 20.7682 22.9213 20.661 23.3743 20.5371C23.8125 20.4169 24.2488 20.282 24.6777 20.1304C25.0752 19.988 25.4765 19.8401 25.8555 19.6497C26.2326 19.4592 26.5876 19.2133 26.8317 18.862C26.8576 18.8269 26.7966 18.7918 26.7707 18.8287Z" fill="#252932"/>
<path d="M23.5389 21.7263C23.4501 21.7281 23.4834 21.7207 23.402 21.7429C23.3725 21.7503 23.3447 21.7595 23.317 21.7688C23.3077 21.7725 23.2985 21.7762 23.2911 21.7799C23.2874 21.7817 23.2856 21.7817 23.28 21.7854C23.1857 21.8335 23.0637 21.9148 22.999 21.9629C22.9971 21.9647 22.9934 21.9666 22.9916 21.9684C23.0212 21.9574 23.0507 21.9463 23.0785 21.9352C23.2671 21.8631 23.4557 21.7854 23.6424 21.7078C23.6091 21.7189 23.5758 21.7244 23.5389 21.7263Z" fill="#252932"/>
<path d="M28.5141 19.8644C27.3105 20.1195 26.1642 20.5762 25.0345 21.0514C24.6352 21.2196 24.2358 21.3916 23.8346 21.558C23.805 21.6097 23.7607 21.6541 23.7052 21.6837C24.6481 21.2973 25.5781 20.8813 26.534 20.5281C27.1866 20.2878 27.8522 20.0788 28.5326 19.9346C28.577 19.9235 28.5585 19.8551 28.5141 19.8644Z" fill="#252932"/>
<path d="M23.6017 14.9999C22.8659 16.4494 22.13 17.8989 21.396 19.3485C21.4866 19.219 21.5735 19.0878 21.6474 18.9472C21.7676 18.7198 21.8693 18.4832 22.0098 18.2687C22.0246 18.2465 22.0413 18.2262 22.056 18.2058C22.1633 17.9951 22.2705 17.7825 22.3778 17.5717C22.8067 16.7267 23.2338 15.8837 23.6627 15.0387C23.6831 14.9943 23.6221 14.9592 23.6017 14.9999Z" fill="#252932"/>
<path d="M24.0121 21.6261L22.864 22.1419C22.7863 22.1771 22.7105 22.2122 22.6347 22.2473C22.5478 22.312 22.4609 22.3749 22.3722 22.4248C22.1429 22.5524 21.8785 22.6282 21.6067 22.667C21.4755 22.7095 21.3424 22.7465 21.2055 22.7706C21.0133 22.8057 20.8006 22.8297 20.6065 22.7909C20.2571 22.7206 20.1276 22.3527 20.1831 22.0328C20.2182 21.835 20.3051 21.652 20.3957 21.4745C20.4882 21.2914 20.5806 21.1103 20.6731 20.9272C20.6934 20.8884 20.7119 20.8496 20.7322 20.8107C20.7378 20.7738 20.7452 20.7368 20.7507 20.6998C20.7544 20.6665 20.7581 20.6351 20.76 20.6018C20.7156 20.6906 20.6694 20.7793 20.625 20.868C20.5288 21.0585 20.4309 21.2489 20.3347 21.4394C20.246 21.615 20.1591 21.7962 20.1202 21.9885C20.0648 22.2677 20.1258 22.6005 20.3754 22.7724C20.5233 22.8741 20.7119 22.8815 20.8857 22.8759C21.0761 22.8685 21.2647 22.8371 21.4477 22.789C21.8822 22.6763 22.289 22.4784 22.6957 22.2954C23.1469 22.0939 23.598 21.8905 24.0491 21.689C24.0898 21.6686 24.0528 21.6076 24.0121 21.6261Z" fill="#252932"/>
<path d="M23.3762 15.2034C23.2135 15.9171 22.755 16.4995 22.3575 17.0967C22.3316 17.1336 22.3926 17.1706 22.4185 17.1318C22.8197 16.5291 23.28 15.943 23.4446 15.2219C23.4538 15.1775 23.3854 15.159 23.3762 15.2034Z" fill="#252932"/>
<path d="M24.5373 17.102C23.8662 17.8712 23.4557 18.827 22.9269 19.6923C22.7642 19.9586 22.5941 20.2192 22.4185 20.4762C22.3926 20.5132 22.4536 20.5484 22.4795 20.5114C22.7827 20.0676 23.0675 19.6128 23.33 19.1432C23.5759 18.7069 23.807 18.2613 24.0769 17.8397C24.2304 17.5994 24.3987 17.3683 24.5872 17.152C24.6168 17.1187 24.5669 17.0688 24.5373 17.102Z" fill="#252932"/>
<path d="M32.2268 17.1501C32.1916 17.1094 32.1639 17.0614 32.1491 17.0004C32.0863 16.8765 32.0289 16.7508 31.9753 16.625C31.7035 16.1906 31.4281 15.7598 31.1452 15.3327C31.0657 15.2125 30.9843 15.0905 30.903 14.9703C30.8771 14.9333 30.8161 14.9684 30.842 15.0054C31.3208 15.7154 31.7793 16.4383 32.2286 17.1668C32.2286 17.1631 32.2305 17.1612 32.2305 17.1575C32.2286 17.1557 32.2286 17.152 32.2268 17.1501Z" fill="#252932"/>
<path d="M32.9978 21.4711C32.9442 21.4211 32.9054 21.3527 32.8906 21.2677C32.6003 20.8868 32.2934 20.5189 31.9698 20.1658C31.9384 20.1325 31.8885 20.1824 31.9199 20.2157C32.3082 20.6372 32.6687 21.0846 33.0071 21.5469C33.0034 21.521 32.9997 21.4969 32.9978 21.4711Z" fill="#252932"/>
<path d="M32.3359 33.1929C32.3303 33.1596 32.3285 33.1245 32.3248 33.0912H32.3229C32.3229 33.0838 32.3229 33.0745 32.3229 33.0671C32.3211 33.0579 32.3211 33.0487 32.3192 33.0413C32.2823 32.9433 32.2712 32.8379 32.2804 32.7306C32.273 32.6604 32.2675 32.5901 32.2601 32.5217C32.2545 32.5254 32.249 32.5291 32.2471 32.5365C32.1639 32.7732 32.2028 33.045 32.3488 33.2483C32.3433 33.228 32.3377 33.2114 32.3359 33.1929Z" fill="#252932"/>
<path d="M31.282 20.3027C31.11 20.3027 30.9362 20.3027 30.7643 20.3027C30.7181 20.3027 30.7181 20.373 30.7643 20.373C30.9362 20.373 31.11 20.373 31.282 20.373C31.3263 20.373 31.3263 20.3027 31.282 20.3027Z" fill="#252932"/>
<path d="M24.3062 25.4111C24.2637 25.5386 24.2193 25.6644 24.1731 25.7901C24.1675 25.8086 24.1805 25.8289 24.1971 25.8326C24.2174 25.8382 24.2341 25.8252 24.2396 25.8086C24.284 25.6829 24.3302 25.5571 24.3727 25.4296C24.3894 25.387 24.321 25.3686 24.3062 25.4111Z" fill="#252932"/>
<path d="M24.565 23.553C24.6426 24.0226 24.5724 24.4978 24.4485 24.9526C24.4374 24.997 24.504 25.0155 24.5169 24.9711C24.6445 24.5033 24.7129 24.0171 24.6334 23.5345C24.626 23.4883 24.5576 23.5087 24.565 23.553Z" fill="#252932"/>
<path d="M31.5981 21.5193C31.5297 21.5988 31.4262 21.6098 31.3282 21.6246C31.1914 21.645 31.0564 21.6672 30.9196 21.6894C30.6515 21.7337 30.3834 21.7799 30.1153 21.8299C29.5903 21.926 29.0652 22.0258 28.5383 22.1183C28.2776 22.1645 28.015 22.207 27.7543 22.2459C27.4936 22.2847 27.2292 22.3346 26.9649 22.3457C26.4805 22.3679 25.9923 22.3568 25.5153 22.2717C24.9921 22.1775 24.4892 21.9907 24.0566 21.6801C24.0196 21.6542 23.9845 21.7152 24.0214 21.7411C24.8202 22.3143 25.8223 22.4511 26.7837 22.4252C27.3124 22.4104 27.8412 22.3087 28.3626 22.2218C28.9025 22.1294 29.4387 22.0277 29.9767 21.9279C30.2891 21.8705 30.5998 21.8151 30.9122 21.7633C31.0657 21.7374 31.221 21.7134 31.3763 21.6894C31.4761 21.6746 31.5815 21.6505 31.6499 21.571C31.6777 21.5359 31.6277 21.486 31.5981 21.5193Z" fill="#252932"/>
<path d="M24.4503 21.9407C24.6685 22.586 24.7258 23.2775 24.6093 23.9486C24.6019 23.993 24.6703 24.0115 24.6777 23.9671C24.7961 23.283 24.7406 22.5786 24.5187 21.9204C24.5039 21.8797 24.4355 21.8982 24.4503 21.9407Z" fill="#252932"/>
<path d="M24.2174 25.093C24.1674 25.1522 24.1175 25.2132 24.0694 25.2742C24.0584 25.289 24.0547 25.3093 24.0694 25.3241C24.0824 25.3352 24.1064 25.3389 24.1194 25.3241C24.1674 25.2631 24.2174 25.2021 24.2673 25.1429C24.2784 25.1281 24.2821 25.1059 24.2673 25.093C24.2543 25.0819 24.2303 25.0782 24.2174 25.093Z" fill="#252932"/>
<path d="M25.6115 51.9072C25.8814 50.515 26.1828 49.1302 26.4379 47.7362C26.6912 46.3532 26.902 44.961 26.9944 43.5577C27.0887 42.1174 26.8964 40.6716 26.9186 39.2295C26.9408 37.8188 27.2403 36.4432 27.5473 35.0732C27.6989 34.4002 27.8486 33.7254 27.9669 33.045C28.0243 32.7159 28.0816 32.3849 28.0945 32.0503C28.1075 31.7175 28.0927 31.3847 28.076 31.0537C28.0668 30.8781 28.0575 30.7006 28.052 30.5249C28.0501 30.4806 27.9799 30.4787 27.9817 30.5249C28.0076 31.2127 28.0742 31.9005 27.9725 32.5846C27.8708 33.2687 27.7284 33.9454 27.5787 34.6202C27.2847 35.9514 26.9445 37.2937 26.8687 38.66C26.7892 40.0966 26.9556 41.5332 26.9445 42.9697C26.939 43.676 26.8669 44.3841 26.7818 45.0849C26.6968 45.7948 26.5858 46.503 26.4638 47.2074C26.2216 48.5977 25.9239 49.977 25.6485 51.3618C25.6133 51.5375 25.5782 51.7131 25.5449 51.8906C25.5338 51.9331 25.6022 51.9516 25.6115 51.9072Z" fill="#252932"/>
<path d="M24.0436 25.4145C23.9622 25.4996 23.8827 25.5883 23.8069 25.6789C23.794 25.6937 23.7921 25.7141 23.8069 25.7288C23.8199 25.7418 23.8439 25.7436 23.8568 25.7288C23.9326 25.6383 24.0121 25.5514 24.0935 25.4645C24.1231 25.4312 24.075 25.3813 24.0436 25.4145Z" fill="#252932"/>
<path d="M34.8059 51.4915C34.682 50.5837 34.5286 49.6777 34.3862 48.7718C33.8131 45.1591 33.2233 41.5482 32.6335 37.9392C32.0492 34.3579 31.465 30.7748 30.9029 27.1898C30.8345 26.7535 30.7661 26.3153 30.6977 25.879C30.6903 25.8346 30.6237 25.8531 30.6293 25.8974C31.1729 29.3937 31.7386 32.8862 32.3081 36.3769C32.8794 39.8805 33.4544 43.3841 34.0146 46.8896C34.157 47.7752 34.2975 48.659 34.4361 49.5446C34.5748 50.4247 34.756 51.3103 34.8263 52.1996C34.8558 52.5842 34.793 52.9632 34.7375 53.3422C34.6876 53.6805 34.6192 54.0263 34.4491 54.3277C34.3622 54.4793 34.2494 54.6105 34.12 54.727C33.9795 54.8527 33.8537 55.0006 33.7021 55.1134C33.41 55.3316 33.0698 55.4832 32.7 55.4961C32.2933 55.5128 31.9291 55.3871 31.6258 55.1153C31.4927 54.9969 31.3467 54.8583 31.2579 54.703C31.1414 54.5033 31.0508 54.2796 30.9639 54.067C30.657 53.3126 30.4352 52.5102 30.2447 51.7189C30.0432 50.8832 29.9397 50.0346 29.8213 49.1841C29.6938 48.2744 29.5311 47.3666 29.3868 46.4588C28.8303 42.946 28.2942 39.4275 27.9188 35.8888C27.8726 35.4506 27.8282 35.0106 27.7876 34.5705C27.7839 34.5262 27.7136 34.5262 27.7173 34.5705C28.0575 38.1906 28.5826 41.7904 29.1465 45.3828C29.2907 46.3072 29.4386 47.2317 29.5865 48.1561C29.727 49.0362 29.8287 49.9236 29.9822 50.8C30.1338 51.6579 30.3612 52.5065 30.6256 53.3367C30.7458 53.712 30.8826 54.0836 31.049 54.4423C31.1322 54.6235 31.2117 54.7862 31.3467 54.9359C31.4613 55.0635 31.5852 55.1855 31.7238 55.2872C32.2877 55.7032 33.0606 55.6256 33.6245 55.2521C33.7428 55.1726 33.8611 55.0875 33.9499 54.9785C34.0701 54.8305 34.2365 54.727 34.3585 54.5791C34.5619 54.3313 34.6728 54.0281 34.7412 53.7175C34.8115 53.3977 34.8521 53.0667 34.8928 52.7413C34.9446 52.3253 34.8632 51.9038 34.8059 51.4915Z" fill="#252932"/>
<path d="M30.8826 13.813C30.9362 14.0533 30.9658 14.3251 30.8105 14.534C30.7828 14.571 30.8438 14.6061 30.8715 14.5692C31.0379 14.3455 31.0102 14.0515 30.951 13.7945C30.9399 13.7501 30.8734 13.7686 30.8826 13.813Z" fill="#252932"/>
<path d="M30.8253 11.77C30.8253 11.7682 30.8235 11.7663 30.8235 11.7645C30.8069 11.7238 30.7958 11.685 30.781 11.6443C30.7163 11.9179 30.6756 12.1971 30.6682 12.48C30.6589 12.8294 30.7033 13.1789 30.805 13.5154C30.818 13.5579 30.8864 13.5394 30.8734 13.4969C30.7015 12.933 30.707 12.3432 30.8253 11.77Z" fill="#252932"/>
<path d="M31.8736 55.4923C31.8607 56.0359 31.8496 56.5813 31.8367 57.1249C31.833 57.2599 31.8311 57.3948 31.8274 57.5298C31.8256 57.6481 31.8071 57.7776 31.8441 57.8922C31.8995 58.0641 32.0696 58.1418 32.2268 58.1991C32.4154 58.2675 32.591 58.3396 32.7574 58.4524C32.9275 58.567 33.0791 58.7039 33.227 58.8462C33.5136 59.1199 33.7891 59.4175 34.1311 59.6246C34.5175 59.8594 34.9705 59.9463 35.4179 59.9666C35.6583 59.9777 35.8968 59.9722 36.1371 59.9629C36.3498 59.9556 36.592 59.9648 36.7713 59.8298C37.1097 59.5747 37.0764 59.0496 36.9377 58.7002C36.7639 58.2675 36.433 57.9236 36.0946 57.613C35.4142 56.9862 34.5601 56.3854 34.3345 55.4295C34.3086 55.3167 34.292 55.2039 34.2883 55.0874C34.2864 55.0431 34.2162 55.0412 34.218 55.0874C34.2531 55.9897 34.9261 56.6719 35.5621 57.234C35.9153 57.5446 36.2888 57.8478 36.5772 58.2213C36.8434 58.567 37.0616 59.0219 36.9285 59.4656C36.897 59.5673 36.8471 59.6653 36.7695 59.7411C36.6826 59.8243 36.5698 59.8594 36.4533 59.8742C36.2296 59.9038 35.9966 59.9001 35.7729 59.9019C35.3181 59.9056 34.8522 59.8742 34.4288 59.6949C33.6929 59.3842 33.2899 58.6262 32.5873 58.2657C32.4228 58.1825 32.236 58.1473 32.077 58.0549C31.9883 58.0031 31.9199 57.9292 31.9014 57.8256C31.8792 57.7036 31.8977 57.5686 31.8995 57.4448C31.9106 56.9234 31.9236 56.402 31.9346 55.8825C31.9383 55.753 31.9402 55.6218 31.9439 55.4923C31.9457 55.448 31.8755 55.448 31.8736 55.4923Z" fill="#252932"/>
<path d="M22.8955 51.9812C22.9029 52.0977 22.9122 52.2141 22.9195 52.3325C22.9214 52.3509 22.9343 52.3676 22.9547 52.3676C22.9732 52.3676 22.9917 52.3509 22.9898 52.3325C22.9824 52.216 22.9732 52.0995 22.9658 51.9812C22.9639 51.9627 22.951 51.946 22.9306 51.946C22.9122 51.946 22.8937 51.9627 22.8955 51.9812Z" fill="#252932"/>
<path d="M34.902 51.0791C34.8003 48.9437 34.5729 46.8156 34.2771 44.6986C33.9813 42.5724 33.6171 40.4555 33.2454 38.3403C32.9459 36.6375 32.6464 34.9365 32.345 33.2337C32.3413 33.2208 32.3376 33.2078 32.3358 33.1949C32.3339 33.182 32.3339 33.169 32.3321 33.1561C32.2581 32.7382 32.186 32.3222 32.1121 31.9044C31.9235 30.8357 31.7349 29.7652 31.5463 28.6966C31.3614 27.6501 31.2209 26.5833 30.9602 25.5516C30.8974 25.3057 30.8234 25.0617 30.7365 24.8232C30.7217 24.7807 30.6533 24.7991 30.6681 24.8417C31.0194 25.792 31.1433 26.8181 31.3189 27.811L31.868 30.9319C32.2323 33.0008 32.5983 35.0697 32.9626 37.1386C33.3249 39.1964 33.691 41.256 34.0053 43.3212C34.3215 45.3994 34.5859 47.4867 34.7412 49.5852C34.817 50.6058 34.9076 51.6449 34.8669 52.6673C34.8336 53.4974 34.5822 54.7806 33.532 54.8342C33.3212 54.8453 33.1234 54.7861 32.9552 54.6567C32.92 54.629 32.8849 54.69 32.92 54.7177C33.2085 54.9396 33.5967 54.9507 33.924 54.8138C34.2845 54.6641 34.5341 54.3387 34.6839 53.9874C35.0647 53.0907 34.9464 52.0257 34.902 51.0791Z" fill="#252932"/>
<path d="M22.2427 50.6131C22.3315 51.2621 22.3648 51.9129 22.3666 52.5692C22.3666 52.8521 22.3796 53.1424 22.4942 53.4049C22.594 53.6323 22.766 53.8172 23.0026 53.8986C23.1413 53.9466 23.2892 53.967 23.4353 53.9836C23.5906 54.0021 23.7459 54.015 23.9012 54.0187C24.2118 54.0261 24.528 54.0077 24.833 53.9485C25.0919 53.8986 25.3304 53.7932 25.5116 53.5972C25.6854 53.4086 25.776 53.1738 25.8018 52.9205C25.8203 52.743 25.8148 52.5637 25.8148 52.3843C25.8148 52.2068 25.8148 52.0294 25.8148 51.8519C25.8148 51.4784 25.8148 51.1049 25.8148 50.7314C25.8148 50.6852 25.7445 50.6852 25.7445 50.7314C25.7445 51.3471 25.7464 51.9628 25.7464 52.5785C25.7464 52.8577 25.7353 53.1405 25.5855 53.3864C25.4543 53.6027 25.2472 53.7581 25.0068 53.832C24.7221 53.9208 24.4078 53.9411 24.112 53.9466C23.8124 53.9522 23.5092 53.9337 23.2153 53.8764C23.0821 53.8505 22.949 53.8117 22.8362 53.7303C22.7345 53.6564 22.6532 53.5547 22.594 53.4437C22.4609 53.1904 22.4406 52.9002 22.4387 52.6191C22.4332 51.9388 22.4054 51.2658 22.3112 50.5909C22.3038 50.5503 22.2354 50.5687 22.2427 50.6131Z" fill="#252932"/>
<path d="M22.5996 53.9392C22.5553 54.7842 22.0468 55.4923 21.6327 56.1948C21.5273 56.3742 21.4237 56.5554 21.3368 56.744C21.261 56.9085 21.2 57.0842 21.2278 57.2672C21.2795 57.6074 21.568 57.8514 21.8749 57.9698C22.0561 58.0419 22.2502 58.077 22.4425 58.1066C22.6514 58.1399 22.8622 58.1676 23.0748 58.1824C23.4686 58.2083 23.8717 58.1842 24.2414 58.0363C24.5705 57.9051 24.846 57.6887 25.0309 57.3837C25.1289 57.221 25.2028 57.0453 25.2768 56.8697C25.3582 56.6774 25.4395 56.4851 25.4931 56.2836C25.5541 56.058 25.5726 55.8288 25.5467 55.5958C25.5209 55.3536 25.4617 55.117 25.434 54.8748C25.3803 54.394 25.4247 53.9059 25.5615 53.4419C25.5745 53.3975 25.5061 53.379 25.4931 53.4234C25.3803 53.808 25.3267 54.211 25.3434 54.6122C25.3508 54.8119 25.3785 55.0079 25.4136 55.2057C25.4506 55.4146 25.4913 55.6254 25.4894 55.8399C25.4839 56.2466 25.3045 56.6349 25.1437 57.001C24.9921 57.3449 24.7998 57.6481 24.4707 57.8459C24.1527 58.0363 23.7829 58.1121 23.415 58.1214C23.0101 58.1306 22.5904 58.0789 22.1929 57.992C21.8434 57.9143 21.4681 57.7479 21.3295 57.3892C21.2555 57.1988 21.2925 57.0065 21.372 56.8253C21.4515 56.6423 21.5495 56.4685 21.6493 56.2965C22.0782 55.557 22.6181 54.8248 22.6662 53.9374C22.6717 53.893 22.6015 53.893 22.5996 53.9392Z" fill="#252932"/>
<path d="M23.7404 14.9317C23.6147 15.148 23.4761 15.3551 23.3244 15.5547C23.2967 15.5899 23.3577 15.625 23.3855 15.5899C23.5371 15.392 23.6757 15.1831 23.8015 14.9668C23.8237 14.928 23.7626 14.8928 23.7404 14.9317Z" fill="#252932"/>
<path d="M26.3695 14.2087C25.9406 14.0534 25.4691 13.9943 25.018 14.0867C24.9736 14.096 24.9921 14.1644 25.0365 14.1551C25.4747 14.0645 25.9332 14.1255 26.351 14.2772C26.3936 14.292 26.412 14.2235 26.3695 14.2087Z" fill="#252932"/>
<path d="M24.2656 14.4544C24.1251 14.5654 24.016 14.7059 23.905 14.8464C23.8015 14.9777 23.6906 15.1034 23.5371 15.1773C23.4964 15.1977 23.5316 15.2587 23.5722 15.2384C23.7257 15.1626 23.8422 15.0368 23.9476 14.9037C24.0603 14.7613 24.1694 14.6171 24.3136 14.5025C24.3506 14.4766 24.3007 14.4267 24.2656 14.4544Z" fill="#252932"/>
<path d="M31.3412 19.4705C31.3208 19.1525 31.3319 18.8345 31.3356 18.5183C31.3393 18.2521 31.3245 17.9988 31.2432 17.7436C31.1748 17.5291 31.0731 17.3276 30.9843 17.1205C30.8919 16.9042 30.8143 16.6824 30.7532 16.4549C30.6294 15.9927 30.5628 15.5102 30.5351 15.0332C30.5203 14.7725 30.5147 14.5062 30.5351 14.2418L30.4999 14.1993L30.2411 14.1087L29.8269 14.2234C29.8269 14.2234 29.5663 14.3583 29.4331 14.5321C29.3592 14.6283 29.3703 14.7521 29.3795 14.8353C29.4091 15.0646 28.1241 15.7579 28.1241 15.7579L26.8891 15.2606L26.4454 14.436L26.3011 14.2936L25.8759 14.1586L25.2639 14.0754L24.9515 14.1013L24.7166 14.2696L24.6501 14.3528C24.7869 14.4933 24.9108 14.6449 25.018 14.8076C25.2769 15.2014 25.4081 15.3881 25.4026 15.8596C25.397 16.3274 24.8054 16.7286 24.5632 17.1242C24.3228 17.5144 24.2396 17.5014 23.9937 17.8897C23.8606 18.1023 24.125 19.073 24.027 19.3059C24.0196 19.3263 23.9716 19.587 23.9642 19.6073L23.6683 20.4152L25.1253 19.9253L26.2309 19.391L27.1664 18.5035L28.2961 17.8213L28.0798 17.5791L28.2147 17.2074L28.823 16.919L29.9601 16.8562L30.4408 16.9431C30.4408 16.9431 30.707 17.629 30.6035 17.6845C30.4999 17.7399 30.6035 18.8474 30.6035 18.8474L30.3114 19.6091C30.3114 19.6091 29.8621 19.9919 29.7604 20.0214C29.6587 20.0529 28.8507 19.8532 28.7213 19.8698C28.5919 19.8865 28.5235 19.9179 27.9115 20.0788C27.6342 20.1527 27.3846 20.2063 27.1849 20.2766C26.9427 20.3616 26.7615 20.4615 26.5452 20.4837C26.1514 20.5243 25.2362 21.1197 25.0106 21.1104C24.7851 21.1012 24.0252 21.4636 23.9457 21.5468C23.9068 21.5874 24.1953 21.8537 24.5909 22.033C24.9903 22.2142 25.4987 22.3085 25.4987 22.3085C25.4987 22.3085 26.046 22.3936 26.5877 22.3825C27.0555 22.3732 27.5195 22.2678 27.5806 22.2715C27.71 22.2826 29.7955 21.8999 29.7955 21.8999L31.3911 21.6466L31.7036 21.4636C31.6832 21.1289 31.6111 20.8035 31.5316 20.4781C31.4558 20.1435 31.3615 19.8144 31.3412 19.4705Z" fill="#252932"/>
<path d="M31.1784 19.2026C31.1414 19.1749 31.1063 19.2359 31.1433 19.2636C31.3245 19.3968 31.5057 19.5336 31.6536 19.7037C31.7941 19.8645 31.9032 20.0513 31.9771 20.2509C31.9919 20.2935 32.0603 20.275 32.0455 20.2324C31.9697 20.0254 31.8588 19.8349 31.7146 19.6667C31.5593 19.4873 31.367 19.345 31.1784 19.2026Z" fill="#252932"/>
<path d="M30.964 15.0166C30.7994 14.8151 30.6571 14.5988 30.5369 14.3695C30.5166 14.3288 30.4556 14.3658 30.4759 14.4046C30.5998 14.6394 30.7458 14.8613 30.9141 15.0665C30.9437 15.1017 30.9936 15.0517 30.964 15.0166Z" fill="#252932"/>
<path d="M24.6279 14.2846C24.4745 14.3752 24.3118 14.4473 24.1398 14.499C24.0973 14.512 24.1158 14.5804 24.1583 14.5674C24.334 14.5138 24.5041 14.438 24.6631 14.3456C24.7019 14.3215 24.6668 14.2605 24.6279 14.2846Z" fill="#252932"/>
<path d="M25.3952 16.1074C25.3471 16.2313 25.238 16.3163 25.14 16.4014C25.0439 16.4846 24.9607 16.577 24.883 16.6769C24.7277 16.8747 24.589 17.0929 24.3727 17.2315C24.3339 17.2556 24.3709 17.3166 24.4079 17.2926C24.6334 17.1465 24.7795 16.9209 24.9422 16.7139C25.0272 16.6066 25.1197 16.5123 25.2232 16.4236C25.3212 16.3385 25.4155 16.2516 25.4636 16.1278C25.4802 16.0834 25.4118 16.0667 25.3952 16.1074Z" fill="#252932"/>
<path d="M30.4721 23.4363C29.7529 23.6082 29.0245 23.7395 28.2905 23.8356C27.4289 23.9503 26.5581 24.0335 25.715 24.2553C25.2639 24.3737 24.822 24.5327 24.4097 24.7527C24.369 24.7749 24.406 24.834 24.4448 24.8137C25.2047 24.4088 26.057 24.2184 26.902 24.0889C27.7617 23.9577 28.6251 23.8763 29.4811 23.7192C29.8232 23.6563 30.1615 23.5805 30.498 23.4991C30.4906 23.4807 30.4795 23.4603 30.4721 23.4363Z" fill="#252932"/>
<path d="M30.5092 21.7964C30.4038 22.3992 30.2984 23.0019 30.1931 23.6046C30.1857 23.649 30.2541 23.6675 30.2615 23.6231C30.3669 23.0204 30.4722 22.4177 30.5776 21.8149C30.585 21.7706 30.5166 21.7521 30.5092 21.7964Z" fill="#252932"/>
<path d="M34.8633 51.0902L34.6322 47.9249L34.1108 43.2898L33.362 38.9098L32.273 33.0193L31.3356 28.153L30.524 23.4883L25.9258 24.2019L24.2637 24.8916C24.1879 25.0228 24.101 25.1467 24.0141 25.2706C23.7959 25.5794 23.587 25.8937 23.3965 26.2191C23.2745 26.4262 23.1562 26.6425 23.073 26.868C22.9842 27.1065 22.914 27.3506 22.8567 27.5983C22.7457 28.0809 22.6921 28.5745 22.6847 29.0682C22.6699 29.976 22.8215 30.8727 22.8863 31.7768L22.9195 31.958L22.9121 32.2723C22.9177 32.5293 22.9121 32.7881 22.8918 33.0451L22.7457 38.7767L22.0986 47.3795L22.3667 52.7542L22.6662 53.7396L24.0825 54.0429L25.299 53.7822L25.7798 53.1258L25.9092 50.7056L27.0518 43.5671L26.8706 38.7822L27.4031 35.5689L27.7063 34.2025L27.9041 36.0625L28.836 43.1252L29.3314 46.3182L30.0525 50.909L30.5018 52.7912L30.7976 53.784L31.2007 54.6992L31.5224 55.0727L31.9384 55.3814L32.922 55.5645L33.8797 55.1503L34.4528 54.3941L34.9114 53.1369L34.8633 51.0902Z" fill="#252932"/>
<path d="M25.3841 14.3085C25.4081 14.3362 25.4322 14.364 25.4544 14.3917C25.495 14.4398 25.5024 14.51 25.4544 14.5581C25.4118 14.6006 25.3286 14.6062 25.288 14.5581C25.2177 14.473 25.1456 14.3898 25.0735 14.3085H24.5687C24.5318 14.3362 24.4966 14.3677 24.4652 14.3991C24.6205 14.8484 24.6852 15.3309 24.7351 15.8005C24.7999 16.3996 24.8239 17.0744 24.4708 17.5902H25.9369V14.3066H25.3841V14.3085Z" fill="#252932"/>
<path d="M32.7075 21.1125C32.6761 21.0589 32.6372 21.0108 32.5947 20.9646C32.4043 20.7575 32.1584 20.6133 31.9531 20.4229C31.7072 20.1955 31.5408 19.9126 31.4151 19.6094H31.0527V21.5729H32.175C32.3248 21.4971 32.4838 21.4361 32.615 21.3288C32.6576 21.2937 32.7019 21.2623 32.7463 21.2327C32.7426 21.2179 32.7408 21.2031 32.7371 21.1939C32.7315 21.1643 32.7223 21.1384 32.7075 21.1125Z" fill="#252932"/>
<path d="M30.6922 12.4339C30.7107 12.3692 30.7162 12.0216 30.7865 11.661C30.5498 11.0102 30.5739 10.3336 30.6663 9.65132C30.6737 9.59585 30.6811 9.53854 30.6867 9.48122C30.6571 9.30003 30.6534 9.11699 30.6626 8.9321C30.6072 8.82117 30.5535 8.71024 30.5055 8.59376C30.3539 8.22768 30.3113 7.83757 30.1875 7.46225C30.0876 7.16088 29.8842 6.90204 29.6383 6.70236C28.8489 6.06449 27.5842 5.91658 26.6228 6.17542C26.1384 6.3067 25.7428 6.59697 25.4599 7.01112C25.14 7.47888 24.8479 8.02985 24.8276 8.603C24.8054 9.23162 24.8997 9.83806 24.7813 10.45C24.7684 10.6941 24.7314 10.94 24.6686 11.184C24.5003 11.8478 24.1878 12.4746 23.7977 13.0403C23.8088 13.1254 23.7922 13.216 23.7367 13.3139C23.5352 13.6745 23.3041 14.0147 23.0619 14.3493C22.9306 14.5305 22.7938 14.7098 22.6607 14.8892C22.5701 15.0112 22.4887 15.1388 22.4092 15.2701C22.3815 15.3607 22.3538 15.4531 22.3297 15.5455C22.4074 16.0226 22.4333 16.507 22.3279 16.9821C22.2706 17.2428 22.1726 17.498 22.0376 17.7291C21.9969 17.8012 21.9507 17.8714 21.9026 17.9398C21.8416 18.1894 21.7547 18.4261 21.6068 18.6424L21.6789 18.7201L22.3427 17.4684L23.4132 15.2109L24.4689 14.3974L26.6006 14.1755L26.6506 13.2825L26.5914 12.5263L26.0792 11.4799L26.0552 10.1505L26.486 9.11145L27.8246 8.50316L29.0966 9.0116L29.5163 9.45349L29.6199 10.3668L29.4424 11.7812L28.6899 13.2918L29.3869 14.6174L30.7421 14.7635L30.9936 14.0923C30.9862 14.0942 30.6478 12.5799 30.6922 12.4339Z" fill="#252932"/>
<path d="M23.4113 35.5485C23.5407 37.4731 23.5685 39.4034 23.4927 41.3317C23.4557 42.2821 23.3928 43.2305 23.3059 44.1772C23.2616 44.6505 23.2116 45.1238 23.1562 45.5953C23.1303 45.8171 23.1026 46.039 23.073 46.2609C23.0508 46.4365 23.0656 46.3163 23.0711 46.2793C23.0619 46.3478 23.0526 46.418 23.0415 46.4864C23.0249 46.6103 23.0064 46.736 22.9879 46.8599C22.8289 47.9378 22.6366 49.012 22.4129 50.0788C22.3205 50.5207 22.5423 51.0365 23.0175 51.1437C23.452 51.2417 23.9826 51.0125 24.0825 50.5392C24.8886 46.6898 25.2935 42.7498 25.2657 38.8154C25.2583 37.7246 25.2158 36.6356 25.1437 35.5485C25.1141 35.0973 24.7665 34.661 24.2784 34.6832C23.8347 34.7017 23.3799 35.0641 23.4113 35.5485Z" fill="white"/>
<path d="M31.2949 39.3239C31.3116 39.359 31.4318 39.6327 31.3634 39.4607C31.3948 39.5421 31.4262 39.6234 31.4558 39.7066C31.5205 39.897 31.5741 40.0893 31.6204 40.2853C31.6629 40.4702 31.698 40.6551 31.7276 40.8437C31.735 40.8936 31.7424 40.9435 31.7498 40.9934C31.7442 40.9601 31.7294 40.8196 31.7498 40.9897C31.7627 41.0914 31.7738 41.1913 31.7849 41.293C31.8736 42.1453 31.9347 42.9995 32.0049 43.8518C32.1491 45.6027 32.2933 47.3591 32.347 49.1156C32.3617 49.5741 32.3636 50.0344 32.334 50.4948C32.3266 50.615 32.3155 50.737 32.3026 50.8572C32.3007 50.8812 32.2822 51.0495 32.2933 50.9422C32.3063 50.835 32.273 51.0698 32.2748 51.0661C32.236 51.3046 32.1843 51.5413 32.1195 51.7742C32.0012 52.2106 32.2675 52.7357 32.7241 52.8392C33.1808 52.9427 33.6615 52.7024 33.7891 52.2346C34.2698 50.4745 34.072 48.5942 33.9555 46.7989C33.839 45 33.704 43.1991 33.5265 41.4057C33.4249 40.3778 33.2548 39.3831 32.7907 38.4494C32.5892 38.0426 31.9809 37.8966 31.6056 38.1388C31.1896 38.4068 31.0786 38.8894 31.2949 39.3239Z" fill="white"/>
<path d="M29.7345 12.2044C29.9878 11.622 30.1246 11.0359 30.0599 10.398C30.0285 10.093 29.9656 9.79161 29.8732 9.49948C29.7863 9.22215 29.6864 8.91524 29.5108 8.68043C29.2094 8.27553 28.6862 8.19788 28.2184 8.14056C28.0798 8.12392 28.0816 8.34024 28.2184 8.35688C28.5031 8.39201 28.8045 8.43083 29.0615 8.57135C29.3777 8.74514 29.5015 9.08719 29.6143 9.40889C29.8399 10.056 29.9453 10.7623 29.7807 11.4353C29.6254 12.0694 29.2039 12.6241 29.1114 13.2749C29.0615 13.628 29.178 14.5894 29.74 14.4212C29.8732 14.3805 29.8159 14.1716 29.6827 14.2123C29.4424 14.2844 29.3518 13.8185 29.3296 13.6724C29.2982 13.482 29.3185 13.2934 29.3684 13.1066C29.4516 12.7942 29.6051 12.5021 29.7345 12.2044Z" fill="white"/>
<path d="M27.6268 8.10196C27.1239 8.01506 26.6377 8.24247 26.3123 8.62519C25.9332 9.06892 25.789 9.65502 25.6614 10.2115C25.5191 10.8291 25.4192 11.4447 25.606 12.066C25.7909 12.6779 26.1995 13.3583 25.8796 13.9962C25.8168 14.1201 26.0035 14.231 26.0663 14.1053C26.3067 13.6246 26.2032 13.1032 26.0294 12.6188C25.9369 12.3562 25.826 12.0974 25.7631 11.8256C25.6873 11.4946 25.7021 11.1545 25.7539 10.8217C25.8426 10.2707 25.9647 9.66796 26.2143 9.16506C26.4639 8.66402 26.9667 8.20734 27.5658 8.31273C27.7063 8.33492 27.7636 8.12599 27.6268 8.10196Z" fill="white"/>
<path d="M31.9346 55.3794L31.8699 57.9475L32.1435 58.1102L32.4079 58.1916L33.85 59.3286L34.1921 59.6577L34.7541 59.8759L35.7322 59.924L36.701 59.8722L36.8822 59.6448L36.9783 59.4007V58.822L36.4662 58.0363L36.0853 57.6979L35.7266 57.2856L34.9538 56.5701L34.3548 55.642L34.1921 54.6177L33.0014 55.054L31.9346 55.3794Z" fill="#252932"/>
<path d="M22.6662 53.7395L22.5312 54.6399L22.1744 55.4182L21.7418 56.1485L21.5421 56.4166L21.3757 56.8252L21.2278 57.2671L21.4848 57.7293L21.947 57.9475L22.9898 58.1768L24.2415 58.0381L24.7 57.7682L24.9071 57.4372L25.3083 56.7975L25.5264 56.1467L25.4876 55.7215L25.5005 55.4367L25.3748 54.9486L25.4414 53.6304L24.0991 53.7487L23.3928 53.6304L22.6662 53.7395Z" fill="#252932"/>
<path d="M23.7644 14.9776C23.9234 15.5563 24.0824 16.1332 24.2414 16.7119C24.3043 16.943 24.5705 17.1075 24.8053 17.0317C25.0605 16.9485 25.1696 16.7211 25.1252 16.4678C25.0365 15.9465 24.822 15.438 24.5114 15.0109C24.4393 14.9111 24.3598 14.8334 24.2377 14.8001C24.1287 14.7706 23.9826 14.7835 23.8846 14.8464C23.6849 14.9739 23.5777 15.2605 23.7201 15.4731C23.7996 15.5933 23.8698 15.7172 23.9308 15.8466C23.9401 15.8651 23.9475 15.8836 23.9567 15.9021C23.9493 15.8836 23.9419 15.867 23.9345 15.8485C23.9567 15.8743 23.9678 15.9317 23.9789 15.9631C24.0029 16.0297 24.0251 16.0981 24.0436 16.1683C24.1083 16.3994 24.3709 16.5658 24.6075 16.4882C24.8423 16.4124 24.9976 16.172 24.9274 15.9243C24.8368 15.6007 24.6963 15.2883 24.5114 15.0091C24.247 15.1625 23.9844 15.3178 23.7201 15.4713C23.7903 15.5693 23.8569 15.6691 23.916 15.7745C23.9456 15.8263 23.9734 15.8799 24.0011 15.9335C24.014 15.9612 24.027 15.9871 24.0399 16.0149C24.0455 16.0278 24.0529 16.0426 24.0584 16.0555C24.0732 16.087 24.0676 16.074 24.0418 16.0149C24.0713 16.0389 24.0935 16.1461 24.1065 16.1831C24.1268 16.2404 24.1453 16.2977 24.1619 16.3551C24.1952 16.4715 24.2211 16.588 24.2414 16.7082C24.5354 16.6268 24.8312 16.5455 25.1252 16.4641C24.9662 15.8854 24.8072 15.3086 24.6482 14.7299C24.5853 14.4988 24.3191 14.3342 24.0843 14.41C23.8495 14.4895 23.696 14.7299 23.7644 14.9776Z" fill="#252932"/>
<path d="M30.4351 16.1704C30.5091 16.0188 30.5978 15.8745 30.6995 15.7414C30.6755 15.7729 30.6515 15.8024 30.6274 15.8339C30.7531 15.673 30.8955 15.5288 31.0564 15.4049C31.0249 15.429 30.9953 15.453 30.9639 15.477C30.9879 15.4585 31.012 15.4419 31.036 15.4234C31.1359 15.3513 31.2135 15.2718 31.2468 15.1498C31.2764 15.0407 31.2634 14.8946 31.2006 14.7966C31.1377 14.6987 31.0434 14.6118 30.9269 14.5859C30.8049 14.5581 30.6847 14.5692 30.5738 14.6321C30.3113 14.78 30.1023 15.0499 30.0395 15.3458C30.3334 15.3458 30.6293 15.3458 30.9232 15.3458C30.9158 15.3217 30.9121 15.2995 30.9084 15.2755C30.914 15.3162 30.9195 15.3569 30.9251 15.3975C30.9195 15.3495 30.9195 15.3014 30.9251 15.2533C30.9195 15.294 30.914 15.3347 30.9084 15.3754C30.9158 15.3328 30.9269 15.2921 30.9436 15.2515C30.9288 15.2885 30.9121 15.3236 30.8974 15.3606C30.9121 15.3254 30.9306 15.2921 30.9547 15.2607C31.0194 15.1701 31.0305 15.0111 31.0009 14.9076C30.9713 14.8003 30.89 14.6857 30.7901 14.6339C30.6829 14.5785 30.5553 14.5489 30.437 14.5877C30.4 14.6025 30.3649 14.6192 30.3279 14.6339C30.2595 14.6746 30.204 14.7301 30.1633 14.7985C30.1282 14.8466 30.106 14.8983 30.0838 14.9538C30.0598 15.0111 30.0376 15.0647 30.0265 15.1258C29.9988 15.2848 29.9951 15.4327 30.0395 15.5898C30.0672 15.686 30.1245 15.7673 30.204 15.8283C30.2817 15.8875 30.3815 15.9319 30.4814 15.9263C30.5627 15.9226 30.6404 15.9023 30.7125 15.8635C30.8068 15.8135 30.901 15.6934 30.9232 15.5898C30.9325 15.5491 30.9436 15.5103 30.9602 15.4715C30.9454 15.5085 30.9288 15.5436 30.914 15.5806C30.938 15.5251 30.9676 15.4752 31.0046 15.4271C30.9805 15.4585 30.9565 15.4881 30.9325 15.5196C30.9676 15.477 31.0064 15.4382 31.049 15.4031C31.0175 15.4271 30.9879 15.4512 30.9565 15.4752C30.9824 15.4567 31.0083 15.4382 31.036 15.4234C30.8826 15.159 30.7273 14.8965 30.5738 14.6321C30.1837 14.9131 29.8527 15.2737 29.6438 15.7081C29.5902 15.8209 29.5643 15.9374 29.5976 16.0613C29.6272 16.1685 29.7085 16.2831 29.8084 16.3349C29.9156 16.3904 30.0432 16.42 30.1615 16.3811C30.2706 16.346 30.3834 16.2776 30.4351 16.1704Z" fill="#252932"/>
<path d="M33.2973 20.1844C33.105 19.5502 32.8998 18.9197 32.6834 18.293C32.6834 18.2985 32.6816 18.3041 32.6816 18.3078C32.6982 18.3558 32.7019 18.4057 32.7019 18.4557C32.726 18.5426 32.7241 18.6369 32.6945 18.7219C32.6927 18.7885 32.6816 18.855 32.6483 18.9123C32.7962 19.3542 32.9404 19.7979 33.0754 20.2435C33.1198 20.3859 33.3416 20.3267 33.2973 20.1844Z" fill="#252932"/>
<path d="M32.2231 20.6262C31.992 19.9698 31.7054 19.3357 31.3559 18.7348C31.282 18.6072 31.0842 18.7218 31.1581 18.8513C31.5556 19.5391 31.8773 20.2657 32.1177 21.0219C32.1565 21.1457 32.3377 21.1217 32.3433 20.9923C32.347 20.9072 32.3488 20.8203 32.3525 20.7353C32.3543 20.6521 32.2859 20.6169 32.2231 20.6262Z" fill="#252932"/>
<path d="M23.5518 19.2358C23.5518 19.2043 23.5518 19.1729 23.5518 19.1415C23.5518 19.1248 23.5499 19.1119 23.5425 19.0971C23.5388 19.0823 23.5296 19.0712 23.5185 19.0601C23.5074 19.049 23.4963 19.0416 23.4815 19.0361C23.4686 19.0287 23.4538 19.025 23.4371 19.0268C23.4279 19.0287 23.4168 19.0287 23.4075 19.0305C23.3891 19.0361 23.3706 19.0453 23.3576 19.0601C23.3521 19.0675 23.3465 19.0749 23.3391 19.0842C23.328 19.1026 23.3243 19.1211 23.3243 19.1415C23.3243 19.1729 23.3243 19.2043 23.3243 19.2358C23.3243 19.2524 23.3262 19.2653 23.3336 19.2801C23.3373 19.2949 23.3465 19.306 23.3576 19.3171C23.3687 19.3282 23.3798 19.3356 23.3946 19.3412C23.4075 19.3485 23.4223 19.3522 23.439 19.3504C23.4482 19.3485 23.4593 19.3485 23.4686 19.3467C23.487 19.3411 23.5055 19.3319 23.5185 19.3171C23.524 19.3097 23.5296 19.3023 23.537 19.2931C23.5462 19.2764 23.5518 19.2561 23.5518 19.2358Z" fill="white"/>
<path d="M23.2116 17.9675C22.7531 18.9474 22.1781 19.8126 21.4256 20.5929C21.1741 20.8536 21.3054 21.2437 21.6271 21.3583C22.3149 21.6024 23.3613 21.0588 24.0399 20.8702C24.9218 20.6261 25.8129 20.3544 26.5636 19.8126C27.0387 19.4706 26.5802 18.6756 26.1014 19.0213C25.4487 19.4909 24.6981 19.7331 23.9308 19.9476C23.5795 20.0456 23.2264 20.1362 22.8751 20.2342C22.6162 20.3063 22.13 20.5651 21.8711 20.4727C21.9377 20.7278 22.0061 20.983 22.0727 21.2381C22.8751 20.4043 23.5092 19.4743 24.001 18.4278C24.2506 17.899 23.4612 17.4331 23.2116 17.9675Z" fill="white"/>
<path d="M32.8295 22.9815C32.7926 23.6563 32.8277 24.3219 32.9275 24.9894C32.959 25.1927 33.2677 25.1058 33.2363 24.9043C33.1401 24.2664 33.1143 23.6267 33.1494 22.9815C33.1623 22.7744 32.8406 22.7744 32.8295 22.9815Z" fill="#252932"/>
<path d="M32.7981 27.0732C33.0052 27.0732 33.0052 26.7515 32.7981 26.7515C32.5911 26.7515 32.5911 27.0732 32.7981 27.0732Z" fill="#252932"/>
<path d="M27.1368 19.5648C27.1479 19.55 27.1608 19.5371 27.1738 19.5241C27.2089 19.4909 27.1997 19.4983 27.1442 19.5426C27.159 19.5315 27.1738 19.5223 27.1904 19.5131C27.2329 19.4909 27.2218 19.4946 27.1553 19.5241C27.1682 19.526 27.2496 19.502 27.2607 19.4946C27.1849 19.5038 27.1701 19.5075 27.2218 19.5038C27.2403 19.5038 27.2588 19.5057 27.2773 19.5075C27.5177 19.5278 27.7469 19.2819 27.7358 19.049C27.7247 18.7828 27.5343 18.6127 27.2773 18.5905C26.9926 18.5664 26.6746 18.6977 26.4915 18.9177C26.412 19.0139 26.3566 19.1137 26.3566 19.2413C26.3566 19.3541 26.4065 19.4872 26.4915 19.5648C26.6579 19.7201 26.9722 19.7608 27.1368 19.5648Z" fill="white"/>
<path d="M23.8254 18.8032C23.8735 18.5204 23.9216 18.2375 23.9715 17.9528C24.014 17.7087 23.9068 17.4591 23.6516 17.3889C23.4316 17.3278 23.1303 17.4628 23.0877 17.7087C23.0397 17.9916 22.9916 18.2745 22.9417 18.5592C22.8992 18.8032 23.0064 19.0528 23.2615 19.1231C23.4815 19.1841 23.7829 19.0491 23.8254 18.8032Z" fill="white"/>
<path d="M24.1675 18.0193C24.1675 17.9916 24.1694 17.9657 24.1712 17.9379C24.1638 17.9916 24.1657 17.9934 24.1749 17.9398C24.1805 17.9139 24.1897 17.888 24.1971 17.8621C24.1786 17.9028 24.1749 17.9065 24.1897 17.8769C24.2119 17.8344 24.2341 17.7937 24.2618 17.7531C24.2082 17.8289 24.3117 17.7087 24.3265 17.6939C24.504 17.5312 24.504 17.2076 24.3265 17.0449C24.1361 16.8711 23.868 16.873 23.6776 17.0449C23.4039 17.2945 23.256 17.6514 23.2486 18.0174C23.2431 18.2578 23.4631 18.4871 23.7072 18.476C23.9623 18.4667 24.162 18.2763 24.1675 18.0193Z" fill="white"/>
<path d="M31.9643 18.6073C31.9643 18.6018 31.9624 18.5981 31.9624 18.5925C31.9624 18.5666 31.9624 18.5389 31.9661 18.513C31.9643 18.4964 31.9606 18.4779 31.9606 18.4612C31.8922 18.3577 31.8718 18.2227 31.9107 18.1044C31.9107 18.0989 31.9088 18.0933 31.9088 18.0878C31.8496 17.9066 31.9125 17.6792 32.1011 17.596C32.0623 17.5017 32.0216 17.4092 31.9754 17.3186C31.7073 16.7936 30.916 17.2558 31.184 17.7809C31.3874 18.1821 31.4466 18.6036 31.4004 19.0473C31.3745 19.2932 31.6296 19.5059 31.8589 19.5059C32.0771 19.5059 32.2231 19.3672 32.286 19.1823C31.9569 19.1786 31.8496 18.8347 31.9643 18.6073Z" fill="white"/>
<path d="M32.6723 22.4898C32.5374 23.368 32.3673 24.2388 32.162 25.1041C32.0271 25.6772 32.9108 25.9231 33.0458 25.3481C33.251 24.4829 33.4193 23.6121 33.5561 22.7338C33.6449 22.157 32.7611 21.9074 32.6723 22.4898Z" fill="white"/>
<path d="M32.7407 22.9814C32.7 23.917 32.6612 24.8525 32.6205 25.788C32.5946 26.3778 33.5117 26.376 33.5376 25.788C33.5783 24.8525 33.6171 23.917 33.6578 22.9814C33.6836 22.3917 32.7666 22.3935 32.7407 22.9814Z" fill="white"/>
<path d="M32.7981 23.8248C32.861 24.7917 32.8129 25.7439 32.6336 26.6979C32.5245 27.2748 33.4083 27.5207 33.5173 26.942C33.7115 25.9084 33.7836 24.8749 33.7152 23.8266C33.6763 23.2387 32.7593 23.235 32.7981 23.8248Z" fill="white"/>
<path d="M32.6206 25.3205C32.6206 25.9454 32.6206 26.5685 32.6206 27.1934C32.6206 27.7832 33.5376 27.7851 33.5376 27.1934C33.5376 26.5685 33.5376 25.9454 33.5376 25.3205C33.5376 24.7307 32.6206 24.7307 32.6206 25.3205Z" fill="white"/>
<path d="M28.5031 18.1337C28.5031 18.6939 28.9579 19.1487 29.5181 19.1487C30.0783 19.1487 30.5331 18.6939 30.5331 18.1337C30.5331 17.5735 30.0783 17.1187 29.5181 17.1187C28.9579 17.1187 28.5031 17.5735 28.5031 18.1337ZM28.7249 18.1337C28.7249 17.6955 29.0799 17.3424 29.5162 17.3424C29.9544 17.3424 30.3076 17.6974 30.3076 18.1337C30.3076 18.57 29.9526 18.925 29.5162 18.925C29.0799 18.925 28.7249 18.5719 28.7249 18.1337Z" fill="#252932"/>
<path d="M30.0933 17.0115V19.4261C30.0933 19.6646 30.2874 19.8587 30.5259 19.8587H32.3655C32.604 19.8587 32.7982 19.6646 32.7982 19.4261V17.0115H30.0933ZM32.6466 18.9214C32.604 19.0656 32.4876 19.1839 32.2916 19.1839C31.9569 19.1839 31.8497 18.8363 31.9643 18.6071C31.9643 18.6034 31.9625 18.5978 31.9625 18.5941C31.9625 18.5682 31.9625 18.5405 31.9662 18.5146C31.9643 18.498 31.9606 18.4795 31.9606 18.4628C31.8922 18.3593 31.8719 18.2243 31.9107 18.106C31.9107 18.1005 31.9089 18.0968 31.9089 18.0912C31.8349 17.8657 31.9514 17.568 32.2601 17.568C32.495 17.568 32.6188 17.7399 32.6299 17.923C32.6503 17.9858 32.6521 18.0542 32.6429 18.1227C32.6706 18.1818 32.6835 18.2465 32.6817 18.3131C32.6983 18.3612 32.702 18.4111 32.702 18.4628C32.7261 18.5497 32.7242 18.644 32.6946 18.7272C32.6928 18.7919 32.6798 18.8622 32.6466 18.9214Z" fill="white"/>
<path d="M30.0654 16.9839V18.5055C30.0654 19.2673 30.6848 19.8866 31.4465 19.8866C32.2083 19.8866 32.8277 19.2673 32.8277 18.5055V16.9839H30.0654ZM32.7722 18.5055C32.7722 19.2358 32.1769 19.8312 31.4465 19.8312C30.7162 19.8312 30.1209 19.2358 30.1209 18.5055V17.0375H32.7722V18.5055V18.5055Z" fill="#252932"/>
<path d="M31.4447 19.9329C30.657 19.9329 30.0173 19.2932 30.0173 18.5056V16.9377H32.8702V18.5056C32.872 19.2932 32.2323 19.9329 31.4447 19.9329ZM30.1652 17.0838V18.5056C30.1652 19.2119 30.7384 19.785 31.4447 19.785C32.1509 19.785 32.7241 19.2119 32.7241 18.5056V17.0838H30.1652Z" fill="#252932"/>
<path d="M31.4465 16.5715C30.6996 16.5715 30.0931 16.8174 30.0931 17.1206C30.0931 17.4239 30.6996 17.6698 31.4465 17.6698C31.6795 17.6698 31.8995 17.6457 32.0899 17.6032C32.1288 17.5847 32.175 17.5736 32.2249 17.5681C32.5725 17.4682 32.7999 17.3055 32.7999 17.1188C32.7981 16.8174 32.1935 16.5715 31.4465 16.5715Z" fill="#252932"/>
<path d="M15.9108 6.07519C16.2866 5.651 16.385 5.12432 16.1305 4.89882C15.876 4.67331 15.365 4.83437 14.9891 5.25856C14.6133 5.68274 14.5149 6.20942 14.7694 6.43493C15.0239 6.66044 15.5349 6.49938 15.9108 6.07519Z" fill="#252932"/>
<path d="M16.1452 0H15.8679V5.14912H16.1452V0Z" fill="#252932"/>
<path d="M6.6022 12.7964C6.97804 12.3722 7.0764 11.8455 6.82189 11.62C6.56738 11.3945 6.05637 11.5556 5.68053 11.9797C5.30468 12.4039 5.20632 12.9306 5.46083 13.1561C5.71535 13.3816 6.22635 13.2206 6.6022 12.7964Z" fill="#252932"/>
<path d="M6.83605 6.7207H6.55872V11.8698H6.83605V6.7207Z" fill="#252932"/>
<path d="M10.7542 11.1309C11.13 10.7067 11.2284 10.18 10.9739 9.95448C10.7194 9.72897 10.2083 9.89004 9.8325 10.3142C9.45666 10.7384 9.3583 11.2651 9.61281 11.4906C9.86732 11.7161 10.3783 11.555 10.7542 11.1309Z" fill="#252932"/>
<path d="M10.9886 5.05469H10.7113V10.2038H10.9886V5.05469Z" fill="#252932"/>
<path d="M6.67704 6.96837L6.55872 6.71877L10.9868 4.80518V5.05478L6.67704 6.96837Z" fill="#252932"/>
<path d="M6.67704 7.43247L6.55872 7.18103L10.9868 5.26929V5.51888L6.67704 7.43247Z" fill="#252932"/>
<path d="M8.7466 19.6941C9.12245 19.2699 9.22081 18.7432 8.9663 18.5177C8.71179 18.2922 8.20078 18.4533 7.82494 18.8775C7.44909 19.3016 7.35073 19.8283 7.60524 20.0538C7.85976 20.2793 8.37076 20.1183 8.7466 19.6941Z" fill="#252932"/>
<path d="M10.0735 17.5682C10.0366 17.3334 10.0606 17.0856 10.007 16.8545C9.88495 16.335 9.61871 15.8802 9.3044 15.4568C9.06035 15.1295 8.92723 14.7671 8.90874 14.3641C8.90504 14.2753 8.8921 14.1977 8.79041 14.1958C8.67208 14.194 8.70536 14.2957 8.70536 14.3622C8.70351 15.0204 8.70351 15.6768 8.70351 16.335C8.70351 17.0246 8.70351 17.7124 8.70351 18.4002C8.77192 18.4205 8.84033 18.4446 8.90874 18.4704C8.90689 17.6495 8.90319 16.8286 8.90134 16.0077C8.90134 15.9227 8.90134 15.8376 8.90134 15.7008C9.00488 15.7766 9.07144 15.8154 9.12691 15.8672C9.80545 16.4921 10.0051 17.4332 9.6372 18.2782C9.59837 18.3669 9.5429 18.4612 9.67417 18.5148C9.79435 18.5629 9.86831 18.5074 9.91083 18.3854C10.0051 18.1191 10.1216 17.864 10.0735 17.5682Z" fill="#252932"/>
<path d="M32.2601 17.5663C32.2712 17.5663 32.2804 17.5681 32.2915 17.57C31.9199 16.7287 31.5316 15.893 31.1544 15.0536C31.0934 14.9187 30.8956 15.0351 30.9566 15.1701C31.3245 15.9873 31.6943 16.8045 32.0585 17.6217C32.114 17.5884 32.1806 17.5663 32.2601 17.5663Z" fill="#252932"/>
<path d="M33.4322 20.8926C33.3785 20.5949 33.312 20.2991 33.2306 20.007C33.0938 19.5133 32.9145 19.0326 32.7185 18.5593C32.7203 18.6148 32.7129 18.6721 32.6945 18.7239C32.6926 18.7941 32.6778 18.8662 32.6427 18.9254C32.639 18.9365 32.6371 18.9494 32.6316 18.9605C32.7277 19.2027 32.8202 19.4449 32.8997 19.6945C32.9829 19.9552 33.055 20.2196 33.116 20.4859C33.1678 20.7133 33.3231 21.133 33.2269 21.3548C33.1678 21.4879 33.3656 21.6063 33.4248 21.4713C33.5098 21.279 33.4691 21.0941 33.4322 20.8926Z" fill="#252932"/>
<path d="M31.0102 27.6332C30.9714 27.7775 31.184 27.8329 31.2321 27.6943C31.38 27.2579 31.5279 26.8216 31.6758 26.3853C31.7239 26.2447 31.502 26.1856 31.4539 26.3242C31.306 26.7606 31.1581 27.1969 31.0102 27.6332C31.0842 27.6536 31.1581 27.6739 31.2321 27.6943C31.5242 26.6164 32.2175 25.6919 32.6428 24.6676C33.0736 23.6286 33.3453 22.534 33.4637 21.4155C33.4785 21.2694 33.2492 21.2694 33.2344 21.4155C33.1142 22.5562 32.824 23.6803 32.3691 24.7324" fill="#252932"/>
<path d="M31.8422 22.0441C31.8422 21.8962 31.613 21.8962 31.613 22.0441C31.613 23.3142 31.2118 24.5511 30.4722 25.5847C30.5425 25.6142 30.6127 25.6438 30.6811 25.6734C31.086 24.4125 31.4891 23.1497 31.894 21.8888C31.9384 21.7482 31.7183 21.6872 31.6721 21.8277C31.2672 23.0887 30.8642 24.3515 30.4593 25.6124C30.4167 25.7437 30.5979 25.801 30.6682 25.7011" fill="#252932"/>
<path d="M31.6943 26.3889C31.796 27.0564 31.9439 27.7146 32.1399 28.3599C32.188 28.5189 32.2398 28.676 32.2934 28.8332C32.3285 28.933 32.4302 29.1179 32.3877 29.227C32.3451 29.3379 32.1029 29.3102 32.0068 29.2917C31.8718 29.264 31.7572 29.1992 31.6869 29.0791C31.6204 29.1179 31.5557 29.1567 31.4891 29.1956C31.6185 29.4063 31.8811 29.4267 32.0881 29.3157C32.3525 29.1752 32.4024 28.8683 32.3618 28.5965C32.3063 28.2138 32.1566 27.8329 32.0419 27.4631C31.9181 27.0619 31.7886 26.6607 31.6574 26.2632C31.6111 26.1246 31.3893 26.1837 31.4355 26.3242C31.6278 26.9029 31.8108 27.4853 31.9865 28.0696C32.0623 28.3247 32.1954 28.6279 32.1325 28.8979C32.0955 29.0606 31.8164 29.2917 31.6869 29.0791C31.6093 28.9533 31.4133 29.0661 31.4891 29.1956C31.6481 29.4673 31.9698 29.5616 32.2693 29.5265C32.628 29.4858 32.665 29.2066 32.5615 28.9108C32.2675 28.0696 32.0475 27.208 31.9125 26.3261C31.8922 26.1819 31.6721 26.2447 31.6943 26.3889Z" fill="#252932"/>
<path d="M29.3943 19.5018C30.3243 19.5018 30.3262 18.0579 29.3943 18.0579C28.4644 18.0579 28.4625 19.5018 29.3943 19.5018Z" fill="white"/>
<path d="M29.006 19.4095C29.936 19.4095 29.9378 17.9656 29.006 17.9656C28.076 17.9656 28.076 19.4095 29.006 19.4095Z" fill="white"/>
<path d="M29.3572 19.2081C30.2872 19.2081 30.2891 17.7642 29.3572 17.7642C28.4273 17.7623 28.4254 19.2081 29.3572 19.2081Z" fill="white"/>
<path d="M28.9506 19.2081C29.8806 19.2081 29.8824 17.7642 28.9506 17.7642C28.0224 17.7623 28.0206 19.2081 28.9506 19.2081Z" fill="white"/>
<path d="M28.7859 19.1896C29.7159 19.1896 29.7178 17.7456 28.7859 17.7456C27.856 17.7438 27.8541 19.1896 28.7859 19.1896Z" fill="white"/>
<path d="M27.9373 17.9525C28.8673 17.9525 28.8692 16.5085 27.9373 16.5085C27.0073 16.5085 27.0055 17.9525 27.9373 17.9525Z" fill="#252932"/>
<path d="M28.0483 17.8231C28.9783 17.8231 28.9801 16.3792 28.0483 16.3792C27.1183 16.3792 27.1164 17.8231 28.0483 17.8231Z" fill="#252932"/>
<path d="M28.6566 17.1781C29.5865 17.1781 29.5884 15.7341 28.6566 15.7341C27.7266 15.7341 27.7247 17.1781 28.6566 17.1781Z" fill="#252932"/>
<path d="M29.154 17.1041C30.084 17.1041 30.0858 15.6602 29.154 15.6602C28.224 15.6602 28.2222 17.1041 29.154 17.1041Z" fill="#252932"/>
<path d="M29.6143 17.0504C30.5443 17.0504 30.5461 15.6064 29.6143 15.6064C28.6861 15.6046 28.6843 17.0504 29.6143 17.0504Z" fill="#252932"/>
<path d="M29.8547 17.0504C30.7847 17.0504 30.7865 15.6064 29.8547 15.6064C28.9247 15.6046 28.9228 17.0504 29.8547 17.0504Z" fill="#252932"/>
<path d="M28.5826 17.2889C29.5126 17.2889 29.5144 15.845 28.5826 15.845C27.6526 15.845 27.6507 17.2889 28.5826 17.2889Z" fill="#252932"/>
<path d="M28.3978 17.4555C29.3278 17.4555 29.3296 16.0115 28.3978 16.0115C27.4678 16.0115 27.4678 17.4555 28.3978 17.4555Z" fill="#252932"/>
</svg>
