<svg width="62" height="73" viewBox="0 0 62 73" fill="none" xmlns="http://www.w3.org/2000/svg">
<circle cx="30" cy="30" r="30" fill="#E6E4E7"/>
<path d="M6.176 71H5.48L4.776 69.104C4.69067 68.8693 4.57067 68.712 4.416 68.632C4.26667 68.552 4.05333 68.512 3.776 68.512H2.352V71H1.704V65.304H3.968C4.58133 65.304 5.05067 65.44 5.376 65.712C5.70667 65.984 5.872 66.376 5.872 66.888C5.872 67.2613 5.77333 67.576 5.576 67.832C5.384 68.0827 5.104 68.2613 4.736 68.368C4.90133 68.3947 5.04267 68.4667 5.16 68.584C5.27733 68.696 5.376 68.8587 5.456 69.072L6.176 71ZM3.912 67.968C4.78667 67.968 5.224 67.6107 5.224 66.896C5.224 66.544 5.11733 66.2827 4.904 66.112C4.69067 65.936 4.36 65.848 3.912 65.848H2.352V67.968H3.912ZM11.732 69.536H8.756L8.124 71H7.444L9.948 65.304H10.524L13.028 71H12.356L11.732 69.536ZM11.5 68.992L10.244 66.064L8.988 68.992H11.5ZM14.679 65.304H16.591C17.503 65.304 18.207 65.552 18.703 66.048C19.2043 66.5387 19.455 67.2373 19.455 68.144C19.455 69.056 19.2043 69.76 18.703 70.256C18.207 70.752 17.503 71 16.591 71H14.679V65.304ZM16.551 70.44C17.287 70.44 17.839 70.248 18.207 69.864C18.5803 69.48 18.767 68.9067 18.767 68.144C18.767 66.624 18.0283 65.864 16.551 65.864H15.335V70.44H16.551ZM23.8317 71.064C23.3037 71.064 22.8451 70.9467 22.4557 70.712C22.0664 70.4773 21.7651 70.1413 21.5517 69.704C21.3437 69.2613 21.2397 68.744 21.2397 68.152C21.2397 67.5547 21.3437 67.0373 21.5517 66.6C21.7597 66.1627 22.0584 65.8267 22.4477 65.592C22.8371 65.3573 23.2984 65.24 23.8317 65.24C24.3651 65.24 24.8264 65.3573 25.2157 65.592C25.6051 65.8267 25.9037 66.1627 26.1117 66.6C26.3197 67.0373 26.4237 67.552 26.4237 68.144C26.4237 68.7413 26.3171 69.2587 26.1037 69.696C25.8957 70.1333 25.5971 70.472 25.2077 70.712C24.8184 70.9467 24.3597 71.064 23.8317 71.064ZM23.8317 70.504C24.4344 70.504 24.9037 70.2987 25.2397 69.888C25.5757 69.4773 25.7437 68.896 25.7437 68.144C25.7437 67.392 25.5757 66.8133 25.2397 66.408C24.9091 66.0027 24.4397 65.8 23.8317 65.8C23.2237 65.8 22.7517 66.0053 22.4157 66.416C22.0797 66.8213 21.9117 67.3973 21.9117 68.144C21.9117 68.896 22.0797 69.4773 22.4157 69.888C22.7517 70.2987 23.2237 70.504 23.8317 70.504ZM32.0703 70.448V71H27.9663V70.512L31.2303 65.856H27.9663V65.304H31.9903V65.784L28.7263 70.448H32.0703ZM38.4439 65.304V71H37.9319L34.4919 66.416V71H33.8759V65.304H34.3799L37.8199 69.888V65.304H38.4439ZM44.3726 69.536H41.3966L40.7646 71H40.0846L42.5886 65.304H43.1646L45.6686 71H44.9966L44.3726 69.536ZM44.1406 68.992L42.8846 66.064L41.6286 68.992H44.1406ZM47.3196 65.304H47.9756V70.44H50.8316V71H47.3196V65.304ZM56.0898 69.536H53.1138L52.4818 71H51.8018L54.3058 65.304H54.8818L57.3858 71H56.7138L56.0898 69.536ZM55.8578 68.992L54.6018 66.064L53.3458 68.992H55.8578Z" fill="black"/>
<path d="M31.012 51.6314L30.939 52.4706L31.1795 53.4719L32.0721 53.9137L33.2409 53.9512L35.6801 53.8104L36.9237 53.9173L37.7291 53.8104L38.2279 53.3596L37.8003 52.9819L36.5781 52.5436L34.9977 52.189L33.4494 51.6153L32.7581 51.1165L31.012 51.6314Z" fill="white"/>
<path d="M25.7186 51.7205L25.7934 52.6737L25.0291 53.4202L25.2143 54.1685L26.1765 54.5659L27.5609 54.867L29.1733 55.5654L30.9301 55.9022L32.188 55.8024L32.4231 55.3623L31.7693 54.8599L30.2209 53.9601L29.323 52.9962L29.2054 51.9182L25.7186 51.7205Z" fill="white"/>
<path d="M34.13 22.3389L27.7836 22.6916L28.2629 20.8048L32.3786 20.3772L32.865 21.3856L34.13 22.3389Z" fill="white"/>
<path d="M23.9922 12.3433L23.7321 14.7147L24.7334 16.3788L26.401 17.2857L28.5427 18.606L31.1172 19.21L34.025 20.0581L36.5033 20.7013L38.3812 21.2447L38.775 21.6598L41.3977 21.5583L42.3526 20.377L41.7451 18.4688L39.9064 18.9356L38.2743 19.3507L36.2717 18.9356L33.6882 18.0821L32.2842 17.0719L29.2037 14.8697L27.4327 13.7686L26.0518 12.8225L23.9922 12.3433Z" fill="white"/>
<path d="M33.1073 4.52368H27.3489V14.3035H33.1073V4.52368Z" fill="white"/>
<path d="M35.7301 15.6554C35.1492 16.3823 34.5061 17.054 33.8914 17.7507C33.7969 17.8576 33.9537 18.0161 34.0482 17.9075C34.6628 17.2108 35.3078 16.5391 35.8869 15.8122C35.9759 15.7035 35.8192 15.5449 35.7301 15.6554Z" fill="#252932"/>
<path d="M24.5552 12.5943C25.0202 12.042 25.642 11.8032 26.3565 11.8513C27.0318 11.8977 27.6821 12.14 28.3164 12.3609C29.0273 12.6103 29.7507 12.842 30.4812 13.0237C31.0638 13.1698 31.8976 13.4068 32.4161 12.9756C32.8722 12.5961 32.9328 11.9066 32.9346 11.3542C32.8615 11.3649 32.7885 11.3738 32.7154 11.3845C33.0629 12.2202 33.6312 12.9774 34.3778 13.4994C34.9693 13.911 35.8851 14.2459 35.9421 15.0798C35.9528 15.2223 36.1755 15.2223 36.1648 15.0798C36.1096 14.2851 35.4147 13.8843 34.8036 13.5083C33.9644 12.9916 33.3087 12.238 32.9292 11.3257C32.8847 11.2171 32.7119 11.2188 32.7101 11.356C32.7083 11.8496 32.6691 12.5302 32.2237 12.8438C31.9226 13.0558 31.511 12.9952 31.1689 12.9417C30.7555 12.8776 30.3511 12.7654 29.9502 12.646C29.2928 12.45 28.6424 12.2344 27.9939 12.0135C27.4113 11.8157 26.8037 11.6268 26.1819 11.6197C25.4746 11.6126 24.8527 11.8923 24.3984 12.434C24.3058 12.5462 24.4625 12.7048 24.5552 12.5943Z" fill="#252932"/>
<path d="M31.0869 20.211C30.9925 20.4943 30.6914 20.6066 30.4277 20.6796C30.1105 20.7687 29.7845 20.8346 29.4638 20.9095C28.9239 21.0378 28.2593 21.2177 27.7337 20.9415C27.2046 20.6636 27.1084 20.0008 26.8179 19.5304C26.5293 19.0618 26.1053 18.6895 25.6082 18.4543C25.4799 18.3937 25.3658 18.5861 25.4959 18.6467C26.1249 18.9442 26.5649 19.4413 26.8429 20.0739C27.087 20.6297 27.356 21.1429 28.0046 21.2676C28.6388 21.3888 29.2963 21.1785 29.9092 21.0342C30.4081 20.9166 31.1101 20.8364 31.2989 20.2716C31.347 20.1326 31.1314 20.0756 31.0869 20.211Z" fill="#252932"/>
<path d="M24.3859 12.252C24.2612 12.6191 24.0973 12.9719 23.8977 13.305C23.8247 13.428 24.0171 13.5402 24.0902 13.4173C24.2986 13.0681 24.4697 12.6975 24.6015 12.3108C24.6211 12.2538 24.5801 12.1897 24.5231 12.1737C24.4607 12.1576 24.4055 12.195 24.3859 12.252Z" fill="#252932"/>
<path d="M25.2732 46.7443C24.9364 47.5282 24.6442 48.3442 24.5195 49.1905C24.409 49.9442 24.418 50.7976 24.8759 51.4444C25.3819 52.1624 26.3654 52.4689 27.201 52.5598C28.1613 52.6649 29.168 52.4154 29.8842 51.7455C30.3225 51.3357 30.6005 50.7745 30.8463 50.2346C31.0904 49.6966 31.2829 49.1353 31.4361 48.5652C31.7515 47.3839 31.9029 46.1706 32.1114 44.9679C32.3305 43.7118 32.6744 42.5056 33.102 41.3029C33.3158 40.7007 33.5278 40.0949 33.6365 39.4624C33.7559 38.7658 33.7683 38.0389 33.8254 37.3351C34.0801 34.1868 34.2815 31.0261 34.13 27.8671C34.1229 27.7246 33.9002 27.7228 33.9073 27.8671C34.0356 30.5307 33.9127 33.1962 33.7167 35.8545C33.6668 36.5244 33.6133 37.1925 33.5599 37.8607C33.5046 38.5342 33.485 39.2183 33.3211 39.8758C33.0289 41.0606 32.5176 42.1795 32.2165 43.3626C31.641 45.6271 31.6196 48.0413 30.6201 50.1901C30.3795 50.7086 30.1105 51.2413 29.6793 51.6279C29.3159 51.954 28.8669 52.1678 28.3929 52.2765C27.4754 52.4849 26.3903 52.3068 25.5868 51.8132C24.7975 51.3268 24.6246 50.3968 24.6995 49.5362C24.7814 48.6115 25.0986 47.7064 25.4638 46.8583C25.5226 46.7265 25.3302 46.6124 25.2732 46.7443Z" fill="#252932"/>
<path d="M27.8638 22.0624C26.8642 22.6664 26.2104 23.7336 26.05 24.8846C25.8701 26.1888 26.4634 27.3202 27.2277 28.3287C27.3132 28.4409 27.5074 28.3304 27.4201 28.2164C26.7164 27.2846 26.132 26.2441 26.2549 25.0361C26.3707 23.91 27.0032 22.8428 27.976 22.2548C28.0989 22.18 27.9867 21.9876 27.8638 22.0624Z" fill="#252932"/>
<path d="M33.8985 22.2245C36.3465 25.7078 36.6031 30.1424 36.6245 34.2582C36.637 36.733 36.5906 39.222 36.1024 41.6558C35.8619 42.8495 35.5412 44.0255 35.2312 45.2032C34.9265 46.3613 34.6397 47.5265 34.3136 48.6793C34.0321 49.677 33.6152 50.8565 32.6299 51.3643C31.862 51.7599 30.7146 51.7242 30.2602 50.885C30.1925 50.7585 30.0001 50.8708 30.0678 50.9973C30.442 51.6886 31.2509 51.9131 31.9903 51.8008C32.8989 51.6619 33.5564 51.0187 33.9715 50.2276C34.4864 49.2441 34.7002 48.1091 34.98 47.0455C35.306 45.8054 35.641 44.5671 35.9528 43.3217C36.2646 42.0745 36.514 40.8166 36.653 39.5374C36.7937 38.2385 36.8383 36.9307 36.849 35.6247C36.8686 33.3851 36.8454 31.1313 36.539 28.9095C36.2076 26.5024 35.502 24.1185 34.0927 22.1123C34.0089 21.9965 33.8147 22.1069 33.8985 22.2245Z" fill="#252932"/>
<path d="M30.8802 51.813C30.7679 52.6005 30.743 53.6125 31.6445 53.9315C32.1505 54.1096 32.7492 54.0865 33.2766 54.0615C33.877 54.033 34.4721 53.9582 35.0725 53.9297C35.632 53.903 36.1683 53.9582 36.7224 54.0134C37.1678 54.0562 37.6934 54.058 38.0533 53.7462C38.9139 52.9996 36.9112 52.5186 36.4872 52.4063C35.3362 52.0999 34.1282 51.9271 33.0966 51.2946C32.9737 51.2197 32.8614 51.4122 32.9844 51.487C33.7327 51.9467 34.5808 52.1747 35.4271 52.3778C35.8565 52.4794 36.2876 52.5774 36.7099 52.7021C36.9095 52.7609 37.1054 52.8233 37.2996 52.8963C37.5063 52.9729 37.7611 53.0495 37.9304 53.1956C38.2154 53.4415 37.7985 53.682 37.5865 53.7497C37.3549 53.8246 37.1054 53.8228 36.8649 53.8068C36.4034 53.7747 35.9527 53.6981 35.4894 53.6999C34.4863 53.7034 33.4904 53.8994 32.4855 53.846C31.9902 53.8192 31.4147 53.7551 31.1742 53.2526C30.9746 52.8357 31.0334 52.3208 31.0958 51.879C31.1154 51.7329 30.9016 51.6723 30.8802 51.813Z" fill="#252932"/>
<path d="M25.5957 52.2465C25.8416 52.7044 25.1004 53.1017 24.9614 53.4883C24.8278 53.8589 25.038 54.2224 25.3445 54.4309C25.7774 54.7266 26.3369 54.6571 26.8286 54.7569C27.3417 54.862 27.8139 55.0937 28.286 55.3128C28.7582 55.5338 29.2321 55.7315 29.7453 55.8366C30.2815 55.9453 30.8285 55.9774 31.3737 56.0023C31.7586 56.0202 32.2664 56.0611 32.4766 55.6567C32.7082 55.2077 32.2432 54.9992 31.9225 54.8193C31.3755 54.511 30.8 54.2277 30.2833 53.8696C29.7738 53.5168 29.3355 52.9894 29.4085 52.3338C29.4245 52.1912 29.2018 52.193 29.1858 52.3338C29.0842 53.2531 29.8468 53.8892 30.5595 54.3061C31.0227 54.577 31.4949 54.8335 31.9617 55.0954C32.1701 55.213 32.4534 55.3627 32.2289 55.6246C32.0472 55.8366 31.7069 55.7939 31.4575 55.7832C30.9194 55.76 30.376 55.7351 29.8468 55.63C29.364 55.5355 28.915 55.3591 28.4696 55.1525C28.0598 54.9618 27.6518 54.7587 27.2188 54.6251C26.7573 54.4825 26.2763 54.5128 25.813 54.3917C25.5494 54.3222 25.2839 54.1654 25.1805 53.9017C25.0683 53.6095 25.2643 53.3779 25.4514 53.1765C25.7151 52.8932 26.0019 52.5298 25.7899 52.1324C25.7204 52.0077 25.528 52.12 25.5957 52.2465Z" fill="#252932"/>
<path d="M32.6815 6.43548C32.7189 7.53123 32.5301 8.6252 31.6054 9.32719C31.0976 9.71204 30.4295 10.0987 29.7916 10.1806C29.2678 10.2483 28.4856 9.90625 28.6923 9.25771C28.7351 9.12052 28.5213 9.06172 28.4767 9.19891C28.3342 9.64434 28.5907 10.0523 28.9827 10.2626C29.4727 10.5245 30.0286 10.4051 30.5168 10.2002C31.4753 9.79578 32.3768 9.16862 32.7171 8.14592C32.8989 7.59715 32.922 7.00919 32.9042 6.43726C32.9007 6.29294 32.6762 6.29116 32.6815 6.43548Z" fill="#252932"/>
<path d="M33.3497 19.803C32.2984 19.5429 31.265 19.2044 30.3083 18.6912C30.1818 18.6235 30.0695 18.8159 30.196 18.8836C31.1688 19.4057 32.2218 19.7514 33.2909 20.0168C33.4298 20.0525 33.4904 19.8387 33.3497 19.803Z" fill="#252932"/>
<path d="M25.6918 13.3145C27.2009 14.0539 28.5497 15.0428 29.8682 16.0744C31.1118 17.049 32.5051 17.7919 33.9964 18.3086C34.1318 18.3549 34.1906 18.1411 34.0552 18.093C32.5158 17.5603 31.1171 16.7728 29.8379 15.7679C28.5693 14.7719 27.2562 13.8312 25.8041 13.1203C25.6758 13.0597 25.5618 13.2521 25.6918 13.3145Z" fill="#252932"/>
<path d="M30.221 19.055C29.5243 18.6648 28.956 18.084 28.254 17.7062C27.5413 17.3232 26.7377 17.1771 25.9859 16.8938C25.2625 16.6212 24.5872 16.1954 24.2736 15.4595C24.1168 15.0925 24.0491 14.6934 24.0135 14.2978C23.9797 13.9165 23.8923 13.4266 24.0955 13.0827C24.1685 12.9598 23.9761 12.8475 23.903 12.9705C23.748 13.2324 23.7463 13.5246 23.7605 13.8203C23.7748 14.125 23.7961 14.4279 23.8442 14.729C23.9422 15.3401 24.1721 15.9245 24.63 16.3539C25.6099 17.2733 27.0388 17.2911 28.1756 17.9165C28.8633 18.2942 29.4245 18.8626 30.1087 19.2456C30.2334 19.3169 30.3457 19.1245 30.221 19.055Z" fill="#252932"/>
<path d="M35.5554 14.7465C35.7229 14.8481 35.8886 14.955 36.0489 15.069C36.097 15.1028 36.1754 15.0797 36.2021 15.0298C36.2324 14.9728 36.2128 14.914 36.1629 14.8766C36.0026 14.7625 35.8369 14.6556 35.6694 14.5541C35.6195 14.5238 35.5447 14.5416 35.5162 14.5933C35.4877 14.6485 35.5037 14.7144 35.5554 14.7465Z" fill="#252932"/>
<path d="M23.4612 15.9565C23.5182 15.9903 23.5752 16.026 23.6304 16.0634C23.6589 16.083 23.6874 16.1026 23.7159 16.1222C23.7284 16.1311 23.7427 16.1418 23.7551 16.1507C23.7623 16.156 23.7694 16.1614 23.7765 16.1667C23.764 16.1578 23.7801 16.1685 23.7836 16.1721C23.8905 16.2558 23.9885 16.3502 24.0723 16.4571C24.1079 16.5035 24.1916 16.4981 24.2291 16.4571C24.2736 16.409 24.2683 16.3484 24.2291 16.3003C24.0527 16.0758 23.8157 15.9101 23.5734 15.764C23.5235 15.7338 23.4487 15.7516 23.4202 15.8032C23.3917 15.8585 23.4077 15.9244 23.4612 15.9565Z" fill="#252932"/>
<path d="M33.7203 12.6247C34.0499 11.8015 34.6165 11.1031 35.0049 10.3103C35.0673 10.182 34.8749 10.0697 34.8125 10.198C34.4152 11.0087 33.8432 11.7232 33.5065 12.5659C33.453 12.6977 33.6686 12.7565 33.7203 12.6247Z" fill="#252932"/>
<path d="M30.7519 5.32352C30.1586 5.85625 29.5813 6.4068 29.013 6.96625C28.7261 7.24776 28.441 7.53105 28.1577 7.81434C27.9172 8.05487 27.6945 8.27759 27.5217 8.57335C27.2028 9.12033 27.0317 9.74036 26.8642 10.3479C26.7841 10.6401 26.7324 10.9911 26.5703 11.2495C26.4099 11.506 26.1729 11.4847 25.9039 11.4152C25.7649 11.3795 25.7061 11.5933 25.8451 11.6307C26.0678 11.6878 26.3244 11.7341 26.5346 11.6076C26.7217 11.4953 26.8215 11.2815 26.8838 11.082C27.0976 10.4085 27.2348 9.70473 27.5252 9.05797C27.6785 8.71588 27.8673 8.42012 28.1328 8.15643C28.4375 7.85176 28.7421 7.54887 29.0486 7.24598C29.6579 6.64554 30.2744 6.05402 30.9105 5.48387C31.0156 5.3841 30.8588 5.22731 30.7519 5.32352Z" fill="#252932"/>
<path d="M30.7073 10.0219C30.3777 10.8557 30.5844 11.8499 31.2044 12.4931C31.3042 12.5965 31.4609 12.4397 31.3612 12.3363C30.7911 11.7448 30.6218 10.8433 30.9211 10.0825C30.9746 9.94885 30.759 9.89005 30.7073 10.0219Z" fill="#252932"/>
<path d="M30.8089 11.9175C31.3238 12.1278 31.8904 12.2008 32.441 12.1313C32.5016 12.1242 32.5514 12.085 32.5514 12.0209C32.5514 11.9656 32.4998 11.9015 32.441 11.9104C31.9065 11.9781 31.3684 11.9068 30.8677 11.7037C30.8107 11.6806 30.7466 11.7287 30.7305 11.7821C30.7127 11.8445 30.7537 11.8944 30.8089 11.9175Z" fill="#252932"/>
<path d="M32.587 11.9958C32.334 11.741 31.9884 11.5931 31.6303 11.5842C31.575 11.5824 31.5269 11.6269 31.5216 11.6804C31.5144 11.7392 31.5483 11.7819 31.6017 11.8033C31.8601 11.9013 32.1113 11.7837 32.3732 11.7891C32.4588 11.7909 32.5443 11.8122 32.6191 11.8568C32.6868 11.8978 32.7225 11.9494 32.7207 12.0207C32.7759 11.9886 32.8329 11.9566 32.8882 11.9245C32.5336 11.7534 32.1416 11.7 31.7532 11.7677C31.6944 11.7784 31.6605 11.8514 31.6748 11.9049C31.6926 11.9673 31.7532 11.994 31.812 11.9833C32.1363 11.9263 32.4784 11.9744 32.7759 12.1169C32.8525 12.1543 32.9398 12.1098 32.9434 12.0207C32.9523 11.7713 32.7189 11.6162 32.4962 11.5788C32.2182 11.5307 31.9314 11.6911 31.6623 11.5877C31.6516 11.6608 31.6427 11.7338 31.632 11.8069C31.9332 11.814 32.22 11.9405 32.432 12.1526C32.53 12.2559 32.6886 12.0973 32.587 11.9958Z" fill="#252932"/>
<path d="M31.9207 5.6831C32.0935 5.61896 32.2147 5.65994 32.2948 5.8292C32.3715 5.99312 32.3911 6.18555 32.4071 6.36372C32.4285 6.61851 32.4427 6.87151 32.489 7.12273C32.5532 7.47373 32.6601 7.81226 32.8008 8.1401C32.8579 8.27194 33.0503 8.15791 32.9933 8.02785C32.8311 7.6519 32.7207 7.25102 32.669 6.843C32.6405 6.61138 32.6387 6.37797 32.6066 6.14635C32.5799 5.95214 32.5336 5.74012 32.4053 5.58511C32.2663 5.41941 32.0596 5.39624 31.8637 5.46751C31.7282 5.5174 31.787 5.73299 31.9207 5.6831Z" fill="#252932"/>
<path d="M31.9813 5.49059C31.6 5.3427 31.1903 5.29103 30.784 5.275C30.6415 5.26965 30.6415 5.49237 30.784 5.49771C31.1724 5.51197 31.5573 5.56364 31.9225 5.7044C31.9778 5.72578 32.0455 5.68123 32.0597 5.626C32.0758 5.56364 32.0366 5.51197 31.9813 5.49059Z" fill="#252932"/>
<path d="M38.7874 15.4042C39.7656 15.9904 40.9878 16.1917 42.0943 15.8906C42.317 15.83 42.5522 15.7338 42.684 15.5325C42.7998 15.3543 42.8266 15.1173 42.6965 14.9391C42.5682 14.7628 42.3401 14.7147 42.137 14.6879C41.8092 14.6452 41.4814 14.6113 41.1535 14.5721C41.011 14.5561 41.0128 14.7788 41.1535 14.7948C41.4047 14.8233 41.656 14.8536 41.9054 14.8821C42.0925 14.9035 42.4239 14.9 42.5308 15.0924C42.6715 15.3436 42.3722 15.561 42.1709 15.634C41.9606 15.7106 41.7308 15.7498 41.5099 15.7766C40.603 15.8835 39.68 15.6803 38.8979 15.2118C38.7767 15.1387 38.6645 15.3311 38.7874 15.4042Z" fill="#252932"/>
<path d="M39.8279 14.7129C39.5001 14.729 39.183 14.8127 38.8908 14.9588C38.8374 14.9855 38.8213 15.0622 38.8516 15.1121C38.8837 15.1673 38.9496 15.1798 39.0048 15.1513C39.2614 15.023 39.5447 14.9499 39.8297 14.9357C39.8903 14.9321 39.9402 14.8858 39.9402 14.8252C39.9402 14.7664 39.8885 14.7112 39.8279 14.7129Z" fill="#252932"/>
<path d="M39.5999 17.7451C39.6034 18.0729 39.5375 18.456 39.2346 18.6359C39.1117 18.709 39.2239 18.9014 39.3469 18.8284C39.721 18.6057 39.8279 18.1513 39.8226 17.7451C39.8208 17.6025 39.5981 17.6025 39.5999 17.7451Z" fill="#252932"/>
<path d="M38.8177 15.8123C38.8088 15.8034 38.8053 15.8016 38.8177 15.8123C38.8213 15.8159 38.8266 15.8195 38.832 15.8248C38.8409 15.8319 38.8498 15.8391 38.8587 15.848C38.8765 15.864 38.8943 15.88 38.9122 15.8979C38.9478 15.9317 38.9799 15.9691 39.0119 16.0065C39.0191 16.0155 39.0262 16.0244 39.0333 16.0333C39.0369 16.0386 39.0458 16.0546 39.0333 16.0315C39.0351 16.0351 39.0404 16.0404 39.0422 16.044C39.0565 16.0636 39.0707 16.0832 39.085 16.1045C39.1135 16.1455 39.1402 16.1883 39.1652 16.2328C39.1937 16.2827 39.2667 16.3059 39.3184 16.272C39.3701 16.2382 39.3897 16.174 39.3576 16.1188C39.2471 15.9264 39.1064 15.7553 38.93 15.6199C38.9086 15.6039 38.8694 15.6021 38.8445 15.6092C38.8195 15.6163 38.791 15.6359 38.7785 15.6609C38.7643 15.6876 38.7572 15.7179 38.7678 15.7464C38.7768 15.7749 38.7946 15.7927 38.8177 15.8123Z" fill="#252932"/>
<path d="M39.2952 14.8196C39.7032 14.7893 40.1112 14.7644 40.5192 14.7359C40.6617 14.727 40.6617 14.5043 40.5192 14.5132C40.1112 14.5417 39.7032 14.5666 39.2952 14.5969C39.2346 14.6005 39.1847 14.645 39.1847 14.7074C39.1847 14.7644 39.2346 14.8232 39.2952 14.8196Z" fill="#252932"/>
<path d="M40.4837 15.8778C40.5211 15.3576 40.6102 14.8427 40.7563 14.342C40.824 14.1068 40.9077 13.877 40.9968 13.6489C41.077 13.4405 41.1251 13.2445 41.0663 13.0236C41.0111 12.8169 40.8935 12.6298 40.8097 12.4356C40.7118 12.2093 40.6369 11.9741 40.5835 11.7336C40.4694 11.2276 40.4623 10.7038 40.5514 10.1924C40.5763 10.0517 40.3608 9.99287 40.3358 10.1336C40.1719 11.0797 40.3447 11.9634 40.7492 12.824C40.8899 13.1215 40.8846 13.3229 40.767 13.6258C40.6726 13.8663 40.5888 14.1122 40.5193 14.3616C40.3804 14.8569 40.2984 15.3647 40.261 15.8778C40.2503 16.0204 40.473 16.0204 40.4837 15.8778Z" fill="#252932"/>
<path d="M40.4817 10.4476C40.7365 10.8129 41.2408 10.7897 41.5668 10.5313C41.7379 10.3959 41.8626 10.2124 41.9713 10.0253C42.1387 9.73671 42.292 9.43738 42.4452 9.14161C42.7321 8.5875 43.0029 8.0227 43.206 7.43117C43.3414 7.03564 43.6015 6.42451 43.3521 6.01828C43.2523 5.85436 43.0759 5.78309 42.8889 5.80804C42.7303 5.82764 42.586 5.90603 42.4363 5.95592C42.2385 6.02184 42.0318 6.06817 41.8234 6.08776C41.1428 6.15012 40.5245 5.89712 39.9401 5.57285C39.7423 5.46417 39.5125 5.26996 39.2773 5.2664C39.0118 5.26283 38.937 5.51049 38.9014 5.72608C38.7945 6.35146 38.7624 6.99287 38.7998 7.62538C38.8443 8.34163 38.9762 9.05253 39.2007 9.73314C39.3806 10.2783 39.6372 10.8431 40.1699 11.1193C40.2964 11.1852 40.4105 10.9928 40.2822 10.9269C39.8564 10.7077 39.6301 10.2783 39.4733 9.84539C39.2951 9.35542 39.1722 8.84229 39.0938 8.32737C39.0154 7.79999 38.9887 7.26191 39.0136 6.72918C39.0261 6.46727 39.0492 6.20536 39.0884 5.94701C39.1027 5.85436 39.1027 5.66906 39.1561 5.58532C39.2791 5.39112 39.4965 5.57641 39.6247 5.64946C40.0452 5.89178 40.4817 6.12696 40.9557 6.24277C41.4367 6.36037 41.9428 6.33899 42.4167 6.19467C42.6234 6.13231 42.9958 5.89534 43.1597 6.13053C43.279 6.29979 43.2185 6.57595 43.1721 6.75947C43.0474 7.26726 42.8586 7.76079 42.6412 8.23651C42.3989 8.76746 42.1227 9.28415 41.8412 9.79729C41.7165 10.0253 41.5757 10.2801 41.3441 10.4173C41.1356 10.5403 40.8238 10.5545 40.6706 10.3371C40.5922 10.2196 40.3998 10.33 40.4817 10.4476Z" fill="#252932"/>
<path d="M25.2126 46.4164C25.1931 46.689 25.1806 46.9616 25.177 47.2342C25.1752 47.3768 25.3979 47.3785 25.3997 47.2342C25.4033 46.9616 25.4158 46.689 25.4354 46.4164C25.4389 46.3558 25.3819 46.3059 25.3249 46.3059C25.2608 46.3059 25.218 46.3558 25.2126 46.4164Z" fill="#252932"/>
<path d="M26.4135 26.7036C27.1048 28.7259 27.5627 30.8336 27.6518 32.9717C27.7426 35.1507 27.3507 37.3048 26.7859 39.4018C26.4652 40.592 26.1088 41.7697 25.8095 42.9653C25.7739 43.1042 25.9895 43.163 26.0251 43.0241C26.5649 40.8664 27.2865 38.7551 27.6411 36.5547C27.9814 34.4362 27.944 32.3107 27.5645 30.1993C27.3471 28.9913 27.0264 27.8029 26.6291 26.643C26.5828 26.5094 26.3672 26.5682 26.4135 26.7036Z" fill="#252932"/>
<path d="M34.8765 13.6938L33.8199 12.9224L32.8667 11.3491L32.7705 12.0743L32.4979 12.9224L31.4895 13.097L30.1354 12.8155L28.9648 12.5197L27.3167 11.9406L25.6776 11.677L24.76 12.297L24.3359 12.6925L26.1711 13.35L28.3519 14.7326L30.7661 16.5695L33.0556 17.8042L33.8128 18.0822L34.7838 16.9508L36.0542 15.1994L35.7513 14.3584L34.8765 13.6938Z" fill="#252932"/>
<path d="M30.6201 18.9958L29.2233 18.5148L28.197 17.8021L27.1333 17.378L25.7899 16.9469L24.6389 16.3286L24.7993 17.321L25.218 18.4667L25.6598 18.6609L26.4242 19.247L26.8429 20.0453L27.2937 20.806L27.9297 21.1339L29.3658 21.0483L30.499 20.8541L32.4571 20.4889L32.7119 19.8974L30.6201 18.9958Z" fill="#252932"/>
<path d="M35.9384 26.4505L35.2275 24.3178L33.9946 22.1691L31.0245 21.5918L28.1292 21.9125L26.6771 23.2862L26.1943 24.6973L26.0945 26.1708L27.0246 28.4852L27.454 30.4344L27.723 32.8058L27.1315 38.5037L26.5488 40.6364L25.8148 43.4284L25.3694 46.8011L24.6014 48.8358V50.4554L24.9792 51.5458L26.3457 52.2532L27.5395 52.4295L28.8793 52.3547L30.1443 51.2875L31.8423 51.7311L33.6525 50.8385L34.4543 48.9321L36.0899 41.6698L36.9237 36.175L36.685 31.2094L35.9384 26.4505Z" fill="#252932"/>
<path d="M32.3252 20.5569C32.58 21.2536 33.1572 21.7436 33.747 22.1569C33.8646 22.2389 33.9768 22.0465 33.8592 21.9645C33.3212 21.5868 32.7724 21.1342 32.539 20.4982C32.4909 20.3645 32.2753 20.4215 32.3252 20.5569Z" fill="#252932"/>
<path d="M28.0455 21.2447C28.0437 21.3837 28.0009 21.5048 27.9439 21.6296C27.8816 21.7632 27.8495 21.9022 27.8246 22.0465C27.8139 22.1053 27.8406 22.1659 27.903 22.1837C27.9564 22.1979 28.0295 22.1659 28.0401 22.1053C28.0651 21.9645 28.0954 21.8309 28.156 21.7008C28.2237 21.5547 28.2682 21.4069 28.27 21.2447C28.27 21.1004 28.0473 21.1004 28.0455 21.2447Z" fill="#252932"/>
<path d="M37.1999 19.228C38.7464 19.7144 40.1664 18.779 41.6738 18.5973C41.6417 18.5795 41.6096 18.5599 41.5776 18.542C41.8181 18.9465 42.0283 19.3884 42.1032 19.8569C42.1869 20.3914 42.0105 20.8048 41.5134 21.04C40.3428 21.5905 38.9531 21.6101 37.8574 20.8778C37.738 20.7977 37.6257 20.9901 37.7451 21.0703C38.9282 21.8613 40.5192 21.84 41.7557 21.1683C42.8034 20.5981 42.2279 19.2031 41.77 18.4316C41.7522 18.4013 41.7112 18.371 41.6738 18.3763C40.1985 18.5527 38.766 19.4881 37.2587 19.0142C37.1215 18.9714 37.0627 19.1852 37.1999 19.228Z" fill="#252932"/>
<path d="M34.0481 18.2284C34.841 18.5438 35.6499 18.8164 36.473 19.0426C36.612 19.0801 36.6708 18.8663 36.5318 18.8271C35.7087 18.6008 34.8998 18.3282 34.1069 18.0128C33.9751 17.9611 33.9163 18.1767 34.0481 18.2284Z" fill="#252932"/>
<path d="M33.1893 19.9529C33.567 19.9529 33.8948 20.1311 34.2387 20.2647C34.5665 20.3912 34.9086 20.475 35.2525 20.548C35.9901 20.7084 36.7295 20.8634 37.4672 21.0202C37.6061 21.0505 37.6667 20.8349 37.526 20.8046C36.7616 20.6425 35.9973 20.4857 35.2347 20.3164C34.8783 20.238 34.5291 20.1454 34.1924 20.0064C33.8646 19.8728 33.551 19.7302 33.1893 19.7302C33.045 19.7302 33.045 19.9529 33.1893 19.9529Z" fill="#252932"/>
<path d="M35.9172 15.1102C36.0989 15.4915 36.286 15.8799 36.5711 16.1971C36.8579 16.516 37.241 16.7334 37.5456 17.0345C38.0695 17.5529 38.5042 18.1872 39.2204 18.4527C39.3558 18.5026 39.4128 18.287 39.2792 18.2371C38.5933 17.9841 38.1728 17.332 37.6668 16.842C37.3835 16.5677 37.0361 16.3663 36.7653 16.0795C36.4713 15.7712 36.2878 15.3775 36.1078 14.998C36.049 14.8679 35.8566 14.9802 35.9172 15.1102Z" fill="#252932"/>
<path d="M34.31 17.523C35.5857 18.282 36.9273 18.8967 38.3527 19.3172C38.4899 19.3582 38.5487 19.1426 38.4115 19.1016C37.0039 18.6865 35.6819 18.0807 34.4222 17.3288C34.2975 17.2575 34.1853 17.45 34.31 17.523Z" fill="#252932"/>
<path d="M34.1728 4.95451C33.8396 4.09038 33.6097 3.16211 32.938 2.50466C32.8828 2.45121 32.824 2.40133 32.7652 2.34966L31.0601 1.92383H29.3069C29.0682 1.99866 28.8366 2.09309 28.6156 2.21246C27.9475 2.57949 27.4682 3.18171 26.8749 3.62536C26.3101 4.92422 26.1943 6.43154 25.3337 7.60925C24.8509 8.26848 24.2523 8.82616 23.732 9.45153C23.1565 10.1428 22.8554 10.9393 22.7414 11.8265C22.5632 13.2198 22.9694 14.4403 23.3133 15.7089L24.1525 16.3556L24.222 15.7606L23.9333 14.0679L24.3324 12.5927L26.0019 11.8265L27.8709 11.7535L28.2254 9.9611L28.4286 7.69655L29.6918 6.387L30.7661 5.45695L31.7318 5.52109L32.4766 5.80795L32.6334 7.28498L32.2289 8.92237L30.9354 10.0217L30.5702 10.9375L30.9229 11.9299L31.3523 12.5909L33.1839 12.1704L33.6578 12.4804L34.9139 9.88805C34.4258 8.88495 34.0373 7.85334 33.9839 6.65426C33.9572 6.06629 34.0623 5.5104 34.1728 4.95451Z" fill="#252932"/>
<path d="M31.7034 5.00456C31.1172 4.89409 30.5257 5.0491 30.0357 5.3805C29.7773 5.55333 29.5689 5.77426 29.3533 5.99697C29.1163 6.24106 28.8669 6.41923 28.5604 6.56355C28.0295 6.81299 27.5716 7.08381 27.4504 7.70563C27.3186 8.38802 27.6108 9.02765 27.6803 9.69579C27.7622 10.4655 27.4451 11.2156 26.8518 11.7091C26.7413 11.8 26.8999 11.9568 27.0086 11.8659C27.438 11.5096 27.7426 11.0143 27.8602 10.4673C27.9974 9.82764 27.8068 9.23255 27.6892 8.60895C27.5662 7.95328 27.6464 7.29049 28.2789 6.94306C28.523 6.80943 28.7885 6.71678 29.0255 6.56712C29.2785 6.40676 29.478 6.18227 29.6847 5.96846C30.1943 5.44464 30.8945 5.07583 31.6428 5.21658C31.7853 5.24509 31.8441 5.03129 31.7034 5.00456Z" fill="white"/>
<path d="M32.2485 5.27734C32.7189 5.22211 32.7741 5.78334 32.7581 6.12009C32.7421 6.45683 32.7314 6.78644 32.7741 7.1214C32.7955 7.2871 32.8258 7.45102 32.865 7.61315C32.9078 7.78776 32.9826 7.96771 32.9933 8.14767C33.0129 8.48975 32.7456 8.82115 32.5354 9.06703C32.3252 9.3129 32.0811 9.52136 31.812 9.69775C31.5911 9.84207 31.3577 9.97926 31.2187 10.2127C31.0691 10.4639 31.0388 10.781 31.021 11.0679C30.9996 11.4189 31.0334 11.7663 31.1083 12.1084C31.1386 12.2492 31.3541 12.1886 31.3238 12.0496C31.233 11.6273 31.2098 11.189 31.2775 10.7596C31.3096 10.5601 31.3595 10.3605 31.5002 10.2073C31.6196 10.0755 31.7782 9.98639 31.9261 9.89196C32.4285 9.56412 32.9488 9.07772 33.1626 8.50223C33.2784 8.19043 33.1697 7.90179 33.0913 7.59712C32.9862 7.19267 32.947 6.77397 32.9666 6.35705C32.9808 6.04169 33.0325 5.69604 32.8686 5.40918C32.7421 5.18469 32.5122 5.0279 32.2485 5.05819C32.1078 5.07066 32.106 5.29337 32.2485 5.27734Z" fill="white"/>
<path d="M31.1618 27.0639C31.568 28.5944 31.9724 30.1285 32.229 31.6928C32.2593 31.8745 32.286 32.058 32.3128 32.2416C32.2896 32.083 32.3252 32.3396 32.3306 32.3859C32.343 32.4839 32.3537 32.5837 32.3644 32.6816C32.4054 33.0772 32.4357 33.4727 32.4499 33.87C32.4785 34.6522 32.4464 35.4362 32.3555 36.2148C32.3466 36.2967 32.3359 36.3787 32.3252 36.4624C32.3484 36.2896 32.3128 36.5444 32.3056 36.5943C32.2771 36.7849 32.245 36.9756 32.2094 37.1662C32.1399 37.5475 32.058 37.9252 31.9671 38.3029C31.7872 39.0459 31.5716 39.78 31.3328 40.5069C30.8464 41.9857 30.2656 43.4325 29.6919 44.881C29.0184 46.5825 28.3449 48.2841 27.6714 49.9874C27.5004 50.4221 27.8585 50.9851 28.2932 51.0831C28.8064 51.2007 29.2055 50.9264 29.389 50.4613C29.993 48.9362 30.597 47.411 31.1992 45.8859C31.7854 44.4035 32.3858 42.9265 32.9025 41.4174C33.4049 39.9475 33.8272 38.4437 34.0481 36.9043C34.2833 35.2526 34.2815 33.6259 34.0588 31.9725C33.8129 30.1481 33.3515 28.3681 32.8811 26.5918C32.7617 26.141 32.2397 25.8221 31.7854 25.9699C31.3203 26.1178 31.0335 26.5811 31.1618 27.0639Z" fill="white"/>
<path d="M34.2583 40.2375C33.7025 42.9885 32.9132 45.686 31.8976 48.3015C31.7283 48.7362 32.0829 49.2975 32.5194 49.3973C33.0308 49.5131 33.4352 49.2405 33.6152 48.7754C34.6307 46.1599 35.42 43.4606 35.9759 40.7115C36.0685 40.2553 35.8458 39.7279 35.3541 39.6157C34.9104 39.5159 34.3581 39.7493 34.2583 40.2375Z" fill="white"/>
<path d="M43.0083 15.3079C42.9727 15.1725 42.9264 15.0389 42.8783 14.907L42.5576 14.8251L42.5219 15.5573L41.9019 15.8513L41.3709 15.944L40.6796 15.9137L38.7803 15.2794L39.338 14.7146L38.6324 14.9248C38.6074 14.9427 38.5914 14.9587 38.5611 14.9925C38.57 14.9819 38.5522 15.0104 38.5415 15.0282C38.5397 15.0335 38.5326 15.0549 38.5273 15.0709C38.5273 15.0798 38.5201 15.1315 38.5201 15.1386C38.5201 15.1476 38.5273 15.2135 38.5255 15.2153C38.5433 15.315 38.595 15.438 38.6413 15.5324C38.7126 15.6785 38.7963 15.8193 38.8836 15.9547C38.9068 15.9725 38.9299 15.9921 38.9495 16.0152L38.9442 16.0081C38.978 16.0509 39.0172 16.0883 39.06 16.1239C39.1687 16.2023 39.2845 16.2736 39.3843 16.3645C39.5233 16.491 39.6248 16.6691 39.6515 16.8562C39.6676 16.9168 39.6676 16.9756 39.6515 17.0362C39.6409 17.0629 39.6284 17.0896 39.6177 17.1163C39.6159 17.1199 39.6141 17.1217 39.6123 17.1253L39.6213 17.3872L39.6711 18.3261L39.0155 19.0655L40.2662 18.8125L41.3513 18.4615L42.2511 18.5292L42.0783 17.3783L42.3687 16.776L42.8284 16.1453C42.8248 15.9066 42.8907 15.6749 42.9816 15.4469C42.9941 15.413 43.0083 15.3792 43.0208 15.3471C43.0137 15.3311 43.0101 15.3133 43.0083 15.3079Z" fill="#252932"/>
<path d="M38.0481 23.3985C38.3795 23.8725 38.6984 24.3304 39.3006 24.5032C39.9652 24.6938 40.7046 24.7705 41.3941 24.6814C42.1318 24.5852 42.873 24.2413 43.1135 23.4841C43.2061 23.1901 43.2311 22.8712 43.224 22.5469C43.0654 22.1139 42.8872 21.6988 42.7554 21.2587L42.7233 21.2071L42.7197 21.1304C42.6716 20.9558 42.6289 20.7777 42.6004 20.5906C42.5291 20.1202 42.4917 19.6231 42.3349 19.1706C42.2512 18.93 42.3687 18.759 42.2529 18.5345L41.7487 18.4668L42.2565 20.1933L41.8984 20.9398L41.3585 21.2658L40.6815 21.4601L39.6035 21.5188L38.5345 21.3585L38.1995 22.4275C38.2405 22.595 38.2316 22.7803 38.1496 22.9709C38.0873 23.1046 38.057 23.2507 38.0481 23.3985Z" fill="#252932"/>
<path d="M38.9086 16.5605C38.9531 16.589 38.9976 16.6193 39.0422 16.6478C39.0832 16.6781 39.0867 16.6781 39.0493 16.6495C39.0707 16.6656 39.0903 16.6834 39.1099 16.7012C39.117 16.7083 39.199 16.801 39.1455 16.7297C39.1562 16.744 39.2311 16.8865 39.199 16.8099C39.2382 16.9008 39.2614 17.0023 39.2827 17.0985C39.2952 17.1556 39.3059 17.2126 39.3166 17.2714C39.3255 17.3248 39.3255 17.3284 39.3184 17.2838C39.3202 17.3052 39.3237 17.3266 39.3255 17.3498C39.3451 17.56 39.3433 17.7756 39.3166 17.984C39.3291 17.8967 39.3006 18.066 39.297 18.082C39.2881 18.1248 39.2792 18.1676 39.2685 18.2103C39.24 18.3244 39.2043 18.4348 39.1634 18.5453C39.0814 18.7644 39.2542 19.0424 39.4752 19.0941C39.7282 19.1511 39.9349 19.0174 40.024 18.7823C40.2146 18.2745 40.2716 17.7186 40.1986 17.1823C40.1612 16.9043 40.1024 16.6246 39.9723 16.3734C39.8387 16.1168 39.5999 15.9458 39.3611 15.7943C39.1634 15.6696 38.8622 15.7462 38.7518 15.9547C38.6324 16.172 38.6983 16.4286 38.9086 16.5605Z" fill="#252932"/>
<path d="M39.1581 16.3166C39.7317 16.3166 39.7317 15.4258 39.1581 15.4258C38.5844 15.4258 38.5844 16.3166 39.1581 16.3166Z" fill="#252932"/>
<path d="M20.753 51.9186C21.3018 49.9962 21.6385 47.5036 20.3913 45.5277C19.2225 43.6765 17.7116 43.9401 16.7263 42.1442C15.5736 40.04 17.1219 38.7162 17.0506 34.2637C17.0132 31.9172 16.9686 29.1199 15.1852 27.0977C13.1896 24.8349 10.8645 25.6367 10.0681 23.8514C9.17011 21.8399 11.7037 19.8889 12.828 16.2328C13.5264 13.9647 13.8221 10.5795 11.9193 5.78491" stroke="#252932" stroke-miterlimit="10"/>
<path d="M10.232 22.1318C8.75495 18.5559 10.4583 14.4598 14.0341 12.9828L16.0973 12.1311C17.5744 15.707 15.8711 19.8031 12.2952 21.2801L10.232 22.1318Z" fill="#252932"/>
<path d="M13.1646 8.8528C9.81323 10.7877 5.53001 9.63853 3.59508 6.28893L2.47974 4.35578C5.83112 2.42084 10.1143 3.57004 12.0493 6.91965L13.1646 8.8528Z" fill="#252932"/>
<path d="M17.0363 32.5601C13.6849 34.495 9.40172 33.3458 7.46679 29.9962L6.35144 28.0631C9.70283 26.1281 13.9861 27.2773 15.921 30.6269L17.0363 32.5601Z" fill="#252932"/>
<path d="M23.773 34.1191C25.0255 37.7805 23.071 41.7627 19.4114 43.0152L17.3001 43.7368C16.0475 40.0754 18.0021 36.0933 21.6617 34.8407L23.773 34.1191Z" fill="#252932"/>
<path d="M43.1793 51.4779C42.6306 49.5555 42.2938 47.0629 43.541 45.087C44.7098 43.2358 46.2207 43.4995 47.206 41.7035C48.3588 39.5993 46.8105 38.2755 46.8817 33.823C46.9191 31.4765 46.9637 28.6792 48.7472 26.657C50.7427 24.3942 53.0678 25.196 53.8643 23.4107C54.7622 21.3992 52.2286 19.4482 51.1044 15.7922C50.406 13.524 50.1102 10.1388 52.0131 5.34424" stroke="#252932" stroke-miterlimit="10"/>
<path d="M53.7021 24.3498C55.1792 20.774 53.4758 16.6778 49.8999 15.2008L47.8367 14.3491C46.3597 17.925 48.063 22.0211 51.6389 23.4982L53.7021 24.3498Z" fill="#252932"/>
<path d="M50.7694 10.9109C54.1208 12.8458 58.404 11.6966 60.339 8.34704L61.4543 6.41388C58.1029 4.47895 53.8197 5.62815 51.8848 8.97776L50.7694 10.9109Z" fill="#252932"/>
<path d="M47.3182 37.9391C51.1881 37.9391 54.3239 34.8033 54.3239 30.9334V28.7009C50.454 28.7009 47.3182 31.8367 47.3182 35.7066V37.9391Z" fill="#252932"/>
<path d="M37.8788 35.3613C36.6263 39.0227 38.5808 43.0048 42.2404 44.2574L44.3517 44.979C45.6043 41.3176 43.6497 37.3355 39.9901 36.0829L37.8788 35.3613Z" fill="#252932"/>
<path d="M41.7255 13.1807H41.0823V12.2346C41.0823 11.317 41.827 10.5723 42.7446 10.5723H43.3878V11.5184C43.3878 12.4359 42.6448 13.1807 41.7255 13.1807Z" fill="#252932"/>
<path d="M40.4622 10.9448V11.588H39.5161C38.5985 11.588 37.8538 10.8432 37.8538 9.92566V9.28247H38.7998C39.7174 9.28247 40.4622 10.0272 40.4622 10.9448Z" fill="#252932"/>
<path d="M39.1492 5.41211L38.8445 6.43481L38.9478 8.03478L39.1331 9.08777L39.607 9.75591L40.3714 10.4347L41.1161 10.6093L41.6863 10.253L42.6876 8.40538L43.3005 6.71097L43.0689 5.92702L42.2368 6.12836L40.8703 6.10341L39.1492 5.41211Z" fill="#252932"/>
<path d="M34.1977 17.0967L35.9723 14.9729L36.5032 15.9938L38.1442 17.608L39.5018 18.5969L38.6911 19.2098L37.0074 18.661L34.0249 17.3354L34.1977 17.0967Z" fill="white"/>
</svg>
