<svg width="60" height="81" viewBox="0 0 60 81" fill="none" xmlns="http://www.w3.org/2000/svg">
<circle cx="30" cy="38" r="30" fill="#EBAE91"/>
<path d="M12.6929 78.448V79H8.58891V78.512L11.8529 73.856H8.58891V73.304H12.6129V73.784L9.34891 78.448H12.6929ZM18.1484 77.536H15.1724L14.5404 79H13.8604L16.3644 73.304H16.9404L19.4444 79H18.7724L18.1484 77.536ZM17.9164 76.992L16.6604 74.064L15.4044 76.992H17.9164ZM24.3274 76.072C24.6527 76.1627 24.9061 76.328 25.0874 76.568C25.2687 76.8027 25.3594 77.096 25.3594 77.448C25.3594 77.944 25.1941 78.328 24.8634 78.6C24.5327 78.8667 24.0661 79 23.4634 79H21.0954V73.304H23.3834C23.9647 73.304 24.4154 73.4347 24.7354 73.696C25.0607 73.952 25.2234 74.3173 25.2234 74.792C25.2234 75.096 25.1434 75.36 24.9834 75.584C24.8287 75.8027 24.6101 75.9653 24.3274 76.072ZM21.7434 75.832H23.2794C23.7061 75.832 24.0287 75.7467 24.2474 75.576C24.4661 75.4053 24.5754 75.1547 24.5754 74.824C24.5754 74.1733 24.1434 73.848 23.2794 73.848H21.7434V75.832ZM23.4074 78.456C23.8554 78.456 24.1834 78.3733 24.3914 78.208C24.6047 78.0373 24.7114 77.7787 24.7114 77.432C24.7114 76.7333 24.2767 76.384 23.4074 76.384H21.7434V78.456H23.4074ZM31.014 77.536H28.038L27.406 79H26.726L29.23 73.304H29.806L32.31 79H31.638L31.014 77.536ZM30.782 76.992L29.526 74.064L28.27 76.992H30.782ZM38.3172 73.304L35.8292 79H35.2532L32.7652 73.304H33.4612L35.5492 78.168L37.6372 73.304H38.3172ZM44.3993 73.304V79H43.8873L40.4473 74.416V79H39.8313V73.304H40.3353L43.7753 77.888V73.304H44.3993ZM50.3281 77.536H47.3521L46.7201 79H46.0401L48.5441 73.304H49.1201L51.6241 79H50.9521L50.3281 77.536ZM50.0961 76.992L48.8401 74.064L47.5841 76.992H50.0961Z" fill="black"/>
<path d="M33.6881 26.1745L32.9091 29.622L26.7706 30.8837L28.79 25.6052H26.6249L25.4611 22.8838L22.6609 18.4956L21.7493 15.9161L23.4623 14.1914L24.3814 13.1723L25.7058 10.9978L26.5091 9.74161L28.0465 9.14245L29.7109 8.47424L30.3928 8.84381L30.475 9.57362L30.2172 10.3333L29.1412 10.4789L28.4407 10.2586L27.5608 10.4546L26.2177 12.1588L26.6249 13.3963H31.9526L33.0791 18.1242L34.9845 15.4009L33.4751 10.897L31.8181 7.81909L31.0373 7.39538L30.0808 7.31886L28.8629 6.58905L28.8292 5.37767L29.7931 5.25635L31.0952 5.37767L31.7527 5.78271L31.9526 6.15975L34.9845 11.7351L36.535 15.539L36.2211 16.8475L33.094 21.7956L33.6881 26.1745Z" fill="white"/>
<path d="M28.6686 13.7954C27.8429 14.3871 27.2694 15.2998 27.1237 16.3077C26.991 17.2391 27.247 18.3236 28.1586 18.7678C28.6106 18.9881 29.1281 19.0329 29.625 19.0123C29.8791 19.003 30.1537 18.9918 30.3909 18.8947C30.6113 18.8052 30.772 18.6334 30.899 18.4356C31.2073 17.9559 31.4109 17.3866 31.5267 16.8304C31.6406 16.2891 31.7172 15.6694 31.5454 15.1337C31.1606 13.9373 29.851 13.5173 28.7246 13.3941C28.5957 13.3792 28.5976 13.5808 28.7246 13.5957C29.6698 13.6983 30.7178 13.9951 31.2166 14.8836C31.4725 15.3409 31.4632 15.871 31.3997 16.3768C31.3324 16.9069 31.1811 17.4295 30.9513 17.913C30.8523 18.1201 30.744 18.346 30.5871 18.5158C30.3965 18.7212 30.1443 18.7734 29.8772 18.7958C29.4363 18.8332 28.9787 18.8313 28.5509 18.7062C27.5982 18.4263 27.2246 17.4743 27.2955 16.5504C27.3759 15.5275 27.9344 14.5644 28.7676 13.969C28.874 13.8962 28.7732 13.7207 28.6686 13.7954Z" fill="#252932"/>
<path d="M28.207 18.8874C28.207 19.6004 28.207 20.3134 28.207 21.0245C28.207 21.1533 28.4088 21.1552 28.4088 21.0245C28.4088 20.3115 28.4088 19.5985 28.4088 18.8874C28.4088 18.7586 28.207 18.7586 28.207 18.8874Z" fill="#252932"/>
<path d="M30.3497 19.2999C30.303 19.6564 30.3647 20.0167 30.5179 20.3396C30.5403 20.3881 30.6113 20.4012 30.6561 20.375C30.7065 20.3452 30.7159 20.2873 30.6916 20.2369C30.5534 19.9439 30.5085 19.6172 30.5496 19.2981C30.5571 19.2439 30.4973 19.1973 30.4487 19.1973C30.3908 19.1991 30.3572 19.2458 30.3497 19.2999Z" fill="#252932"/>
<path d="M28.209 20.9854C28.7638 21.6051 29.6623 21.8851 30.4712 21.6723C30.8691 21.5678 31.1885 21.3307 31.2296 20.8995C31.2614 20.5542 31.0671 20.0577 31.3473 19.7815C31.4389 19.69 31.2969 19.5482 31.2053 19.6396C30.9606 19.8823 30.998 20.222 31.0223 20.5374C31.0354 20.7092 31.054 20.8958 30.9943 21.0619C30.9177 21.2747 30.7103 21.3886 30.5067 21.4539C29.7464 21.6928 28.8815 21.4315 28.3547 20.8435C28.265 20.7465 28.1231 20.8883 28.209 20.9854Z" fill="#252932"/>
<path d="M26.8135 24.1993C27.2264 23.4975 27.5533 22.7098 27.4524 21.8792C27.3646 21.1606 26.9574 20.3542 27.5869 19.7644C27.6822 19.6748 27.5383 19.533 27.4449 19.6226C26.8733 20.1582 27.0414 20.8582 27.189 21.5395C27.2843 21.98 27.2974 22.4093 27.1872 22.8498C27.0769 23.294 26.8714 23.7047 26.6417 24.0966C26.5744 24.2105 26.7482 24.3113 26.8135 24.1993Z" fill="#252932"/>
<path d="M31.2651 19.8393C31.9189 20.4328 31.8405 21.4072 32.2608 22.1351C32.7203 22.9284 33.6226 23.4006 34.4856 23.6153C34.6108 23.647 34.665 23.4529 34.5398 23.4211C33.6656 23.2028 32.7297 22.7063 32.3411 21.8477C32.0142 21.1272 32.031 20.2611 31.4071 19.6956C31.3118 19.6097 31.168 19.7515 31.2651 19.8393Z" fill="#252932"/>
<path d="M26.9985 20.4812C26.2961 20.8451 25.8365 19.966 25.5825 19.4527C25.1603 18.5997 24.7213 17.7504 24.428 16.8414C24.3888 16.7182 24.1945 16.7705 24.2337 16.8956C24.555 17.8923 25.0314 18.8554 25.5227 19.7793C25.8328 20.3636 26.3764 21.0299 27.1012 20.6547C27.2151 20.595 27.1124 20.4214 26.9985 20.4812Z" fill="#252932"/>
<path d="M25.9505 23.4904C25.0595 22.4414 24.3104 21.2804 23.6603 20.069C23.3315 19.4568 23.0289 18.8296 22.7468 18.195C22.4666 17.5641 22.1752 16.9183 21.9585 16.2632C21.796 15.7741 22.3583 15.3598 22.7655 15.0593C22.8271 14.9734 22.9019 14.9081 22.9915 14.8465C23.0009 14.839 23.0121 14.8353 23.0214 14.8297C23.0289 14.755 22.9261 14.6822 22.8477 14.7457C22.461 15.0649 21.8819 15.3952 21.7511 15.9179C21.682 16.1922 21.8109 16.4312 21.9062 16.6813C21.9174 16.7093 21.9286 16.7354 21.9398 16.7634C21.9921 16.8418 22.0351 16.9258 22.0668 17.0154C22.0855 17.0658 22.0967 17.118 22.1042 17.1703C22.1808 17.3626 22.2555 17.5548 22.3358 17.7452C22.9093 19.1059 23.5725 20.433 24.3702 21.678C24.8073 22.3611 25.2855 23.0163 25.8104 23.6341C25.8908 23.7311 26.0327 23.5893 25.9505 23.4904Z" fill="#252932"/>
<path d="M34.6164 16.0371C34.6687 15.8692 34.7117 15.6993 34.7453 15.5276C34.7547 15.4753 34.7304 15.4156 34.6743 15.4044C34.6239 15.3932 34.5604 15.4193 34.551 15.4753C34.5174 15.647 34.4745 15.8169 34.4221 15.9849C34.4072 16.0353 34.4408 16.0969 34.4931 16.1081C34.5473 16.1211 34.5996 16.0913 34.6164 16.0371Z" fill="#252932"/>
<path d="M31.6779 19.8171C31.7882 19.0966 32.6064 18.7793 33.1089 18.3631C33.7795 17.8087 34.2708 17.0173 34.5622 16.2035C34.6052 16.0822 34.4109 16.028 34.3679 16.1494C34.0691 16.9837 33.5423 17.8068 32.8175 18.3351C32.3019 18.7102 31.592 19.0649 31.4855 19.7611C31.465 19.8899 31.6593 19.944 31.6779 19.8171Z" fill="#252932"/>
<path d="M34.9807 15.2439C34.5977 13.5341 33.9738 11.8916 33.2004 10.3218C32.7988 9.50804 32.3598 8.71103 31.8946 7.93269C31.5434 7.34286 30.6879 7.15808 30.0509 7.11702C29.8416 7.10395 29.6828 7.08528 29.4998 6.97329C29.3391 6.87437 29.2009 6.73998 29.0944 6.58506C28.8291 6.20242 28.7899 5.74139 28.9263 5.30462C28.8945 5.32888 28.8609 5.35315 28.8291 5.37928C29.2943 5.37741 29.7594 5.34008 30.2246 5.35688C30.6897 5.37368 31.2408 5.44647 31.6032 5.76192C32.229 6.30508 32.3411 7.16181 32.7876 7.82443C32.8604 7.93082 33.0341 7.83003 32.9613 7.72364C32.4849 7.01436 32.3729 6.05683 31.6387 5.5286C31.2819 5.27102 30.7887 5.19076 30.3591 5.16276C29.8491 5.12917 29.3373 5.17583 28.8273 5.1777C28.7824 5.1777 28.7432 5.20943 28.7301 5.25236C28.5246 5.91124 28.7115 6.62798 29.2644 7.05729C29.3709 7.13941 29.4867 7.20847 29.6137 7.25887C29.7688 7.32047 29.9145 7.31113 30.0789 7.3242C30.4805 7.35406 30.8915 7.44179 31.2483 7.63218C31.4388 7.73483 31.6032 7.85243 31.719 8.03908C31.8517 8.25186 31.975 8.47398 32.1001 8.69236C32.3224 9.0806 32.5354 9.47444 32.7427 9.87014C33.1743 10.7026 33.5684 11.5556 33.9065 12.4291C34.2689 13.3643 34.5641 14.3237 34.7845 15.3017C34.8144 15.4231 35.0087 15.3708 34.9807 15.2439Z" fill="#252932"/>
<path d="M34.6183 11.0237C34.9097 12.4329 35.9222 13.551 36.2547 14.9396C36.3351 15.2775 36.3631 15.6284 36.3052 15.9718C36.2398 16.3657 36.0623 16.7296 35.8905 17.0862C35.5169 17.8645 35.0704 18.6018 34.609 19.3316C34.0934 20.1473 33.5591 20.9517 33.0921 21.7954C33.0286 21.9093 33.2023 22.0101 33.2658 21.8962C34.127 20.3395 35.2142 18.9154 36.0007 17.3157C36.3295 16.6494 36.6097 15.9961 36.5125 15.2383C36.4266 14.5607 36.1184 13.9355 35.8083 13.3344C35.4141 12.5729 34.9863 11.817 34.8107 10.9696C34.7864 10.8426 34.5922 10.8968 34.6183 11.0237Z" fill="#252932"/>
<path d="M33.3835 28.2198C33.4096 28.1545 33.4395 28.0929 33.4694 28.0313C33.4265 27.9902 33.3517 27.9809 33.3162 28.0481C33.0622 28.524 32.795 28.9907 32.5148 29.4517C32.4476 29.5618 32.6213 29.6645 32.6886 29.5525C32.9071 29.1922 33.1164 28.8245 33.32 28.455C33.3293 28.3747 33.3499 28.2963 33.3835 28.2198Z" fill="#252932"/>
<path d="M27.3235 28.8284C27.3235 28.8321 27.3254 28.8358 27.3254 28.8396C27.331 28.8881 27.3216 28.9366 27.3141 28.9852C27.3067 29.0374 27.3011 29.0859 27.2843 29.1363C27.2525 29.2371 27.2077 29.3342 27.1591 29.4275C27.1012 29.5414 27.0377 29.6496 26.9816 29.7635C26.9742 29.784 26.9648 29.8064 26.9611 29.8288C26.9424 29.9072 26.8994 29.9725 26.8434 30.0285C26.8079 30.1069 26.7724 30.1853 26.735 30.2637C26.6771 30.3795 26.8509 30.4821 26.9088 30.3645C27.1329 29.9128 27.3104 29.4387 27.4374 28.9516C27.458 28.8713 27.387 28.8209 27.3235 28.8284Z" fill="#252932"/>
<path d="M36.4322 50.5661C36.2435 48.9777 35.9222 47.4079 35.4776 45.8718C35.4421 45.7467 35.2478 45.8008 35.2833 45.9259C36.0231 48.4774 36.4098 51.1186 36.4359 53.7746C36.449 55.1204 36.3743 56.4662 36.2173 57.8007C36.1352 58.5007 36.0305 59.1988 35.9035 59.8931C35.8568 60.1544 35.8531 60.4661 35.6756 60.677C35.5075 60.8786 35.259 61.0186 35.0143 61.1082C34.0168 61.4703 32.5186 60.9104 32.2589 59.8184C32.229 59.6934 32.0347 59.7456 32.0646 59.8726C32.3019 60.8712 33.3685 61.3583 34.3157 61.4087C34.8238 61.4348 35.3543 61.2631 35.7298 60.9122C35.8848 60.7666 35.9894 60.5986 36.0212 60.3877C36.081 60.007 36.1576 59.6299 36.2192 59.251C36.6769 56.3822 36.7759 53.4536 36.4322 50.5661Z" fill="#252932"/>
<path d="M29.5615 43.2791C29.6268 43.4863 29.6904 43.6954 29.752 43.9063C29.7669 43.9567 29.823 43.994 29.8753 43.9772C29.9257 43.9604 29.9612 43.9081 29.9463 43.854C29.8846 43.645 29.823 43.4359 29.7557 43.2269C29.7408 43.1765 29.6847 43.1391 29.6324 43.1559C29.582 43.1709 29.5446 43.225 29.5615 43.2791Z" fill="#252932"/>
<path d="M27.783 48.9235C26.933 50.2656 26.339 51.742 25.6328 53.1605C25.4535 53.5208 25.2686 53.8754 25.0687 54.2245C24.8651 54.581 24.6615 54.9655 24.3999 55.2846C24.1832 55.5478 23.9236 55.8091 23.662 56.0294C23.3874 56.259 23.0699 56.4326 22.7037 56.3579C21.6315 56.1395 21.0841 54.9935 21.1103 53.9818C21.1159 53.7261 21.1588 53.4741 21.2429 53.2315C21.3569 52.903 21.5735 52.6118 21.7529 52.3169C22.1657 51.6393 22.5804 50.9618 22.9765 50.2749C23.8601 48.7443 24.6559 47.1466 25.0892 45.4257C25.121 45.3006 24.9267 45.2465 24.895 45.3715C24.4784 47.029 23.72 48.5689 22.8737 50.0472C22.4553 50.777 22.0144 51.4956 21.5773 52.2142C21.3923 52.5185 21.1756 52.819 21.0542 53.1568C20.9702 53.392 20.9253 53.6402 20.9123 53.8885C20.8525 54.9076 21.34 56.063 22.3395 56.4587C22.5954 56.5595 22.8718 56.6173 23.1408 56.5483C23.4491 56.468 23.7125 56.2646 23.9404 56.0499C24.2113 55.7961 24.4877 55.5254 24.6932 55.2174C24.9342 54.8553 25.1584 54.482 25.3676 54.1013C26.2848 52.4363 26.9349 50.6351 27.9548 49.0243C28.0258 48.9142 27.8521 48.8134 27.783 48.9235Z" fill="#252932"/>
<path d="M32.6438 29.2335C30.8393 29.9222 28.9226 30.2676 26.9929 30.2489C26.864 30.247 26.864 30.4486 26.9929 30.4505C28.9394 30.4691 30.8785 30.122 32.698 29.4276C32.8175 29.381 32.7652 29.1868 32.6438 29.2335Z" fill="#252932"/>
<path d="M32.3654 14.8165C32.1898 14.3965 32.1674 13.956 32.1226 13.5099C32.0777 13.0619 31.9731 12.6382 31.7228 12.2593C31.6518 12.1511 31.4781 12.2519 31.5491 12.3601C31.805 12.7484 31.8928 13.1739 31.932 13.6312C31.9694 14.0549 32.0049 14.473 32.1693 14.8687C32.2197 14.9863 32.4158 14.9359 32.3654 14.8165Z" fill="#252932"/>
<path d="M29.7128 43.0906C29.752 43.2679 29.7894 43.4453 29.8249 43.6245C29.8361 43.6767 29.8996 43.7103 29.9481 43.6954C30.0023 43.6767 30.0303 43.6263 30.0191 43.5722C29.9836 43.393 29.9463 43.2157 29.9071 43.0384C29.8958 42.9861 29.8323 42.9525 29.7838 42.9674C29.7277 42.9842 29.6997 43.0346 29.7128 43.0906Z" fill="#252932"/>
<path d="M27.047 37.5135C27.882 38.4374 28.5452 39.4995 28.9991 40.6605C29.0458 40.7799 29.2401 40.7277 29.1934 40.6063C28.7264 39.4118 28.0501 38.3217 27.1908 37.3716C27.1012 37.2746 26.9592 37.4183 27.047 37.5135Z" fill="#252932"/>
<path d="M34.9676 41.0207C35.6326 44.8061 35.9764 48.6511 35.9203 52.4943C35.9054 53.5694 35.8568 54.6445 35.7765 55.7178C35.7671 55.8466 35.9689 55.8466 35.9782 55.7178C36.2659 51.8709 36.1296 47.9997 35.6476 44.1733C35.5131 43.1001 35.3506 42.0324 35.1638 40.9666C35.1395 40.8397 34.9452 40.8938 34.9676 41.0207Z" fill="#252932"/>
<path d="M32.4532 33.8178C33.929 35.5052 34.2951 37.8439 34.749 39.9624C34.7771 40.0894 34.9713 40.0352 34.9433 39.9083C34.48 37.7506 34.099 35.3932 32.5952 33.6741C32.5111 33.5771 32.3691 33.7208 32.4532 33.8178Z" fill="#252932"/>
<path d="M27.6597 38.0436C27.6522 38.2787 27.5793 38.5102 27.4822 38.7248C27.4598 38.7734 27.4673 38.8331 27.5177 38.863C27.5607 38.8891 27.6335 38.876 27.6559 38.8275C27.768 38.5792 27.8521 38.3198 27.8614 38.0454C27.8633 37.9913 27.8147 37.9446 27.7605 37.9446C27.7045 37.9428 27.6615 37.9894 27.6597 38.0436Z" fill="#252932"/>
<path d="M32.5616 60.8824C32.5149 60.8694 32.4457 60.8992 32.4383 60.9534C32.3841 61.3061 32.3056 61.6571 32.2085 62.0005C32.2104 62.0154 32.2122 62.0322 32.2141 62.0472C32.229 62.2039 32.244 62.3645 32.2496 62.5268C32.2552 62.5194 32.2627 62.5101 32.2664 62.4989C32.4345 62.0136 32.556 61.5152 32.6344 61.0075C32.64 60.9534 32.6176 60.8992 32.5616 60.8824Z" fill="#252932"/>
<path d="M36.8544 63.6877C36.0175 63.1632 35.8624 61.963 35.8064 61.0671C35.7989 60.9383 35.5972 60.9383 35.6046 61.0671C35.6588 61.9462 35.8026 62.9037 36.4191 63.5794C36.7423 63.9322 37.2112 64.1114 37.5773 64.4175C37.9472 64.7254 38.1994 65.1081 38.2293 65.5896C37.5605 65.8155 36.8562 65.8491 36.1613 65.7203C35.8288 65.6587 35.5038 65.5654 35.1862 65.4515C34.8761 65.3414 34.5753 65.235 34.353 64.983C34.0037 64.5892 33.9196 64.0348 33.8393 63.5346C33.8094 63.348 33.815 63.0642 33.6917 62.913C33.5479 62.7376 33.2733 62.6835 33.0603 62.7059C32.9333 62.7189 32.9314 62.9205 33.0603 62.9074C33.2135 62.8925 33.4433 62.9074 33.5404 63.0512C33.6002 63.1389 33.6002 63.2957 33.617 63.4002C33.66 63.6597 33.6955 63.921 33.759 64.1786C33.8711 64.6433 34.0803 65.0801 34.4801 65.3638C34.7248 65.5374 35.0554 65.6251 35.3394 65.7166C35.6607 65.8211 35.9895 65.9032 36.3238 65.9518C37.0132 66.0525 37.7062 65.9984 38.3638 65.7595C38.4049 65.7446 38.4385 65.7091 38.4385 65.6624C38.4217 64.6695 37.6091 64.1618 36.8544 63.6877Z" fill="#252932"/>
<path d="M20.4678 59.1445C20.5892 58.7992 20.6116 58.2747 20.2865 58.0302C20.1875 57.9555 20.0661 57.9238 19.9447 57.9219C19.8158 57.9182 19.8158 58.1198 19.9447 58.1235C20.0474 58.1272 20.139 58.1571 20.2044 58.2243C20.2361 58.256 20.2585 58.2915 20.2828 58.34C20.2996 58.3718 20.3164 58.4296 20.3258 58.4763C20.3687 58.6723 20.3426 58.8944 20.2735 59.0922C20.2286 59.2135 20.4248 59.2658 20.4678 59.1445Z" fill="#252932"/>
<path d="M23.1969 56.8058C23.2567 57.1325 23.4117 57.4703 23.2231 57.7802C23.0718 58.0321 22.898 58.2692 22.7505 58.523C22.4796 58.9859 22.2517 59.4899 22.205 60.0293C22.1826 60.2906 22.1994 60.5706 22.276 60.8226C22.3526 61.0708 22.4945 61.306 22.6234 61.5319C22.9036 62.0172 23.2361 62.5062 23.2492 63.0848C23.2735 63.0531 23.2978 63.0195 23.3239 62.9878C22.7112 63.1894 22.0667 63.3517 21.4167 63.3163C20.9646 63.292 20.4098 63.1856 20.1893 62.7433C20.0137 62.3905 20.0137 61.963 20.0231 61.5785C20.0343 61.1828 20.081 60.7871 20.0959 60.3914C20.1015 60.2626 19.8998 60.2626 19.8942 60.3914C19.8774 60.845 19.8195 61.2967 19.8195 61.7521C19.8195 62.1516 19.8493 62.6033 20.0735 62.9486C20.3313 63.3424 20.8338 63.4619 21.2765 63.5067C21.9864 63.5795 22.7056 63.4021 23.3763 63.1819C23.4174 63.1688 23.451 63.1296 23.451 63.0848C23.4398 62.5566 23.1894 62.1012 22.9298 61.6551C22.7859 61.4087 22.6384 61.1623 22.5225 60.901C22.3955 60.6135 22.3768 60.272 22.4142 59.9621C22.4871 59.3536 22.8028 58.8011 23.1259 58.2935C23.2679 58.0695 23.4771 57.8455 23.5126 57.5748C23.55 57.2949 23.4398 57.0205 23.3912 56.7498C23.3688 56.6248 23.1745 56.6789 23.1969 56.8058Z" fill="#252932"/>
<path d="M20.9403 55.7978C20.8954 55.8389 20.8413 55.8669 20.7796 55.8818C20.7124 55.9079 20.6433 55.9266 20.5723 55.9397C20.3294 56.1823 20.0231 56.3671 19.8232 56.6508C19.6009 56.9681 19.4981 57.4422 19.7989 57.7446C19.8904 57.836 20.0324 57.6942 19.9409 57.6027C19.6719 57.3321 19.8624 56.8823 20.0847 56.6452C20.3649 56.3466 20.7311 56.1394 20.9534 55.7847C20.9534 55.7829 20.9534 55.7829 20.9552 55.781C20.9496 55.7885 20.9459 55.7941 20.9403 55.7978Z" fill="#252932"/>
<path d="M33.1033 64.8206L33.0977 62.8794C33.0977 62.7506 32.8959 62.7488 32.8959 62.8794C32.8978 63.4263 32.8997 63.9713 32.9015 64.5182C32.9015 64.6489 32.9015 64.7814 32.9034 64.9121C32.9034 64.9923 32.9221 65.1305 32.8679 65.2014C32.7782 65.319 32.7073 65.1193 32.6923 65.0521C32.6699 64.9513 32.6774 64.8449 32.6774 64.7422C32.6755 63.8817 32.8249 62.9448 32.3374 62.1795C32.3094 62.1347 32.2627 62.1272 32.2216 62.1384C32.2309 62.2317 32.2384 62.3269 32.2421 62.4221C32.4681 62.8589 32.5018 63.3573 32.4962 63.8463C32.4924 64.1188 32.4794 64.3932 32.4775 64.6657C32.4756 64.871 32.4588 65.1025 32.5709 65.2854C32.6549 65.4235 32.8249 65.4926 32.9651 65.3899C33.135 65.2648 33.1052 65.0035 33.1033 64.8206Z" fill="#252932"/>
<path d="M19.6943 57.6982C19.6962 57.659 19.6775 57.6347 19.6532 57.6179C19.6924 57.9651 19.6364 58.3347 19.5467 58.6501C19.5262 58.7229 19.4982 58.7957 19.4739 58.8685C19.4757 59.1746 19.4813 59.4789 19.4926 59.785C19.4982 59.9138 19.6999 59.9156 19.6943 59.785C19.6663 59.0887 19.6663 58.3944 19.6943 57.6982Z" fill="#252932"/>
<path d="M36.7572 23.7217C36.7535 23.7198 36.7479 23.7142 36.7385 23.7086C36.6788 23.6732 36.619 23.6358 36.5555 23.606C36.5517 23.6041 36.5405 23.5985 36.5312 23.5948C36.3257 23.7366 36.0941 23.843 35.8493 23.871C35.7316 23.8841 35.6084 23.8617 35.5019 23.8076C35.0237 23.731 34.5286 23.4809 34.2297 23.102C34.1961 23.0591 34.1662 23.0143 34.1401 22.9695C34.0784 22.9546 34.0186 22.934 33.957 22.9042C33.6712 22.7604 33.4676 22.4375 33.4302 22.109L32.5672 21.5789L31.7601 20.3097L31.5883 19.8543L31.1624 19.7927V20.7819L30.8411 21.5136L29.8006 21.6051L28.7881 21.3288L28.2762 20.9088L28.2164 19.5967H27.486L27.0844 20.0838L27.3086 21.4875L27.288 22.3778L27.0956 22.949L25.8272 23.6638L25.7823 23.746C25.9019 24.0539 25.9131 24.3937 25.8552 24.7334C26.0831 25.1235 26.2326 25.564 26.3147 26.0026C26.5781 26.3703 26.7556 26.794 26.7612 27.2532C26.7631 27.4641 26.7276 27.6675 26.6641 27.8617C27.2189 27.8878 27.7737 27.9289 28.3304 27.9475C29.1598 27.9755 29.9631 27.9177 30.7738 27.7329C31.8311 27.4902 32.8455 27.1207 33.8505 26.7249C33.8767 26.6858 33.9122 26.6522 33.957 26.6298C34.0317 26.5943 34.1083 26.557 34.1849 26.5196C34.2036 26.4076 34.2876 26.3124 34.3922 26.2639C34.5361 26.1053 34.7154 25.9895 34.8892 25.8607C34.8948 25.8551 34.9116 25.8421 34.9228 25.8327C34.9452 25.8141 34.9657 25.7936 34.9882 25.773C35.0349 25.7301 35.0834 25.6872 35.1301 25.6424C35.2217 25.5528 35.3095 25.4594 35.3917 25.3587C35.429 25.3139 35.4645 25.2672 35.5 25.2224C35.5075 25.2112 35.5318 25.1795 35.5336 25.1776C35.5523 25.1533 35.571 25.1272 35.5897 25.1029C35.6719 24.9928 35.7541 24.8846 35.84 24.78C35.9652 24.6288 36.109 24.4888 36.2734 24.3787C36.2958 24.3526 36.3182 24.3265 36.3388 24.3003C36.3462 24.2891 36.3537 24.2798 36.3631 24.2686C36.3817 24.2443 36.4004 24.2201 36.4172 24.1958C36.533 24.039 36.647 23.8804 36.7666 23.7254C36.7647 23.7273 36.7609 23.7254 36.7572 23.7217Z" fill="#252932"/>
<path d="M26.4548 39.1897L26.3894 39.9456C26.4529 39.6992 26.4809 39.451 26.4847 39.199C26.4735 39.1953 26.4641 39.1916 26.4548 39.1897Z" fill="#252932"/>
<path d="M27.4841 36.9685H26.3838V38.9732H27.4841V36.9685Z" fill="#252932"/>
<path d="M26.8995 40.3675C26.8603 39.0273 26.8136 37.6871 26.7706 36.347C26.7538 35.8299 25.9486 35.8281 25.9654 36.347C26.0065 37.661 26.0495 38.9769 26.0906 40.2909C26.0999 40.569 26.1074 40.8416 26.0178 41.1066C26.014 41.2541 25.9897 41.4015 25.9486 41.5378C25.8777 41.7748 25.7749 42.0007 25.6759 42.2265C25.5918 42.4188 25.5563 42.4636 25.5022 42.6595C25.3695 43.1243 25.2444 43.5779 25.0538 44.0128C25.2388 44.22 25.6553 44.2237 25.7581 43.8728C25.9281 43.2904 26.1392 42.7211 26.4044 42.1743C26.5427 41.8887 26.7071 41.6106 26.8061 41.3063C26.9032 41.0021 26.9088 40.681 26.8995 40.3675Z" fill="#252932"/>
<path d="M29.8939 45.7523C29.9388 45.5843 30.0154 45.4219 30.1162 45.2801C30.1293 45.2521 30.1424 45.2259 30.1536 45.1979C30.2003 45.0393 30.2657 44.8881 30.3554 44.7444C30.5552 44.2871 30.7402 43.8223 30.8915 43.3463C31.1978 42.3869 31.366 41.3697 31.252 40.3636C31.2277 40.1471 31.0839 39.9604 30.8485 39.9604C30.6505 39.9604 30.4207 40.1452 30.445 40.3636C30.6412 42.0827 29.9687 43.7159 29.2476 45.239C28.5732 46.6613 27.9119 48.1153 27.0321 49.4256C26.552 50.1386 25.9934 50.7919 25.3321 51.3425C25.164 51.4825 25.1883 51.7681 25.3321 51.9118C25.4984 52.078 25.7338 52.0518 25.9019 51.9118C26.778 51.182 27.4692 50.2749 28.0614 49.3062C28.1286 49.1587 28.2127 49.0243 28.3042 48.8955C28.4593 48.6249 28.6106 48.3505 28.7544 48.0742C29.1355 47.3407 29.4904 46.5922 29.8491 45.8475C29.8641 45.8158 29.8771 45.784 29.8939 45.7523Z" fill="#252932"/>
<path d="M37.6576 41.8102C37.5269 40.5204 37.0617 39.2922 36.6713 38.0659C36.5069 37.5507 36.3425 37.0356 36.1781 36.5204C36.1538 36.2311 36.1258 35.9418 36.0885 35.6525C35.6326 34.3198 35.2142 32.974 34.7939 31.6283C34.6818 31.4808 34.5753 31.3296 34.4819 31.1691C34.4109 31.0459 34.3418 30.9171 34.3044 30.7809C34.2932 30.7398 34.2876 30.6969 34.2802 30.6558C34.1008 30.1966 33.914 29.7393 33.7254 29.282L33.2098 28.7463L30.0864 30.1089L29.0029 30.3124L26.3932 30.2694C26.2269 30.7267 25.9056 31.1374 25.6348 31.5405C25.5769 31.7608 25.4461 31.9586 25.3564 32.1677C25.3434 32.2143 25.3303 32.2591 25.3191 32.3058C25.2948 32.3991 25.2724 32.4962 25.2612 32.5914C25.2387 32.7575 25.2331 32.9255 25.2145 33.0935C25.1696 33.478 25.1024 33.8625 25.0968 34.2507C25.0949 34.3403 25.0968 34.4318 25.0986 34.5214C25.1603 34.8181 25.2499 35.1093 25.3788 35.3893C25.6815 36.0557 26.0775 36.6753 26.3951 37.3268H26.2755V40.1209C26.2083 40.3692 26.1242 40.6118 26.0252 40.8508C26.0327 41.0001 26.042 41.1494 26.0364 41.2931C26.0215 41.7934 25.8459 42.1835 25.5881 42.6034C25.5488 42.6688 25.504 42.7285 25.4629 42.7919C25.3265 43.2716 25.1883 43.7401 24.9716 44.1862C24.8128 44.6379 24.6316 45.0822 24.4373 45.5171C23.9815 46.5418 23.4641 47.5385 22.9279 48.5222C22.6365 49.056 22.3376 49.588 22.0387 50.1181L20.9366 53.1232C20.9366 53.1381 20.9403 53.1512 20.9403 53.1661C20.9422 53.2594 20.9291 53.3471 20.9086 53.433L21.1421 53.5805L20.9908 54.8516L22.0033 56.2197L23.0811 56.3243L23.8881 55.9622L24.1964 55.5123L24.4112 55.6486C24.5289 55.5515 24.6578 55.4638 24.7811 55.3798C24.9697 55.2491 25.1622 55.1241 25.3471 54.9897C25.3975 54.93 25.4498 54.874 25.504 54.8198C25.5302 54.7937 25.5582 54.7713 25.5843 54.747C25.6236 54.6481 25.6684 54.5473 25.7207 54.4484C25.773 54.1927 25.8309 53.937 25.9038 53.6887C26.0439 53.2184 26.2269 52.7629 26.4156 52.3094C26.6006 51.8633 26.7668 51.4022 26.9872 50.9711C27.1124 50.7265 27.2619 50.4951 27.4169 50.2693L27.6878 49.0037L27.7905 48.7872H28.3771C28.5191 48.5987 28.6704 48.4158 28.7974 48.2067C29.0421 47.8073 29.2289 47.3761 29.4718 46.9748C29.5857 46.7863 29.6997 46.5997 29.8118 46.4111C29.8155 46.2208 29.8267 46.0304 29.8641 45.8419C29.907 45.6216 30.006 45.4088 30.1443 45.2278C30.1779 45.1027 30.2209 44.9795 30.2806 44.8638V43.8372C30.3759 43.6953 30.4917 43.5647 30.6206 43.4508C30.6823 43.169 30.7794 42.9058 30.9457 42.6762C30.9475 42.6744 30.9475 42.6725 30.9494 42.6688C30.955 42.6557 30.9606 42.6408 30.9644 42.6277C30.9756 42.5941 30.9868 42.5605 30.9961 42.5269C30.9998 42.5157 31.0092 42.4466 31.0111 42.4485C31.0148 42.4149 31.0167 42.3813 31.0185 42.3477C31.0241 42.2675 31.0297 42.1872 31.0353 42.1069C31.0465 41.9296 31.054 41.7523 31.0559 41.5731C31.0559 41.3846 31.2091 41.2446 31.3921 41.2371C31.4314 41.2353 31.4669 41.2427 31.5024 41.2558C31.5341 41.267 31.564 41.2838 31.592 41.3062C31.6182 41.3267 31.6425 41.351 31.663 41.379C31.663 41.379 31.663 41.3809 31.6649 41.3809C31.6836 41.407 31.6966 41.435 31.7078 41.4648C31.7097 41.4704 31.7116 41.476 31.7134 41.4816C31.7228 41.5115 31.7284 41.5414 31.7284 41.5731C31.7284 41.6571 31.7265 41.7411 31.7228 41.8251C31.7247 41.8437 31.7284 41.8605 31.7284 41.8811C31.7284 42.0883 31.734 42.2955 31.7396 42.5008C31.7396 42.5082 31.7396 42.5157 31.7396 42.525C31.7452 42.7285 31.7527 42.9319 31.7583 43.1335C31.7639 43.322 31.7695 43.5106 31.7732 43.6972C31.7751 43.7513 31.7751 43.8073 31.7751 43.8615C31.777 44.0649 31.777 44.2684 31.7695 44.4718C31.7602 44.7443 31.7433 45.0168 31.7097 45.2856C31.9768 47.1764 32.173 49.0896 32.0235 50.9972C31.9806 51.5329 31.9096 52.063 31.8087 52.5856C31.9171 53.6533 31.9955 54.7228 32.046 55.7942C32.0889 56.7312 32.1412 57.6794 32.1263 58.6182C32.1226 58.9038 32.1113 59.236 32.0553 59.5571L32.0889 59.8091L32.9445 60.9663L34.4165 61.2668L35.8531 60.7087L35.9371 60.4903H36.3444C36.5349 60.1562 36.8226 59.8483 37.0187 59.5795C37.03 59.5646 37.0374 59.5496 37.0486 59.5347C37.1196 59.3387 37.185 59.139 37.2373 58.9374C37.0972 58.0284 37.1103 57.0783 37.1607 56.1693C37.2149 55.2099 37.2765 54.258 37.2784 53.2968C37.2803 52.091 37.2485 50.8833 37.2037 49.6794C37.1887 49.2725 37.1701 48.8656 37.1532 48.4587C37.256 47.5068 37.3587 46.5567 37.4633 45.6048C37.6034 44.3561 37.7865 43.0775 37.6576 41.8102ZM36.888 42.2731C36.8973 42.4728 36.9029 42.6725 36.8992 42.8741C36.6507 42.7695 36.6489 42.3944 36.888 42.2731Z" fill="#252932"/>
<path d="M36.4079 41.3828C36.4378 41.4202 36.4397 41.4239 36.4172 41.394C36.4322 41.4146 36.4471 41.4351 36.4621 41.4575C36.492 41.5004 36.52 41.5434 36.548 41.5882C36.6022 41.6759 36.6508 41.7673 36.6956 41.8625C36.7068 41.8868 36.718 41.9092 36.7273 41.9335C36.7124 41.898 36.7124 41.9017 36.7311 41.9447C36.7479 41.9932 36.7666 42.0417 36.7834 42.0921C36.8133 42.1854 36.8376 42.2788 36.8581 42.374C36.8674 42.4188 36.8749 42.4636 36.8824 42.5083C36.8899 42.5569 36.8899 42.5606 36.8843 42.5177C36.888 42.5438 36.8899 42.5699 36.8917 42.5961C36.9011 42.6987 36.9048 42.8033 36.9011 42.9078C36.8992 42.9601 36.8973 43.0123 36.8917 43.0627C36.8899 43.0888 36.8861 43.115 36.8843 43.1411C36.8899 43.0982 36.8899 43.1019 36.8824 43.1504C36.8656 43.2531 36.8432 43.3539 36.8151 43.4547C36.7591 43.6581 36.8843 43.9008 37.0972 43.9493C37.3102 43.9978 37.5325 43.8858 37.5922 43.6675C37.8668 42.6726 37.6203 41.6124 36.9777 40.8154C36.845 40.6512 36.5443 40.6661 36.4079 40.8154C36.2473 40.9871 36.2659 41.2055 36.4079 41.3828Z" fill="#252932"/>
<path d="M36.5461 41.9933C36.5461 42.5141 36.5461 43.0348 36.5461 43.5556C36.5461 43.7665 36.7311 43.9681 36.9496 43.9588C37.1682 43.9494 37.3531 43.7814 37.3531 43.5556C37.3531 43.0348 37.3531 42.5141 37.3531 41.9933C37.3531 41.7824 37.1682 41.5808 36.9496 41.5902C36.7311 41.6014 36.5461 41.7675 36.5461 41.9933Z" fill="#252932"/>
<path d="M36.6526 58.5828C36.619 58.3737 36.3481 58.2393 36.1576 58.3009C35.9315 58.3737 35.84 58.5734 35.8755 58.7955C35.8774 58.803 35.8774 58.8067 35.8792 58.8105C35.8811 58.8235 35.883 58.8366 35.883 58.8497C35.8867 58.8926 35.8904 58.9355 35.8923 58.9803C35.896 59.0718 35.8942 59.1651 35.8867 59.2566C35.8848 59.279 35.883 59.2995 35.8811 59.3219C35.8811 59.3275 35.8774 59.3443 35.8755 59.3574C35.8736 59.3648 35.8736 59.3742 35.8718 59.376C35.868 59.3966 35.8643 59.419 35.8606 59.4395C35.8419 59.531 35.8195 59.6206 35.7914 59.7083C35.7784 59.7493 35.7634 59.7904 35.7485 59.8315C35.7429 59.8445 35.7373 59.8595 35.7317 59.8725C35.7298 59.8763 35.7279 59.8781 35.7261 59.8856C35.6887 59.964 35.6495 60.0424 35.6046 60.1171C35.5822 60.1544 35.5598 60.1917 35.5355 60.2272C35.5206 60.2496 35.5056 60.272 35.4888 60.2944C35.4869 60.2981 35.4757 60.313 35.4683 60.3224C35.4608 60.3298 35.4552 60.3392 35.4514 60.341C35.4384 60.3578 35.4234 60.3746 35.4085 60.3896C35.3767 60.4269 35.3412 60.4624 35.3076 60.496C35.1582 60.6453 35.147 60.9178 35.3076 61.0653C35.4683 61.2127 35.7186 61.2239 35.8774 61.0653C36.5274 60.4138 36.8002 59.4862 36.6526 58.5828Z" fill="#252932"/>
<path d="M23.0027 14.5271C22.5151 14.9937 21.9884 15.4324 21.5288 15.927C21.6446 16.1248 21.7025 16.3451 21.753 16.5691C21.7735 16.584 21.7941 16.6008 21.8146 16.6176C21.8613 16.6587 21.9006 16.7072 21.936 16.7595L21.9118 15.8598L23.0027 14.5271Z" fill="#252932"/>
<path d="M24.1217 13.144C23.905 13.5416 23.6248 13.8888 23.3165 14.2136L24.3813 13.172C24.2954 13.1608 24.2076 13.1515 24.1217 13.144Z" fill="#252932"/>
<path d="M34.4054 16.024C34.3923 16.0632 34.3773 16.1005 34.3587 16.1379C34.2746 16.3152 34.0523 16.3282 33.8972 16.2592C33.8692 16.2461 33.8431 16.2349 33.8151 16.2237C33.802 16.2181 33.7889 16.2125 33.7758 16.2069C33.7254 16.1864 33.675 16.1677 33.6264 16.1472C33.5106 16.1005 33.3947 16.0539 33.2808 15.9997C33.0585 15.8915 32.8642 15.7422 32.7185 15.5424C32.6326 15.423 32.5709 15.283 32.5298 15.1355C32.4626 15.0347 32.4065 14.9283 32.3636 14.8164C32.3486 14.7753 32.3355 14.7324 32.3225 14.6894L32.0815 14.6241L32.0142 13.4575L31.4295 11.9848C31.2838 11.871 31.1363 11.7553 30.9719 11.6563C30.7682 11.5369 30.5516 11.4435 30.3274 11.3689C29.5465 11.2028 28.7582 11.0385 27.9605 11.115C27.9531 11.115 27.9437 11.1169 27.9363 11.1188C27.8578 11.1505 27.7812 11.186 27.7046 11.2233C27.3871 11.3801 27.0116 11.5537 26.7725 11.8187C26.5931 12.0184 26.481 12.2704 26.3241 12.4869C26.113 12.78 25.859 13.0208 25.5134 13.1458C25.2108 13.2559 24.91 13.2373 24.6055 13.2018L26.0327 13.9242L25.8665 14.066C25.8833 14.0921 25.8982 14.1201 25.9094 14.1537C25.9617 14.3143 25.8478 14.5382 25.674 14.5681C25.6124 14.5793 25.5507 14.5924 25.491 14.611C25.4872 14.6129 25.476 14.6166 25.4629 14.6222C25.4424 14.6577 25.42 14.695 25.3957 14.7286C25.278 14.8966 25.1379 15.0459 24.9941 15.1934C24.9511 15.2363 24.91 15.2811 24.8689 15.3259C24.8596 15.3483 24.8521 15.3688 24.8428 15.3912C24.8222 15.4472 24.8017 15.5051 24.783 15.5611C24.7475 15.6675 24.7139 15.7758 24.6802 15.8821C24.6148 16.0931 24.5513 16.3058 24.4673 16.5112C24.4411 16.5765 24.4038 16.6306 24.3571 16.6717L25.6311 19.9232L26.5819 20.638L28.1866 20.2871L28.2968 18.8854L27.9662 18.5625L27.2264 17.3063L27.2171 16.2946L27.7252 15.3838L28.3734 14.6521L29.498 14.1369L30.4787 14.4878L31.4146 15.0907L31.3866 17.0133L30.4245 18.8518L30.5721 19.884L31.4781 19.5499L32.9352 18.4915L34.0859 17.0973L34.4371 16.0912L34.4054 16.024Z" fill="#252932"/>
<path d="M29.3111 13.6666C28.6498 13.5304 28.0576 13.9018 27.6485 14.3927C27.2301 14.8948 26.8153 15.4977 26.7873 16.1696C26.7556 16.9386 27.1068 17.6554 27.1404 18.4169C27.1684 19.059 26.8247 19.899 26.055 19.8542C25.9261 19.8467 25.9261 20.0483 26.055 20.0557C26.5818 20.0875 27.0171 19.7011 27.2132 19.2363C27.4953 18.5681 27.2637 17.8234 27.1105 17.1552C27.0246 16.7781 26.9517 16.3899 27.0021 16.0017C27.0526 15.6209 27.2487 15.3054 27.458 14.9919C27.8559 14.3927 28.4462 13.6909 29.2569 13.8589C29.3839 13.8869 29.4381 13.6928 29.3111 13.6666Z" fill="white"/>
<path d="M25.9112 10.5942C25.3975 11.3203 24.8912 12.0539 24.3626 12.7706C23.8433 13.4743 23.2623 14.1238 22.6869 14.7809C22.601 14.8779 22.743 15.0216 22.8289 14.9227C23.4005 14.2732 23.974 13.6273 24.4915 12.933C25.037 12.1976 25.5563 11.4435 26.0849 10.695C26.1597 10.5886 25.9859 10.4897 25.9112 10.5942Z" fill="#252932"/>
<path d="M26.0925 10.5179C26.3521 9.85528 27.0471 9.52303 27.6729 9.28225C28.0521 9.13666 28.435 9.00227 28.8161 8.86415C29.1617 8.73909 29.7259 8.40872 30.0546 8.71109C30.2863 8.92388 30.3274 9.30652 30.3143 9.60143C30.2975 9.99526 30.0939 10.2752 29.709 10.376C29.3635 10.4675 29.0627 10.3742 28.7414 10.2491C28.4089 10.1203 28.0932 10.1073 27.7663 10.2622C27.0321 10.6094 26.5091 11.4306 26.2176 12.1586C26.1691 12.278 26.3652 12.3303 26.4119 12.2127C26.5894 11.7685 26.8416 11.3578 27.1629 11.0032C27.4524 10.684 27.8522 10.3126 28.3173 10.3443C28.5508 10.3592 28.7563 10.4862 28.9749 10.5552C29.1374 10.6056 29.313 10.628 29.4849 10.6168C29.7726 10.6 30.0714 10.4992 30.2713 10.2846C30.6655 9.86088 30.6132 8.88655 30.1424 8.52444C29.808 8.26686 29.4008 8.44045 29.0515 8.56737C28.6013 8.73162 28.1492 8.89028 27.7009 9.06013C26.9742 9.33451 26.2008 9.70035 25.9001 10.4675C25.8515 10.5851 26.0458 10.6374 26.0925 10.5179Z" fill="#252932"/>
<path d="M27.8054 27.606C27.7624 27.4846 27.5681 27.5369 27.6111 27.6601C27.6858 27.8747 27.6989 28.1024 27.6316 28.3208C27.5719 28.5168 27.4467 28.6867 27.3253 28.8491C27.329 28.8939 27.3216 28.9386 27.3159 28.9834C27.3085 29.0357 27.3029 29.0842 27.2861 29.1346C27.2543 29.2354 27.2095 29.3325 27.1609 29.4258C27.103 29.5397 27.0395 29.6479 26.9834 29.7618C26.976 29.7823 26.9666 29.8047 26.9629 29.8271C26.9367 29.9354 26.862 30.025 26.7723 30.0884C26.8228 30.109 26.89 30.094 26.9106 30.0287C26.9853 29.801 27.0824 29.5826 27.2039 29.3773C27.3197 29.1813 27.4617 29.0058 27.5924 28.8211C27.8483 28.459 27.9567 28.0353 27.8054 27.606Z" fill="#252932"/>
<path d="M33.6824 26.5046C33.5348 27.2419 33.2789 27.9511 32.9239 28.6119C32.8623 28.7257 33.036 28.8284 33.0976 28.7127C33.4619 28.037 33.7253 27.309 33.8766 26.5568C33.9009 26.4318 33.7066 26.3777 33.6824 26.5046Z" fill="#252932"/>
<path d="M30.7925 38.921C30.7121 37.872 30.5291 36.8286 30.2246 35.8226C30.1032 35.4194 29.6548 35.1245 29.2326 35.2607C28.8254 35.3933 28.5396 35.8188 28.6704 36.2519C28.7937 36.6606 28.8983 37.0731 28.9823 37.4912C29.0234 37.7003 29.0608 37.9093 29.0925 38.1203C29.0981 38.1632 29.1056 38.2043 29.1112 38.2472C29.1112 38.2472 29.1112 38.2472 29.1112 38.2491C29.1112 38.2509 29.1112 38.2509 29.1112 38.2547C29.1243 38.3704 29.1392 38.488 29.1504 38.6037C29.2345 39.453 29.2401 40.3078 29.1691 41.1571C29.1523 41.3493 29.1318 41.5397 29.1093 41.7301C29.1093 41.7376 29.1075 41.7395 29.1075 41.7469C29.1 41.7973 29.0925 41.8477 29.0851 41.8962C29.0683 42.012 29.0477 42.1277 29.0272 42.2434C28.9543 42.6522 28.8646 43.0591 28.7563 43.4604C28.6461 43.8729 28.5172 44.2798 28.3696 44.6792C28.2986 44.8696 28.2258 45.06 28.1454 45.2485C28.1249 45.2952 28.0894 45.3773 28.0763 45.4053C28.0277 45.5117 27.9792 45.6181 27.9287 45.7245C27.7251 46.1463 27.501 46.5588 27.2562 46.9582C27.1329 47.158 27.0059 47.354 26.8733 47.5481C26.8004 47.6526 26.7257 47.7571 26.651 47.8617C26.6248 47.8952 26.6005 47.9307 26.5744 47.9643C26.5538 47.9904 26.5352 48.0184 26.5146 48.0446C26.5109 48.0483 26.509 48.0502 26.5053 48.0558C26.5034 48.0595 26.4997 48.0632 26.4978 48.067C26.3652 48.2387 26.2699 48.3973 26.2699 48.6251C26.2699 48.8229 26.3577 49.0581 26.5053 49.1943C26.7948 49.4594 27.3664 49.549 27.6448 49.1943C29.9201 46.2994 31.0727 42.5943 30.7925 38.921Z" fill="white"/>
<path d="M34.9134 39.2755C35.0741 39.7813 35.2161 40.2946 35.3319 40.8135C35.3861 41.0599 35.4365 41.3082 35.4795 41.5583C35.5019 41.6833 35.5206 41.8084 35.5392 41.9335C35.5411 41.9502 35.5747 42.1985 35.5523 42.0193C35.5617 42.094 35.571 42.1705 35.5803 42.2452C35.6401 42.7715 35.67 43.3016 35.6663 43.8317C35.6644 44.0837 35.6569 44.3357 35.6401 44.5877C35.6326 44.7127 35.6214 44.8396 35.6084 44.9647C35.6028 45.0151 35.599 45.0655 35.5934 45.1159C35.5897 45.1457 35.5486 45.4519 35.5747 45.2783C35.4159 46.3403 35.1469 47.3818 34.9788 48.4439C34.8032 49.5638 34.6818 50.6949 34.6332 51.8279C34.5809 53.0449 34.6071 54.2637 34.7079 55.4788C34.7434 55.8969 35.0535 56.3038 35.5131 56.2833C35.9203 56.2646 36.3556 55.9268 36.3182 55.4788C36.2267 54.3944 36.1968 53.3043 36.2286 52.2161C36.2454 51.673 36.2771 51.128 36.3238 50.5867C36.3481 50.316 36.3761 50.0454 36.406 49.7747C36.421 49.6459 36.4378 49.5172 36.4546 49.3884C36.4733 49.239 36.4266 49.5787 36.4621 49.3324C36.4733 49.2558 36.4845 49.1793 36.4957 49.1009C36.6582 48.0127 36.9309 46.9469 37.1028 45.8606C37.2784 44.75 37.3214 43.6301 37.2168 42.5102C37.1009 41.2652 36.845 40.0408 36.4658 38.85C36.3388 38.4486 35.8998 38.15 35.4739 38.2881C35.0741 38.415 34.7771 38.8444 34.9134 39.2755Z" fill="white"/>
<path d="M37.5493 64.285L36.6321 63.6466L35.9447 62.5192L35.713 60.9793L32.627 60.7815L32.2496 62.3008L32.6419 65.3395L32.9913 65.151L33.0155 63.0213L33.5068 62.8869L33.7217 63.6466L34.3493 65.1921L36.2155 65.8304L38.3377 65.7688L38.2461 65.1342L37.5493 64.285Z" fill="#252932"/>
<path d="M22.4403 61.1717L22.3339 59.8222L22.6944 58.8311L23.2828 57.8735L23.5257 56.1489L22.4254 55.9865L21.1906 55.6001L21.0243 55.7177C21.0001 55.7476 20.9739 55.7756 20.9403 55.7979C20.9029 55.8334 20.8562 55.8558 20.8076 55.8726L20.2603 56.2608L19.6252 57.2837L19.6177 57.4162C19.7111 57.8101 19.6551 58.2562 19.5523 58.6295L19.4813 59.9528L20.0529 59.824L19.9409 60.1432L19.8381 61.713L20.2865 63.1334L21.7323 63.4638L23.4285 63.0513L23.2062 62.1852L22.4403 61.1717Z" fill="#252932"/>
<path d="M32.7895 7.77606C33.277 8.96317 33.886 10.0943 34.6146 11.1526C34.6874 11.259 34.863 11.1582 34.7883 11.0518C34.071 10.0084 33.4657 8.89411 32.9838 7.72193C32.9352 7.60434 32.739 7.6566 32.7895 7.77606Z" fill="#252932"/>
<path d="M34.8181 15.242C34.7415 15.6116 34.6051 15.9607 34.4109 16.2836C34.3324 16.4124 34.5342 16.5299 34.6126 16.4012C34.8162 16.0633 34.9638 15.69 35.0423 15.3036C35.0553 15.242 35.0236 15.1767 34.9601 15.1599C34.904 15.1431 34.8312 15.1786 34.8181 15.242Z" fill="#252932"/>
<path d="M22.9597 14.9003C23.0046 14.8406 23.0344 14.7715 23.0718 14.7081C23.0886 14.6763 23.1092 14.6465 23.1297 14.6166C23.1503 14.5886 23.1148 14.6334 23.1372 14.6073C23.1409 14.6017 23.1465 14.5961 23.1503 14.5905C23.1633 14.5756 23.1764 14.5606 23.1895 14.5476C23.2138 14.5214 23.2399 14.4972 23.268 14.4748C23.281 14.4636 23.296 14.4524 23.3091 14.4412C23.3128 14.4393 23.3315 14.4244 23.3147 14.4356C23.3221 14.43 23.3296 14.4244 23.3371 14.4188C23.3969 14.374 23.4585 14.3329 23.5201 14.2937C23.5706 14.2601 23.5967 14.1892 23.5612 14.1332C23.5295 14.0828 23.4566 14.0548 23.4006 14.0921C23.268 14.1799 23.1353 14.2694 23.0232 14.3833C22.9672 14.4412 22.9149 14.5065 22.8757 14.5774C22.8364 14.6465 22.8028 14.7211 22.7561 14.7846C22.7206 14.8331 22.7468 14.9171 22.7972 14.9451C22.8607 14.975 22.9205 14.9545 22.9597 14.9003Z" fill="#252932"/>
<path d="M24.6877 12.3267C24.118 13.1909 23.4959 14.0178 22.885 14.8521C22.8626 14.882 22.8626 14.91 22.8738 14.9361C22.9093 14.9044 22.9467 14.8745 22.9896 14.8465C23.0718 14.7886 23.1634 14.7513 23.2474 14.6972C23.2493 14.6972 23.2493 14.6953 23.2512 14.6953C23.8004 13.9487 24.3515 13.2021 24.8633 12.4294C24.9343 12.3211 24.7587 12.2203 24.6877 12.3267Z" fill="#252932"/>
<path d="M26.2625 12.0372C26.2008 12.2239 26.1616 12.4161 26.1429 12.6121C26.1373 12.6737 26.2008 12.7316 26.2587 12.7278C26.3279 12.7241 26.369 12.6756 26.3746 12.6121C26.3764 12.5879 26.3802 12.5636 26.382 12.5412C26.3858 12.5076 26.3783 12.5655 26.3839 12.5319C26.3858 12.5225 26.3876 12.5113 26.3876 12.502C26.3951 12.4553 26.4026 12.4105 26.4138 12.3657C26.4325 12.2761 26.4568 12.1884 26.4867 12.1026C26.5053 12.0447 26.4642 11.9719 26.4045 11.9588C26.3409 11.9402 26.283 11.9756 26.2625 12.0372Z" fill="#252932"/>
<path d="M26.0794 14.9359C26.3054 14.6353 26.6267 14.2919 26.4661 13.885C26.3858 13.6834 26.1971 13.5416 25.9711 13.6032C25.7786 13.6554 25.6086 13.8943 25.689 14.0978C25.6908 14.1015 25.6908 14.1052 25.6927 14.109C25.6815 14.1258 25.674 14.1463 25.661 14.1612C25.6012 14.2359 25.5451 14.3162 25.4872 14.3927C25.3695 14.5476 25.2518 14.7025 25.1435 14.8649C24.9193 15.1953 24.7288 15.5462 24.5906 15.9232C24.329 16.6419 24.3365 17.4799 24.7381 18.1463C25.0053 18.5905 25.702 18.1855 25.433 17.7394C25.0819 17.1589 25.1977 16.4384 25.4891 15.8579C25.6535 15.5313 25.8608 15.2289 26.0794 14.9359ZM25.6983 14.1239C25.7114 14.1556 25.7021 14.1426 25.6983 14.1239V14.1239Z" fill="#252932"/>
<path d="M38.4011 13.4763C38.8121 14.2901 38.9783 15.2047 38.8887 16.1118C38.8737 16.2611 39.1072 16.2592 39.1222 16.1118C39.2156 15.1636 39.0325 14.2079 38.6029 13.3587C38.5356 13.2243 38.3339 13.3419 38.4011 13.4763Z" fill="#252932"/>
<path d="M40.1478 13.1383C40.3757 13.7972 40.5214 14.4822 40.5719 15.1784C40.5831 15.3278 40.8166 15.3278 40.8054 15.1784C40.7512 14.4617 40.6073 13.7561 40.372 13.0767C40.3253 12.9367 40.0992 12.9965 40.1478 13.1383Z" fill="#252932"/>
<path d="M39.6116 41.2653C39.6601 42.1295 39.6452 42.9956 39.5649 43.856C39.5518 44.0053 39.7853 44.0053 39.7984 43.856C39.8787 42.9937 39.8936 42.1276 39.8451 41.2653C39.8357 41.116 39.6022 41.116 39.6116 41.2653Z" fill="#252932"/>
<path d="M40.8987 41.7039C41.1042 42.6819 40.9884 43.7141 40.5643 44.6194C40.5008 44.7538 40.7026 44.8732 40.7661 44.737C41.2182 43.7701 41.3433 42.6857 41.1229 41.6404C41.093 41.4948 40.867 41.5564 40.8987 41.7039Z" fill="#252932"/>
<path d="M23.169 31.7237C23.0774 32.0876 22.9878 32.4535 22.8962 32.8174C22.8103 33.1627 22.7075 33.5155 22.7113 33.8758C22.7169 34.3984 23.0176 34.9434 23.5781 35.005C23.7275 35.0218 23.7256 34.7885 23.5781 34.7717C23.0046 34.7082 22.9 34.0083 22.9691 33.5566C23.0606 32.9612 23.2474 32.3713 23.3931 31.7871C23.4305 31.6397 23.2044 31.5781 23.169 31.7237Z" fill="#252932"/>
<path d="M21.3439 31.3391C21.4466 31.8543 21.1664 32.3358 20.9871 32.8006C20.8096 33.2616 20.7013 33.7469 20.662 34.2378C20.6135 34.8351 20.5966 35.9364 21.3756 36.0894C21.5232 36.1174 21.5849 35.8935 21.4373 35.8636C21.0543 35.7889 20.9292 35.3596 20.8937 35.0199C20.847 34.5775 20.8862 34.1128 20.9721 33.6779C21.0599 33.2448 21.2187 32.8454 21.385 32.4385C21.5382 32.0615 21.6502 31.6844 21.568 31.2757C21.5381 31.1301 21.314 31.1917 21.3439 31.3391Z" fill="#252932"/>
<path d="M45.4221 23.5189C45.7779 23.1176 45.871 22.6194 45.6301 22.4061C45.3892 22.1928 44.9054 22.3452 44.5496 22.7464C44.1938 23.1476 44.1007 23.6458 44.3416 23.8591C44.5826 24.0724 45.0663 23.9201 45.4221 23.5189Z" fill="#252932"/>
<path d="M45.6418 17.7693H45.3802V22.6428H45.6418V17.7693Z" fill="#252932"/>
<path d="M47.3901 36.7855C47.7459 36.3842 47.839 35.886 47.5981 35.6727C47.3572 35.4594 46.8734 35.6118 46.5176 36.013C46.1618 36.4142 46.0687 36.9124 46.3097 37.1257C46.5506 37.339 47.0343 37.1867 47.3901 36.7855Z" fill="#252932"/>
<path d="M47.6069 31.0366H47.3453V35.9101H47.6069V31.0366Z" fill="#252932"/>
<path d="M22.1173 6.18491C22.4998 5.75359 22.5995 5.21772 22.34 4.98801C22.0805 4.7583 21.5601 4.92174 21.1777 5.35306C20.7952 5.78438 20.6954 6.32025 20.9549 6.54996C21.2144 6.77967 21.7348 6.61623 22.1173 6.18491Z" fill="#252932"/>
<path d="M22.3545 0H22.0724V5.24307H22.3545V0Z" fill="#252932"/>
<path d="M42.3342 31.2942C42.69 30.893 42.7832 30.3948 42.5422 30.1815C42.3013 29.9682 41.8175 30.1206 41.4617 30.5218C41.1059 30.923 41.0128 31.4212 41.2538 31.6345C41.4947 31.8478 41.9784 31.6955 42.3342 31.2942Z" fill="#252932"/>
<path d="M49.3557 21.9422C49.7115 21.541 49.8046 21.0428 49.5637 20.8295C49.3228 20.6162 48.839 20.7685 48.4832 21.1697C48.1274 21.571 48.0343 22.0692 48.2752 22.2825C48.5162 22.4958 48.9999 22.3434 49.3557 21.9422Z" fill="#252932"/>
<path d="M49.574 16.1941H49.3125V21.0676H49.574V16.1941Z" fill="#252932"/>
<path d="M45.4923 18.0047L45.3802 17.7676L49.5741 15.959V16.1942L45.4923 18.0047Z" fill="#252932"/>
<path d="M45.4923 18.4432L45.3802 18.2061L49.5741 16.3975V16.6345L45.4923 18.4432Z" fill="#252932"/>
<path d="M12.6322 13.026C13.0146 12.5947 13.1144 12.0588 12.8549 11.8291C12.5954 11.5994 12.075 11.7628 11.6925 12.1941C11.3101 12.6254 11.2103 13.1613 11.4698 13.391C11.7293 13.6207 12.2497 13.4573 12.6322 13.026Z" fill="#252932"/>
<path d="M12.8684 6.84082H12.5863V12.0839H12.8684V6.84082Z" fill="#252932"/>
<path d="M16.8636 11.3312C17.2461 10.8998 17.3458 10.364 17.0863 10.1342C16.8269 9.90454 16.3065 10.068 15.924 10.4993C15.5415 10.9306 15.4418 11.4665 15.7013 11.6962C15.9607 11.9259 16.4811 11.7625 16.8636 11.3312Z" fill="#252932"/>
<path d="M17.0996 5.146H16.8175V10.3891H17.0996V5.146Z" fill="#252932"/>
<path d="M12.7059 7.09288L12.5863 6.83903L17.0995 4.89038V5.1461L12.7059 7.09288Z" fill="#252932"/>
<path d="M12.7059 7.56505L12.5863 7.3112L17.0995 5.36255V5.61826L12.7059 7.56505Z" fill="#252932"/>
<path d="M43.5906 29.2821C43.5551 29.06 43.5794 28.8248 43.5271 28.6064C43.4132 28.1155 43.161 27.6844 42.8621 27.2831C42.6304 26.9732 42.5053 26.6317 42.4866 26.249C42.4829 26.165 42.4717 26.0904 42.3745 26.0904C42.2624 26.0885 42.2942 26.1856 42.2942 26.2471C42.2923 26.8687 42.2923 27.4921 42.2923 28.1137C42.2923 28.7651 42.2923 29.4165 42.2923 30.0679C42.3577 30.0866 42.4212 30.109 42.4866 30.1333C42.4847 29.3568 42.481 28.5803 42.4791 27.8038C42.4791 27.7236 42.4791 27.6414 42.4791 27.5145C42.5781 27.5854 42.6398 27.6228 42.6921 27.6713C43.3347 28.2611 43.5234 29.1533 43.1741 29.9522C43.1367 30.0362 43.0844 30.1258 43.2095 30.1762C43.3235 30.221 43.3926 30.1687 43.4337 30.053C43.5253 29.8048 43.6336 29.564 43.5906 29.2821Z" fill="#252932"/>
<path d="M14.8166 20.0501C15.1991 19.6188 15.2988 19.083 15.0393 18.8532C14.7799 18.6235 14.2595 18.787 13.877 19.2183C13.4945 19.6496 13.3948 20.1855 13.6543 20.4152C13.9137 20.6449 14.4341 20.4815 14.8166 20.0501Z" fill="#252932"/>
<path d="M16.1693 17.8851C16.1319 17.6462 16.1562 17.3942 16.102 17.159C15.9787 16.6308 15.7079 16.1679 15.3847 15.7349C15.1362 15.4026 14.9999 15.0331 14.9812 14.6224C14.9775 14.531 14.9644 14.4526 14.8616 14.4507C14.7402 14.4488 14.7757 14.5534 14.7757 14.6206C14.7738 15.2906 14.7738 15.9589 14.7738 16.6289C14.7738 17.3308 14.7738 18.0307 14.7738 18.7325C14.8448 18.753 14.9139 18.7773 14.9831 18.8034C14.9812 17.9672 14.9775 17.1329 14.9756 16.2967C14.9756 16.209 14.9756 16.1231 14.9756 15.985C15.0821 16.0615 15.1493 16.1026 15.2054 16.153C15.8965 16.7876 16.1002 17.747 15.7247 18.6075C15.6855 18.6971 15.6294 18.7941 15.762 18.8482C15.8853 18.8968 15.9601 18.8408 16.003 18.7157C16.0983 18.4469 16.216 18.1875 16.1693 17.8851Z" fill="#252932"/>
<path d="M29.9631 13.7002C30.3031 13.7319 30.6617 13.7674 30.955 13.9615C31.1848 14.1145 31.3492 14.3441 31.4631 14.5924C31.6948 15.0982 31.6593 15.6451 31.7938 16.1714C31.9339 16.7202 32.3187 16.9591 32.8604 17.0375C33.3966 17.1159 34.0074 17.0095 34.2802 16.4869C34.3493 16.3544 34.1475 16.2349 34.0784 16.3693C33.9234 16.6642 33.6207 16.8061 33.2976 16.8285C33.008 16.8471 32.6288 16.8117 32.3747 16.6567C31.9283 16.388 31.9694 15.7403 31.9002 15.2923C31.8311 14.8313 31.6761 14.359 31.3585 14.0063C30.9942 13.5994 30.4805 13.5154 29.9612 13.4668C29.8136 13.4538 29.8155 13.6871 29.9631 13.7002Z" fill="white"/>
</svg>
